<svg xmlns="http://www.w3.org/2000/svg" viewBox="0 0 461.25 316.86"><defs><style>.cls-1{opacity:0.05;}.cls-2{fill:#1f275b;}</style></defs><title>Asset 4</title><g id="Layer_2" data-name="Layer 2"><g id="Layer_1-2" data-name="Layer 1"><g class="cls-1"><path class="cls-2" d="M342.45,196.31a39.38,39.38,0,0,1,3.72-5.88c3.54,6.79,6.38,14.76,6.38,22.38,0,33.87-22.18,53.77-52.32,53.77-28.93,0-42.54-30.64-68.1-18l5.93-7c10.27-12.31,24.62-9.45,29.56-4.72,0-7.19,9.42-10.89,9.42-10.89,4.1,11.9,21.35,11.5,21.35,22.38,0,7.8-7.38,8.21-12.73,5.74a22.21,22.21,0,0,0,14.16,5.75c12.93,0,22.41-3.76,29.3-9.34a8.47,8.47,0,1,1,9.11-10.53c5.71-9.38,7.54-20.52,7.54-27.94A42.07,42.07,0,0,0,342.45,196.31Z"/><path class="cls-2" d="M337.81,187.58A53,53,0,0,0,326,174.37a18,18,0,0,0,3.8-.86,26.13,26.13,0,0,0,3.54-1.57,83.61,83.61,0,0,1,8.44,11Z"/><path class="cls-2" d="M113.7,246c-33.61.54-57-23.16-67.82-34,10.4,3.34,17.32-.63,20.86-.63,11.71,0,15.85,3.14,15.85,9,0,5.61-2.93,8.33-2.93,8.33,9.83,7.94,25.25,10.24,33.41,10.24,32.57,0,43.19-27.43,54.25-34.32a14.15,14.15,0,0,0,3.84,4.52s-7.58,4.75-7.58,13.74c0,13.59,8.77,15.64,8.77,15.64,5.85,2.09,14-1,14-8.64,0-11.18-12.92-19.12-12.92-19.12-3.92-3-7.11-5.23-7.11-12.36a8.84,8.84,0,1,1,17.68,0,9,9,0,0,1-3.58,7.22s21.57,2,21.57,23.84c26.25-5.21,32.78,36.12,44.12,36.12,1,0,3.16.29,3.16-.85s-6.28.57-6.28-6.37c0-5.39,5.15-6.4,7.7-6.4s8.66,1.15,8.66,10.93S249.7,275,243.4,274c-21.66-3.18-28.25-28.53-50.11-28.53-2.27,0-7.37,2.13-13,2.13s-23.58-5.35-23.58-21.7C156.66,225.94,139.79,245.58,113.7,246Z"/><path class="cls-2" d="M129.14,165c10.22,5.87,24.74,27.64,33.13,15.43,4,5.38,4,21.78-15.24,16.25-8.2,17.16-6.88,61,28.8,61,13.18,0,19.84-5,24-10.5-6.29,16.22-25.37,17-30.52,17s-42.36-5-42.36-38.54c0,0-13.36,2.67-27.46-9a6.39,6.39,0,0,1,3.22,5.37c0,3.68-3.27,6.24-8,6.24a8.43,8.43,0,0,1-8.49-8.35c0-5.25,2.76-9.89,9.87-9.89,9.84,0,11.27,2.65,21.26,2.65,11,0,7.19-12.62,15.89-12.62a9,9,0,0,1,6.48,3.05c2.29-9.92,2.36-24.92-14.63-35.22C127,166.66,129.14,165,129.14,165Z"/><path class="cls-2" d="M218.85,259.14c-4.63,10.74-12.79,21.19-27.36,28.7-8,4.14-18,4.31-18,4.31,4,8.78,1.43,15.84-1.18,19.64s-7.09,5.43-12.21,5c-4.48-.52-8.18-3.87-8.18-8.66a8.42,8.42,0,0,1,8.18-8.66,9,9,0,0,1,8.48,7,7,7,0,0,0,2.07-4.4c0-9-9.05-11-9.05-11a22.25,22.25,0,0,0-.7-6.3c6.27,2.37,12.45,1.82,16.63,1.18,0,0-3.32-1.42-3.32-6.17,0-15.6,28-5.52,39-25.89C215,255.43,218.85,259.14,218.85,259.14Z"/><path class="cls-2" d="M141.28,174.95c2.89-1.76,7.36-5.39,17.31-8.46,0,0-1.6-2.07-3.35-4-6.17,1.92-15.92,7.4-17.68,9C139.35,173.19,141.28,174.95,141.28,174.95Z"/><path class="cls-2" d="M252.78,272.94c10.89,2.66,14.64,1.72,25.13,0-2.86-3.44-4-9.53-18.54-9.53A10.41,10.41,0,0,1,252.78,272.94Z"/><path class="cls-2" d="M130.52,265.48c7.09-7.9,13.46,1.91,20.6-1.57a7.23,7.23,0,0,0,3.39-4.1c2.41,4.95,6.88,9.61.33,16.24,0,0,6.93,4.07,6.63,15.48-10.12,5.28-16.73.67-16.73.67C141.67,301,135.51,299,130,299a7.19,7.19,0,0,0,2.22-4.85c0-8.12-11.77-10-6.9-20.57a4.84,4.84,0,1,0,5.2-8.13Z"/><path class="cls-2" d="M132.92,270.72C114.77,255,112,232.93,111.91,224a30.49,30.49,0,0,1-5.41-2.43,63.16,63.16,0,0,0,9.36,37.06,5.85,5.85,0,1,0,6.55,9.06,73.18,73.18,0,0,0,6.45,6.77A4.89,4.89,0,0,0,132.92,270.72Z"/><path class="cls-2" d="M101.7,158.65a43.71,43.71,0,0,0-39,43.31,42.27,42.27,0,0,0,1.09,9.77,13.14,13.14,0,0,1,3.09-.5l3.06.1A36.89,36.89,0,0,1,68.72,202a37.64,37.64,0,0,1,30.33-36.72A8.27,8.27,0,0,0,101.7,158.65Z"/><path class="cls-2" d="M342.45,120.56a39.3,39.3,0,0,0,3.72,5.87c3.54-6.79,6.38-14.75,6.38-22.38,0-33.87-22.18-53.76-52.32-53.76-28.93,0-42.54,30.63-68.1,18l5.93,7c10.27,12.32,24.62,9.45,29.56,4.72,0,7.19,9.42,10.88,9.42,10.88,4.1-11.9,21.35-11.49,21.35-22.37,0-7.81-7.38-8.21-12.73-5.75a22.18,22.18,0,0,1,14.16-5.75c12.93,0,22.41,3.76,29.3,9.34a8.47,8.47,0,1,0,9.11,10.53c5.71,9.38,7.54,20.52,7.54,27.94A42.12,42.12,0,0,1,342.45,120.56Z"/><path class="cls-2" d="M337.81,129.29A52.72,52.72,0,0,1,326,142.49a18,18,0,0,1,3.8.86,27,27,0,0,1,3.54,1.57,83.74,83.74,0,0,0,8.44-11Z"/><path class="cls-2" d="M113.7,70.86c-33.61-.53-57,23.17-67.82,34,10.4-3.35,17.32.62,20.86.62,11.71,0,15.85-3.13,15.85-9,0-5.61-2.93-8.33-2.93-8.33C89.48,80.27,104.91,78,113.07,78c32.57,0,43.19,27.43,54.25,34.32a14.07,14.07,0,0,1,3.84-4.52S163.59,103,163.59,94c0-13.59,8.77-15.63,8.77-15.63,5.86-2.1,14,1,14,8.64,0,11.18-12.92,19.13-12.92,19.13-3.92,3-7.11,5.22-7.11,12.36a8.84,8.84,0,1,0,17.68,0,9.09,9.09,0,0,0-3.58-7.23s21.57-2,21.57-23.83c26.25,5.21,32.78-36.12,44.12-36.12,1,0,3.16-.28,3.16.85S243,51.62,243,58.56c0,5.38,5.15,6.39,7.7,6.39s8.66-1.14,8.66-10.92-9.62-12.13-15.92-11.2C221.73,46,215.15,71.36,193.28,71.36c-2.27,0-7.37-2.13-13-2.13s-23.56,5.35-23.56,21.69C156.68,90.93,139.79,71.28,113.7,70.86Z"/><path class="cls-2" d="M129.14,151.91c10.22-5.87,24.74-27.65,33.13-15.43,4-5.37,4-21.78-15.24-16.25-8.2-17.18-6.88-61.05,28.8-61.05,13.18,0,19.84,5,24,10.5-6.29-16.22-25.37-17-30.52-17S127,57.65,127,91.23c0,0-13.36-2.67-27.46,9a6.39,6.39,0,0,0,3.22-5.37c0-3.68-3.27-6.24-8-6.24a8.42,8.42,0,0,0-8.49,8.34c0,5.25,2.76,9.89,9.87,9.89,9.84,0,11.27-2.65,21.26-2.65,11,0,7.19,12.61,15.89,12.61a9,9,0,0,0,6.48-3c2.29,9.92,2.36,24.93-14.63,35.23C127,150.21,129.14,151.91,129.14,151.91Z"/><path class="cls-2" d="M218.85,57.74C214.22,47,206.06,36.55,191.49,29c-8-4.14-18-4.31-18-4.31,4-8.77,1.42-15.83-1.2-19.63s-7.09-5.43-12.21-5C155.65.58,152,3.94,152,8.72a8.42,8.42,0,0,0,8.18,8.66,9,9,0,0,0,8.48-7,7,7,0,0,1,2.07,4.41c0,9-9.05,11-9.05,11a22.33,22.33,0,0,1-.7,6.31c6.27-2.38,12.45-1.82,16.63-1.18,0,0-3.32,1.42-3.32,6.17,0,15.6,28,5.52,39,25.89C215,61.44,218.85,57.74,218.85,57.74Z"/><path class="cls-2" d="M141.28,141.92c2.89,1.76,7.36,5.39,17.31,8.45,0,0-1.6,2.08-3.35,4-6.17-1.92-15.92-7.39-17.68-9C139.35,143.68,141.28,141.92,141.28,141.92Z"/><path class="cls-2" d="M252.78,43.93c10.89-2.68,14.64-1.73,25.13,0-2.86,3.44-4,9.54-18.54,9.54A10.41,10.41,0,0,0,252.78,43.93Z"/><path class="cls-2" d="M130.52,51.39c7.09,7.9,13.46-1.91,20.6,1.57a7.19,7.19,0,0,1,3.39,4.11c2.41-4.95,6.88-9.61.33-16.24,0,0,6.93-4.07,6.63-15.49-10.12-5.27-16.73-.66-16.73-.66-3.08-8.8-9.24-6.82-14.75-6.82a7.16,7.16,0,0,1,2.22,4.84c0,8.12-11.77,10-6.9,20.57a4.78,4.78,0,0,1,2.93-1,4.84,4.84,0,0,1,2.27,9.11Z"/><path class="cls-2" d="M132.92,46.14c-18.15,15.69-20.9,37.79-21,46.75a30.53,30.53,0,0,0-5.41,2.43,63.12,63.12,0,0,1,9.36-37.05,5.86,5.86,0,1,1,6.55-9.08,73.71,73.71,0,0,1,6.45-6.76A4.87,4.87,0,0,1,132.92,46.14Z"/><path class="cls-2" d="M101.7,158.22a43.71,43.71,0,0,1-39-43.31,42.25,42.25,0,0,1,1.09-9.76,13.32,13.32,0,0,0,3.09.49l3.06-.09a36.85,36.85,0,0,0-1.18,9.36,37.64,37.64,0,0,0,30.33,36.72A8.3,8.3,0,0,1,101.7,158.22Z"/><path class="cls-2" d="M140.16,158.43c-6.1,0-17.55-14.93-28.23-14.93-8.6,0-13.74,7.44-13.74,7.44s3.62,1.54,3.62,7.49-3.62,7.49-3.62,7.49,5.15,7.44,13.74,7.44C122.61,173.36,134.06,158.43,140.16,158.43Z"/><path class="cls-2" d="M362.62,250.06s9.54-2.87,9.54-17.36c0,0,21.19-5.21,15.65-37.21,0,0,9.15,2.29,9.15-6.87,0-6.1-5.53-6.67-7.44-6.67S379,182.14,379,197c0,9.35-18.11,6.49-18.11,18.51,0,6.49,7.63,7.83,7.63,7.83-5,8.2-28.43,3.62-28.43-18.7,0-7.82,7.06-15.65,7.06-15.65A12.14,12.14,0,0,0,359,196.83c6.68,0,9.16-6.11,9.16-10.69,0-8.59-9.74-9.92-9.74-9.92,9-8.59,18.46-11.88,29.58-11.88,11.41,0,15.27.43,15.27.43s-3.25,7.64-.2,11.46,9.54,10.11,4.2,16.78c0,0,18.88,4.59,22.13-15.45,0,0,12.4.19,17.93-5.91a176.08,176.08,0,0,1,13.92-13.21,177.22,177.22,0,0,1-13.92-13.21c-5.54-6.1-17.93-5.92-17.93-5.92-3.25-20-22.13-15.45-22.13-15.45,5.34,6.68-1.15,13-4.2,16.79s.2,11.45.2,11.45-3.85.43-15.27.43c-11.12,0-20.61-3.28-29.58-11.87,0,0,9.74-1.34,9.74-9.92,0-4.58-2.48-10.68-9.16-10.68a12.14,12.14,0,0,0-11.83,7.81s-7.06-7.81-7.06-15.64c0-22.32,23.46-26.9,28.43-18.7,0,0-7.63,1.34-7.63,7.82,0,12,18.11,9.16,18.11,18.51,0,14.89,8.58,15.07,10.5,15.07s7.44-.58,7.44-6.68c0-9.16-9.15-6.86-9.15-6.86,5.54-32-15.65-37.21-15.65-37.21,0-14.5-9.54-17.36-9.54-17.36A17.8,17.8,0,0,1,355,80.48c-23.44,9.77-21.37,34.4-21.37,34.4C316.07,96.56,281.9,98.47,266.54,103c1.26-9-3.16-13.26-3.16-13.26-8,8.22-26.32,5.05-26.32,5.05a30.52,30.52,0,0,0,5.68,18.32c-28.28,42.12-39.45,37-44.35,36.84a8.45,8.45,0,0,0,3.61-8c-.73-7.12-11.68-9-16.07-3.33a21.27,21.27,0,0,0-8.76-2.39c-12.88,0-14.48,12.89-26,22.22,11.53,9.32,13.13,22.21,26,22.21a21.3,21.3,0,0,0,8.76-2.38c4.38,5.69,15.33,3.79,16.07-3.33a8.45,8.45,0,0,0-3.61-8c4.9-.19,16.06-5.29,44.35,36.85a30.53,30.53,0,0,0-5.68,18.32s18.31-3.16,26.32,5c0,0,4.42-4.21,3.16-13.26,15.35,4.55,49.52,6.45,67.08-11.86,0,0-2.07,24.62,21.37,34.4A17.79,17.79,0,0,1,362.62,250.06Zm45-91.63c3.62,0,10.49-6,16.78-6s12.59,2.1,12.59,6-6.29,6-12.59,6S411.27,158.43,407.65,158.43Zm-113,51.18c-28.79,0-51.13-24-51.13-24s-23.27-27.13-51.31-27.13c-6.88,0-6.11,6.53-12.79,6.53s-7.81-6.53-7.81-6.53,1.15-6.53,7.83-6.53,5.9,6.53,12.78,6.53c28,0,51.31-27.14,51.31-27.14s22.33-24,51.13-24,43.42,23,53.62,34c13.16,14.16,23.85,17.22,30.71,17.22-6.86,0-17.55,3.06-30.71,17.22C338.11,186.63,323.51,209.61,294.69,209.61Z"/><path class="cls-2" d="M347.73,158.43c-8.81-10.91-15.9-15.9-23.55-15.9,0-10.77-10.12-13.59-10.12-13.59-10.4,11.86-32.22,4.76-28.53,24.2-39.74,3-58.2-36.36-60.33-62.87l-.9-11.59a25.36,25.36,0,0,1-6.88,6c0,20.15-22.45,31-34.31,29.61a8.42,8.42,0,0,1,.93,5.12c11.83,1.14,19.46-3.82,19.46-3.82,0,15.26,6.88,18.31,6.88,18.31,9.54,0,16.78-8.77,16.78-8.77,10.68,20.22,35.86,33.24,43.12,33.24-7.26,0-32.44,13-43.12,33.25,0,0-7.24-8.78-16.78-8.78,0,0-6.88,3.06-6.88,18.32,0,0-7.62-5-19.46-3.82a8.4,8.4,0,0,1-.93,5.11c11.86-1.41,34.31,9.45,34.31,29.6a25.49,25.49,0,0,1,6.88,6l.9-11.58c2.12-26.5,20.59-65.9,60.33-62.87-3.69,19.44,18.13,12.35,28.53,24.21,0,0,10.12-2.81,10.12-13.59C331.83,174.34,338.93,169.35,347.73,158.43ZM220.32,223.91a63.15,63.15,0,0,0-8.69-14.42c-5.4-6.47,2.74-14.62,8.09-9.21S223.05,216.37,220.32,223.91Zm-5.38-107.06s-3.52-.43-3.52-4.84,7.47-11.65,8.81-16.28C225.94,119.29,214.94,116.86,214.94,116.86ZM321,158.43c-.39,0-7.25,6.91-14.13,6.91s-9.54-6.91-9.54-6.91,2.67-6.92,9.54-6.92S320.65,158.43,321,158.43Z"/><path class="cls-2" d="M393.58,158.43c-.29-6.93-4.44-12.42-9.52-12.42s-9.26,5.3-9.52,12.42c.26,7.12,4.42,12.43,9.52,12.43S393.29,165.36,393.58,158.43Z"/><path class="cls-2" d="M306.91,237c0-11.93-23.18-12.88-23.18-25.48,0-7.53,4.59-10.48,11.3-10.48a9.51,9.51,0,0,1,9.2,6.22c.46,1,1,2.14,2.1,1.71s.61-1.26-.09-2.19c-12.46-17.54-31.44-7.7-35.46-2.65a73,73,0,0,1-8.26-4.12s1.89-8.77,1.89-12.9c0-22-23.4-23.22-32.33-21.5a17.94,17.94,0,0,1,14.27-7.18,17.94,17.94,0,0,1-14.27-7.18c8.94,1.71,32.33.51,32.33-21.5,0-4.13-1.89-12.91-1.89-12.91a73.27,73.27,0,0,1,8.26-4.11c4,5,23,14.9,35.46-2.65.7-.94,1.05-1.82.09-2.19s-1.63.7-2.1,1.71a9.51,9.51,0,0,1-9.2,6.22c-6.72,0-11.3-2.94-11.3-10.49,0-12.58,23.18-13.54,23.18-25.46a14,14,0,0,0-1.15-4.68s14,2.64,14,23.24c0,17-19.39,30.39-40.78,28.73,0,23.72-18.56,31.26-18.56,31.26S279,166,279,189.69c21.39-1.65,40.78,11.69,40.78,28.74,0,20.6-14,23.24-14,23.24A14,14,0,0,0,306.91,237Z"/><path class="cls-2" d="M108.24,211.58a52.61,52.61,0,0,1,4.2-10.51c-30,0-26.59-35.33-56.34-35.33-10,0-18.15,8.6-18.15,15.6s5.34,10,9.52,10,6.53-4.18,6.53-7.2a20.59,20.59,0,0,0-1.61-6.73c10.71-5.8,26.27.93,26.27,22.52-6-2.6-20.47,1.66-24,1.66-16.49,0-25.21-8.24-25.21-27.32-16.69,0-20.37-13.16-29.5-15.82,9.12-2.66,12.81-15.83,29.5-15.83,0-19.07,8.72-27.32,25.21-27.32,3.49,0,17.93,4.26,24,1.67,0,21.59-15.55,28.33-26.27,22.53A20.64,20.64,0,0,0,54,132.74c0-3-2.36-7.2-6.53-7.2s-9.52,3-9.52,10,8.16,15.59,18.15,15.59c29.76,0,26.35-35.33,56.34-35.33a52.55,52.55,0,0,1-4.2-10.52,46,46,0,0,1,5.69-.83c2.72,8.58,11.82,24.71,22.57,33.66a29,29,0,0,1-2.94,3.85s-8.66-8.69-20.49-8.69c-24.42,0-24.47,24.14-60.8,24.14-10.75,0-11.33-5.7-17-5.7s-9.91,6.73-9.91,6.73,4.2,6.72,9.91,6.72,6.26-5.69,17-5.69c36.32,0,36.37,24.14,60.8,24.14,11.83,0,20.49-8.69,20.49-8.69a29.72,29.72,0,0,1,2.94,3.84c-10.75,9-19.85,25.09-22.57,33.67A47.71,47.71,0,0,1,108.24,211.58Z"/></g></g></g></svg>