<svg xmlns="http://www.w3.org/2000/svg" viewBox="0 0 116.79 51.18"><defs><style>.cls-1{fill:#283f95;}</style></defs><title>Asset 4</title><g id="Layer_2" data-name="Layer 2"><g id="Layer_12" data-name="Layer 12"><path class="cls-1" d="M110.8,34.22v.54a2.37,2.37,0,0,0,.79,2,1.9,1.9,0,0,0,1.11.32q.5,0,.9-1.11l.16-.57c.06-.22.14-.32.23-.32s.18.12.18.36a2.56,2.56,0,0,1-.05.43l-.09.47a10.82,10.82,0,0,1-1.18,3.28q-.72,1.17-1.47,1.17a1.63,1.63,0,0,1-1.63-1.08A7.14,7.14,0,0,1,109.3,37Z"/><path class="cls-1" d="M111.77,44.11a2.39,2.39,0,0,1-.09.75,3.47,3.47,0,0,1-.38.68q-.82,1.11-1.33,1.11-.11,0-.41-.3t-.56-.59q-.86-.75-.86-.9a3.46,3.46,0,0,1,.43-.9l.47-.79.47-.82q.36-.54.47-.54a.65.65,0,0,1,.27.14,4,4,0,0,1,.45.39,4.93,4.93,0,0,1,.88,1A1.55,1.55,0,0,1,111.77,44.11Zm1.65,4.52a2.39,2.39,0,0,1-.09.75,3.48,3.48,0,0,1-.38.68q-.82,1.11-1.33,1.11-.11,0-.41-.3t-.56-.59q-.86-.75-.86-.9a3.46,3.46,0,0,1,.43-.9l.47-.79.47-.82q.36-.54.47-.54a.64.64,0,0,1,.27.14,3.92,3.92,0,0,1,.45.39,4.9,4.9,0,0,1,.88,1A1.54,1.54,0,0,1,113.42,48.63Zm1.9-4.52a2.39,2.39,0,0,1-.09.75,3.46,3.46,0,0,1-.38.68q-.82,1.11-1.33,1.11-.11,0-.41-.3t-.56-.59q-.86-.75-.86-.9a3.47,3.47,0,0,1,.43-.9l.47-.79.47-.82q.36-.54.47-.54a.65.65,0,0,1,.27.14,4,4,0,0,1,.45.39,4.93,4.93,0,0,1,.88,1A1.55,1.55,0,0,1,115.32,44.11Z"/><path class="cls-1" d="M110.77,34.22q-.29.93-.57,1.83t-.93,1q0-.43.39-3.75t.65-5.07.57-1.47q.54-1.33.86-2l.14-.07a1.78,1.78,0,0,1,0,.57l-.14.93-.61,4.37q-.18,1.33-.25,2.3T110.77,34.22Z"/><path class="cls-1" d="M102.15,31.44a6.76,6.76,0,0,1,1.2.05,23.19,23.19,0,0,1,2.81.59,4.88,4.88,0,0,0,1,.18,1,1,0,0,0,.75-.45,3.47,3.47,0,0,0,.54-.91,2.4,2.4,0,0,1,.32-.63q.25-.38.36-.34t.18.32a2.11,2.11,0,0,1-.07.5,7.84,7.84,0,0,1-.75,2,3.55,3.55,0,0,1-1.36,1.58,1.12,1.12,0,0,1-.72,0,3.41,3.41,0,0,0-.72-.13Z"/><path class="cls-1" d="M103.08,44.84a1.58,1.58,0,0,1-.05.77,5.67,5.67,0,0,1-.39.93,3.45,3.45,0,0,1-.73,1,.79.79,0,0,1-.47.29q-.11,0-.48-.32t-.68-.56a5.17,5.17,0,0,1-.52-.45.59.59,0,0,1-.22-.36l.32-.72q.36-.79.54-1.15.32-.54.65-1.11l.22-.32a1.41,1.41,0,0,0,.21.18l.29.18a6.89,6.89,0,0,1,1,.93A1.65,1.65,0,0,1,103.08,44.84Zm3.69-.22a1.57,1.57,0,0,1-.05.77,5.67,5.67,0,0,1-.39.93,3.45,3.45,0,0,1-.73,1,.79.79,0,0,1-.47.29q-.11,0-.48-.32t-.68-.56a5.18,5.18,0,0,1-.52-.45.59.59,0,0,1-.22-.36l.32-.72q.36-.79.54-1.15.32-.54.65-1.11l.22-.32a1.41,1.41,0,0,0,.22.18l.29.18a6.89,6.89,0,0,1,1,.93A1.65,1.65,0,0,1,106.78,44.63Z"/><path class="cls-1" d="M105.71,34.22q-.14,0-.36.82a9.48,9.48,0,0,1-.32,1.08A21.38,21.38,0,0,1,103.81,39a3.49,3.49,0,0,1-3,1.86,2,2,0,0,1-1.9-1.22,7.58,7.58,0,0,1-.65-3.48,28.39,28.39,0,0,1,.36-3.23q.36-2.44.63-3.94L99.76,26a9.91,9.91,0,0,1,.5-2l1.18-2.47c.1-.07.16-.09.18-.05a.6.6,0,0,1,0,.27,2.23,2.23,0,0,1-.05.47,3.74,3.74,0,0,0-.07.48q0,.23-.77,5.15-.43,2.83-.5,3.51a24.4,24.4,0,0,0,3.26-3.48q4.73-5.45,5.45-6.24,2.33-2.62,3.48-4a48.51,48.51,0,0,0,3.94-5.31q.22-.47.32-.47l.07.29q-.25,1-.32,1.18a12.63,12.63,0,0,1-1.29,2.51,22.38,22.38,0,0,1-1.61,2.33q-1.18,1.54-2.9,3.51l-1.94,2.15q-1.22,1.36-2.44,2.83l-2.15,2.51-2,2.22a3.81,3.81,0,0,1,.47.14,6,6,0,0,1,1.72.88,6.14,6.14,0,0,1,1.11,1.31Q105.53,33.94,105.71,34.22Zm-1.22.22q0-.65-.81-1a5.45,5.45,0,0,0-2.1-.34,2.38,2.38,0,0,0-.9.11,1.4,1.4,0,0,0-.72,1.43,2.36,2.36,0,0,0,.57,1.69,1.63,1.63,0,0,0,1.25.5,2.51,2.51,0,0,0,2-.81A2.4,2.4,0,0,0,104.49,34.44Z"/><path class="cls-1" d="M113.56,14.3a2.84,2.84,0,0,1-.25.57,20.24,20.24,0,0,1-2.37,2.9q-.79.75-1.54,1.51a6.54,6.54,0,0,1,.36-.84,4.91,4.91,0,0,1,.61-.84c1-1.11,1.67-1.84,2-2.19a20.56,20.56,0,0,0,1.33-1.69Q113.78,13.76,113.56,14.3Z"/><path class="cls-1" d="M97.55,35a6.56,6.56,0,0,1-.25,1.69,8.25,8.25,0,0,1-.65,1.69,7.14,7.14,0,0,1-1.31,1.85,2.11,2.11,0,0,1-1.49.63q-1.29,0-1.29-1.58a4.06,4.06,0,0,1,.18-1.15l.57-1.22.54-.93-.27-.09-.09,0a1.86,1.86,0,0,1,.21-.75l.61-1.36L95,32.28q.18-.43.39-.43a1.22,1.22,0,0,1,.54.22q.36.22.61.39a3.63,3.63,0,0,1,.81,1A3.72,3.72,0,0,1,97.55,35Zm-1.68,2.76a1.06,1.06,0,0,0-.36-.82,2.76,2.76,0,0,0-.5-.38,1.11,1.11,0,0,0-.54-.2q-.14,0-.54.59a1.94,1.94,0,0,0-.39,1q0,.79.93.79a1.73,1.73,0,0,0,.91-.3A.85.85,0,0,0,95.86,37.77Z"/><path class="cls-1" d="M61.1,35.79a3.27,3.27,0,0,0,.18-1q0-1.47.84-1.78a3.15,3.15,0,0,0,1.38-1,1.59,1.59,0,0,0,.43-1,1,1,0,0,0-.16-.57,1.11,1.11,0,0,0-.34-.36l-.45.07a3.42,3.42,0,0,1-.52,0,1.3,1.3,0,0,1-1-.43.93.93,0,0,1-.32-.79,10.84,10.84,0,0,1,.75-2,4,4,0,0,1,.63-1.15,1.08,1.08,0,0,1,.84-.47,2,2,0,0,1,1.47.75,3.69,3.69,0,0,1,.86,2.55,8.07,8.07,0,0,1-1.25,3.77,12.23,12.23,0,0,1-2.11,2.83,5.43,5.43,0,0,1-.82.61A1.15,1.15,0,0,1,61,36,.54.54,0,0,0,61.1,35.79Z"/><path class="cls-1" d="M62,36.26q-.11.29-.2.48a6.28,6.28,0,0,1-.36.63q-.27.43-.59.9a4.09,4.09,0,0,1-.93,1.13,5.13,5.13,0,0,1-.93.41l-1.25.43-1.94.5-.48.07c-.18,0-.28,0-.3,0s.09-.15.34-.3l.47-.29,1.34-.81a15,15,0,0,0,1.36-.9A13.29,13.29,0,0,0,60.26,37a1.89,1.89,0,0,0,.65-1.15,1.84,1.84,0,0,1-.41.11,3.69,3.69,0,0,1-.56,0,2.78,2.78,0,0,1-1-.36,1.07,1.07,0,0,1-.57-.93,7.65,7.65,0,0,1,.79-2.12,3.64,3.64,0,0,1,.61-1q.54-.68,1-.68a1.66,1.66,0,0,1,1.22.5,2,2,0,0,1,.65,1.4,6.28,6.28,0,0,1,0,.79q0,.39,0,.74a3.12,3.12,0,0,1-.11.66q-.09.32-.18.59A5,5,0,0,1,62,36.26Z"/><path class="cls-1" d="M56.73,28.38a5.24,5.24,0,0,1,.32-.54,1,1,0,0,1,.18-.22.62.62,0,0,1,.11.29l-.18,1.22-.22,2-.39,3.19a13.18,13.18,0,0,1-.34,1.77,14,14,0,0,1-.52,1.49l-.82,1.72a13.64,13.64,0,0,1-.77,1.24q-.23.3-.41.3l-.11-.25q.29-1,.54-1.88t.36-1.42q.36-1.65.5-2.92t.25-2.28L55.61,31Z"/><path class="cls-1" d="M34.62,12.17a1.58,1.58,0,0,1-.11.77,5.67,5.67,0,0,1-.46.9,3.45,3.45,0,0,1-.8.9.79.79,0,0,1-.48.25q-.11,0-.46-.35t-.64-.6a5.17,5.17,0,0,1-.49-.48.59.59,0,0,1-.19-.37l.37-.69q.41-.76.61-1.11.36-.51.72-1.07l.24-.31a1.41,1.41,0,0,0,.2.19l.27.2a6.89,6.89,0,0,1,.94,1A1.65,1.65,0,0,1,34.62,12.17Zm3.7,0a1.57,1.57,0,0,1-.11.77,5.67,5.67,0,0,1-.46.9,3.45,3.45,0,0,1-.8.9.79.79,0,0,1-.48.25q-.11,0-.46-.35t-.64-.6a5.18,5.18,0,0,1-.49-.48.59.59,0,0,1-.19-.37l.37-.69q.41-.76.61-1.11.36-.51.72-1.07l.24-.31a1.41,1.41,0,0,0,.2.19l.27.2a6.89,6.89,0,0,1,.94,1A1.65,1.65,0,0,1,38.32,12.21Z"/><path class="cls-1" d="M58.08,15.89a1.58,1.58,0,0,1-.05.77,5.67,5.67,0,0,1-.39.93,3.45,3.45,0,0,1-.73,1,.79.79,0,0,1-.47.29q-.11,0-.48-.32T55.27,18a5.17,5.17,0,0,1-.52-.45.59.59,0,0,1-.22-.36l.32-.72q.36-.79.54-1.15.32-.54.65-1.11l.22-.32a1.41,1.41,0,0,0,.21.18l.29.18a6.89,6.89,0,0,1,1,.93A1.65,1.65,0,0,1,58.08,15.89Zm3.69-.22a1.57,1.57,0,0,1-.05.77,5.67,5.67,0,0,1-.39.93,3.45,3.45,0,0,1-.73,1,.79.79,0,0,1-.47.29q-.11,0-.48-.32T59,17.74a5.18,5.18,0,0,1-.52-.45.59.59,0,0,1-.22-.36l.32-.72q.36-.79.54-1.15.32-.54.65-1.11l.22-.32a1.41,1.41,0,0,0,.22.18l.29.18a6.89,6.89,0,0,1,1,.93A1.65,1.65,0,0,1,61.77,15.68Z"/><path class="cls-1" d="M59.93,11.54a1.57,1.57,0,0,1-.05.77,5.67,5.67,0,0,1-.39.93,3.45,3.45,0,0,1-.73,1,.79.79,0,0,1-.47.29q-.11,0-.48-.32t-.68-.56a5.17,5.17,0,0,1-.52-.45.59.59,0,0,1-.22-.36l.32-.72q.36-.79.54-1.15.32-.54.65-1.11l.22-.32a1.41,1.41,0,0,0,.22.18l.29.18a6.89,6.89,0,0,1,1,.93A1.65,1.65,0,0,1,59.93,11.54Z"/><path class="cls-1" d="M12.37,16.28a1.58,1.58,0,0,1-.05.77,5.67,5.67,0,0,1-.39.93,3.45,3.45,0,0,1-.73,1,.79.79,0,0,1-.47.29q-.11,0-.48-.32t-.68-.56A5.17,5.17,0,0,1,9,17.89a.59.59,0,0,1-.22-.36l.32-.72q.36-.79.54-1.15.32-.54.65-1.11l.22-.32a1.41,1.41,0,0,0,.21.18l.29.18a6.89,6.89,0,0,1,1,.93A1.65,1.65,0,0,1,12.37,16.28Zm3.69-.22a1.57,1.57,0,0,1-.05.77,5.67,5.67,0,0,1-.39.93,3.45,3.45,0,0,1-.73,1,.79.79,0,0,1-.47.29q-.11,0-.48-.32t-.68-.56a5.18,5.18,0,0,1-.52-.45.59.59,0,0,1-.22-.36l.32-.72q.36-.79.54-1.15.32-.54.65-1.11l.22-.32a1.41,1.41,0,0,0,.22.18l.29.18a6.89,6.89,0,0,1,1,.93A1.65,1.65,0,0,1,16.06,16.06Z"/><path class="cls-1" d="M14.15,12.22a1.57,1.57,0,0,1-.05.77,5.67,5.67,0,0,1-.39.93,3.45,3.45,0,0,1-.73,1,.79.79,0,0,1-.47.29q-.11,0-.48-.32t-.68-.56a5.17,5.17,0,0,1-.52-.45.59.59,0,0,1-.22-.36l.32-.72q.36-.79.54-1.15.32-.54.65-1.11l.22-.32a1.41,1.41,0,0,0,.22.18l.29.18a6.89,6.89,0,0,1,1,.93A1.65,1.65,0,0,1,14.15,12.22Z"/><path class="cls-1" d="M56.85,23.78a2.34,2.34,0,0,0,.73-.65,6.77,6.77,0,0,0,.75-1.22l.56-1.11q.32-.65.54-.65t.25.36l-.07.5a1.53,1.53,0,0,0,.32,1,.92.92,0,0,0,.72.39.54.54,0,0,0,.54-.29,2.77,2.77,0,0,0,.2-.48c0-.13.11-.18.23-.16s.08,0,.11.09a2,2,0,0,1,.07.23,5.74,5.74,0,0,1-.68,2.44q-.83,1.65-1.76,1.65a1.33,1.33,0,0,1-.72-.18,1.41,1.41,0,0,1-.45-.43,3.62,3.62,0,0,1-.25-.45c-.06-.13-.11-.2-.16-.2s-.28.14-.48.41l-.45.59Z"/><path class="cls-1" d="M56.85,25.66a3.2,3.2,0,0,1-.63.5,2,2,0,0,1-.77.23q-.47.05-.57.27a4.08,4.08,0,0,0-.21,1q-.11.79-.22,1.42t-.22,1.06l-.25,1a26.76,26.76,0,0,1-1,2.65,14,14,0,0,1-3.33,4.81,7.67,7.67,0,0,1-5.27,2.19,4.22,4.22,0,0,1-3.58-1.51,5.64,5.64,0,0,1-1-3.51,12.37,12.37,0,0,1,.36-2.65,13.69,13.69,0,0,1,.54-1.9l1-2.3.72-1.38c.24-.47.56-.27.75-.27.07.19,0-.1,0,0a5.72,5.72,0,0,1-.36,1l-.65,1.43q-.5,1.18-.72,1.86a7.48,7.48,0,0,0-.32,2.08,3.14,3.14,0,0,0,1.09,2.49,4.41,4.41,0,0,0,3,1,7.69,7.69,0,0,0,3.82-.93,8,8,0,0,0,2.81-2.73,10.21,10.21,0,0,0,1.27-2.74,11.09,11.09,0,0,0,.38-3l0-2.15A1.61,1.61,0,0,1,54,24.39,1.11,1.11,0,0,1,55.06,24h.61a2.55,2.55,0,0,0,1.18-.22,2.71,2.71,0,0,1,.2.41,1.35,1.35,0,0,1,.09.48,2.23,2.23,0,0,1-.18.75A.43.43,0,0,1,56.85,25.66Zm-7,3.37a2.88,2.88,0,0,1-.7,1.7,1.86,1.86,0,0,1-1.34.91,3.56,3.56,0,0,1-.32-.36,10,10,0,0,0-.72-.72l-.56-.5c-.18-.17-.27-.29-.27-.36a1.91,1.91,0,0,1,.22-.47l.68-1.15a9.22,9.22,0,0,1,.9-1.29,1.68,1.68,0,0,1,.14-.22q.65.47,1,.75A2.53,2.53,0,0,1,49.82,29Z"/><path class="cls-1" d="M76.18,12.18a1.58,1.58,0,0,1-.05.77,5.67,5.67,0,0,1-.39.93,3.45,3.45,0,0,1-.73,1,.79.79,0,0,1-.47.29q-.11,0-.48-.32t-.68-.56a5.17,5.17,0,0,1-.52-.45.59.59,0,0,1-.22-.36l.32-.72q.36-.79.54-1.15.32-.54.65-1.11l.22-.32a1.41,1.41,0,0,0,.21.18l.29.18a6.89,6.89,0,0,1,1,.93A1.65,1.65,0,0,1,76.18,12.18ZM79.87,12a1.57,1.57,0,0,1-.05.77,5.67,5.67,0,0,1-.39.93,3.45,3.45,0,0,1-.73,1,.79.79,0,0,1-.47.29q-.11,0-.48-.32T77.06,14a5.18,5.18,0,0,1-.52-.45.59.59,0,0,1-.22-.36l.32-.72q.36-.79.54-1.15.32-.54.65-1.11L78,9.92a1.41,1.41,0,0,0,.22.18l.29.18a6.89,6.89,0,0,1,1,.93A1.65,1.65,0,0,1,79.87,12Z"/><path class="cls-1" d="M53.05,44.22A1.58,1.58,0,0,1,53,45a5.67,5.67,0,0,1-.39.93,3.45,3.45,0,0,1-.73,1,.79.79,0,0,1-.47.29q-.11,0-.48-.32t-.68-.56a5.17,5.17,0,0,1-.52-.45.59.59,0,0,1-.22-.36l.32-.72q.36-.79.54-1.15.32-.54.65-1.11l.22-.32a1.41,1.41,0,0,0,.21.18l.29.18a6.89,6.89,0,0,1,1,.93A1.65,1.65,0,0,1,53.05,44.22ZM56.75,44a1.57,1.57,0,0,1-.05.77,5.67,5.67,0,0,1-.39.93,3.45,3.45,0,0,1-.73,1,.79.79,0,0,1-.47.29q-.11,0-.48-.32t-.68-.56a5.18,5.18,0,0,1-.52-.45.59.59,0,0,1-.22-.36l.32-.72q.36-.79.54-1.15.32-.54.65-1.11l.22-.32a1.41,1.41,0,0,0,.22.18l.29.18a6.89,6.89,0,0,1,1,.93A1.65,1.65,0,0,1,56.75,44Z"/><path class="cls-1" d="M37.71,35.9l-.5,1.33a7.8,7.8,0,0,1-.77,1.34,3.56,3.56,0,0,1-.73.82,5.37,5.37,0,0,1-1.08.48l-.75.29-1.15.39a4.74,4.74,0,0,1-1.15.25l-.14-.07q0-.25,1.29-1.08l1.4-1q.36-.25.79-.61a9,9,0,0,0,.91-.9A3,3,0,0,0,36.5,36a1,1,0,0,1,0-.22l-.93.07a1.49,1.49,0,0,1-1.08-.41,1,1,0,0,1-.36-.91,3.21,3.21,0,0,1,.18-.68q.14-.39.65-1.43a8.22,8.22,0,0,1,.65-1.15q.47-.65.9-.65a1.63,1.63,0,0,1,1.25.61,2.15,2.15,0,0,1,.54,1.47,5.24,5.24,0,0,1-.07.86l-.13.75q-.05.32-.16.77A4.5,4.5,0,0,1,37.71,35.9Z"/><path class="cls-1" d="M41.82,25.53a4.09,4.09,0,0,0,.81-.88q.14-.18.56-.87.21-.4.35-.62a6,6,0,0,1,.69-1.09,5.37,5.37,0,0,1,.51-.53l.48-.42q.17-.22.52-.76l.31-.54a9.09,9.09,0,0,1,.92,1A2.33,2.33,0,0,1,47.53,22a2.43,2.43,0,0,1-.47,1.48,1.45,1.45,0,0,1-1.17.71,3.12,3.12,0,0,1-.5-.08,3.07,3.07,0,0,0-.65-.08,1.47,1.47,0,0,0-1.06.67,12.11,12.11,0,0,0-.73,1L41.85,27Z"/><path class="cls-1" d="M41.85,27a2.92,2.92,0,0,1-.56.44,8.06,8.06,0,0,1-.78.45l-.78.3a4.55,4.55,0,0,1-.73.16l-.8.12a6.07,6.07,0,0,1-1.45.89l-1,.45a8.33,8.33,0,0,0-1.28.71,9.36,9.36,0,0,0-1.93,1.83q-.14.18-1.32,2L29.61,37a10.51,10.51,0,0,1-1.86,2,14.7,14.7,0,0,1-1.36,1,4.77,4.77,0,0,1-1.79.72c-.38.11-1.08.12-1.13,0s.65-.27,1.81-1.13a21.54,21.54,0,0,0,2.15-1.84,14.77,14.77,0,0,0,1.9-2.5q.75-1.25,1-1.69.76-1.34,1.42-2.31a15.67,15.67,0,0,1,1.29-1.66,8.76,8.76,0,0,1,.81-.81,7,7,0,0,1,1.06-.77L36,27.38l.44-1.09a14.54,14.54,0,0,1,.76-1.63,10.46,10.46,0,0,1,.7-1.05,2.43,2.43,0,0,1,.68-.71,1.56,1.56,0,0,1,.87-.32,1.2,1.2,0,0,1,.89.43,1.61,1.61,0,0,1,.44,1.12,8.69,8.69,0,0,1-.05.93,8,8,0,0,1-.13.9l.29,0,.53-.17a1.45,1.45,0,0,0,.43-.21,1.1,1.1,0,0,1,.2.28.82.82,0,0,1,.06.47l-.14.4Zm-1.93-1.65A.59.59,0,0,0,39.7,25a1.41,1.41,0,0,0-1-.45,1.17,1.17,0,0,0-.83.39,1,1,0,0,0-.36.64.66.66,0,0,0,.41.55,1.53,1.53,0,0,0,.79.22,1.51,1.51,0,0,0,.91-.27A.84.84,0,0,0,39.92,25.37Z"/><path class="cls-1" d="M28.78,29.58A9.42,9.42,0,0,1,28.6,31q-.18,1-.36,1.76l-.43,1.76q-.36,1-.57,1.47a11.11,11.11,0,0,1-.59,1.11,2.67,2.67,0,0,1-.56.66,6.3,6.3,0,0,1-1,.59l-1.29.54a6.81,6.81,0,0,1-.84.22,5.54,5.54,0,0,1-.84.14c-.12,0-.19,0-.22-.13a.39.39,0,0,1,.07-.3,3.73,3.73,0,0,1,.91-.9l1.45-1.11q.82-.75,1.22-1.18a8.1,8.1,0,0,0,1.08-1.47,4.88,4.88,0,0,0,.3-.74l.63-1.81L28,30.33q.07-.29.21-.7c.1-.27.22-.41.36-.41A.8.8,0,0,1,28.78,29.58Z"/><path class="cls-1" d="M25.06,24.94a5.24,5.24,0,0,1,.32-.54,1,1,0,0,1,.18-.22.62.62,0,0,1,.11.29l-.18,1.22-.21,2-.39,3.19a13.18,13.18,0,0,1-.34,1.78A14,14,0,0,1,24,34.16l-.82,1.72a13.64,13.64,0,0,1-.77,1.24q-.23.31-.41.31l-.11-.25q.29-1,.54-1.88t.36-1.42q.36-1.65.5-2.92t.25-2.28L24,27.56Z"/><path class="cls-1" d="M18,30.64a1.65,1.65,0,0,0,.41-.41,3.6,3.6,0,0,0,.41-.7,5.92,5.92,0,0,0,.36-2.3l0-2.4q0-.82,0-1.45a2.83,2.83,0,0,1,.18-1l1.29-3.19.18-.07a.75.75,0,0,1,0,.29q0,.25,0,1.26t-.13,2.17q0,1.06,0,2a14.5,14.5,0,0,1-.27,2.31,12.2,12.2,0,0,1-.63,2.4,5.76,5.76,0,0,1-.9,1.52q-.14.18-.9,1Z"/><path class="cls-1" d="M22.2,15.62a36.28,36.28,0,0,1,3.21-3.11q2.2-1.95,4.39-3.93,1.58-1.45,3-2.92,1-1.06,2.69-2.87Q38,.07,38,0A.71.71,0,0,1,38,.33a6.06,6.06,0,0,1-.6,1.54,13.06,13.06,0,0,1-.89,1.55Q36,4.2,35.34,5t-1,1.18q-.51.57-1.74,1.78-.92.91-2.77,2.66-1.3,1.22-2.33,2.1Q26.13,13.87,24.75,15l-2.37,2.06-1,.86q-.46.4-.54.3a9.94,9.94,0,0,1,.57-1.47A5,5,0,0,1,22.2,15.62Z"/><path class="cls-1" d="M18,32.14a3.74,3.74,0,0,1-.57.47l-.57.36-1.11.54a1.35,1.35,0,0,1-.34.14l-.5.16-.38.13-.65.32-.36.11q-.32.11-.61.23L12,35l-.21.14a2.26,2.26,0,0,1-.47.22l-.21-2a.91.91,0,0,1,.39-.13l.43,0a1.9,1.9,0,0,0,.79-.16,1.92,1.92,0,0,0,.57-.38,1.12,1.12,0,0,0,.25-.27c.1-.13.17-.2.22-.2l.22.14a.44.44,0,0,0,.25.07,1.1,1.1,0,0,0,1-.57q.25-.43.32-.43l.18.11.18.11a.7.7,0,0,0,.45-.11,1.37,1.37,0,0,0,.48-.47l.18-.25a2.41,2.41,0,0,0,.14-.25.53.53,0,0,1,.2,0,1.14,1.14,0,0,1,.23.14,2.16,2.16,0,0,0,.47-.14,3.1,3.1,0,0,1,.13.39,1.51,1.51,0,0,1,.05.29,2.32,2.32,0,0,1,0,.41A1.11,1.11,0,0,1,18,32.14Z"/><path class="cls-1" d="M11.47,36.15q-.11.29-.2.48a6.28,6.28,0,0,1-.36.63q-.27.43-.59.9a4.09,4.09,0,0,1-.93,1.13,5.13,5.13,0,0,1-.93.41l-1.25.43-1.94.5-.48.07c-.18,0-.28,0-.3,0s.09-.15.34-.3l.47-.29,1.34-.81A15,15,0,0,0,8,38.38a13.29,13.29,0,0,0,1.72-1.43,1.89,1.89,0,0,0,.65-1.15,1.84,1.84,0,0,1-.41.11,3.69,3.69,0,0,1-.56,0,2.78,2.78,0,0,1-1-.36,1.07,1.07,0,0,1-.57-.93,7.65,7.65,0,0,1,.79-2.12,3.64,3.64,0,0,1,.61-1q.54-.68,1-.68a1.66,1.66,0,0,1,1.22.5,2,2,0,0,1,.65,1.4,6.28,6.28,0,0,1,0,.79q0,.39,0,.74a3.12,3.12,0,0,1-.11.66q-.09.32-.18.59A5,5,0,0,1,11.47,36.15Z"/><path class="cls-1" d="M6.86,31.17a9.44,9.44,0,0,1-.18,1.43q-.18,1-.36,1.76l-.43,1.76q-.36,1-.57,1.47a11.25,11.25,0,0,1-.59,1.11,2.67,2.67,0,0,1-.56.66,6.3,6.3,0,0,1-1,.59l-1.29.54a6.82,6.82,0,0,1-.84.22,5.54,5.54,0,0,1-.84.14c-.12,0-.19,0-.22-.13a.39.39,0,0,1,.07-.3,3.73,3.73,0,0,1,.91-.9l1.45-1.11q.82-.75,1.22-1.18a8.09,8.09,0,0,0,1.08-1.47A4.85,4.85,0,0,0,5,35l.63-1.81.43-1.29q.07-.29.22-.7c.09-.27.21-.41.36-.41A.8.8,0,0,1,6.86,31.17Z"/><path class="cls-1" d="M93.74,23.11a5.48,5.48,0,0,1,.32-.56,1,1,0,0,1,.18-.23.64.64,0,0,1,.12.29l-.16,1.26L94,26l-.33,3.31a13.68,13.68,0,0,1-.31,1.84,14.5,14.5,0,0,1-.5,1.55l-.81,1.8a14.13,14.13,0,0,1-.76,1.3q-.23.32-.42.32l-.12-.26q.27-1,.51-2t.34-1.47q.33-1.71.45-3T92.27,27l.38-1.16Z"/><path class="cls-1" d="M81.27,30.58a6.58,6.58,0,0,0,.13.92,4.68,4.68,0,0,0,.19.73,1.57,1.57,0,0,0,.9.95,3.22,3.22,0,0,0,1.41.21l1-1.58a4.43,4.43,0,0,0,.46-1.59q0-.45.19-3.65,0-1,.16-2a8.18,8.18,0,0,1,.46-1.9L86.77,21q.29-.69.42-1l.16.21q-.14,1.38-.17,2.05-.1,1.42-.19,2.81a21,21,0,0,1-.4,2.94q-.11.6-.32,1.45L86,30.63a16.17,16.17,0,0,1,1-1.32,3.29,3.29,0,0,1,2.09-1.42,1.78,1.78,0,0,1,1.11.31,1.22,1.22,0,0,1,.56,1q.1,1.74-1.76,4.52-2.27,3.36-5.25,3.54a3.28,3.28,0,0,1-2.94-1.13,4.44,4.44,0,0,1-.89-2.58A15.52,15.52,0,0,1,80.4,32Zm8.21.37q0-.22-.47-.47a1.71,1.71,0,0,0-.94-.22q-.85,0-2,1.49-.62.78-1.34,1.75.4,0,1-.1a5.58,5.58,0,0,0,1.5-.48,5.71,5.71,0,0,0,1.58-1Q89.5,31.28,89.48,30.95Z"/><path class="cls-1" d="M81.39,28.81q0,.7,0,1.72t0,1.43A13,13,0,0,1,81.09,34a17.73,17.73,0,0,1-.39,1.85q-.17.56-.39,1.15a9.87,9.87,0,0,1-.7,1.52,7.4,7.4,0,0,1-1.18,1.56,2.53,2.53,0,0,1-1.73.74,1.78,1.78,0,0,1-.9-.22,2.91,2.91,0,0,1-.72-.59l-.37-.3a.64.64,0,0,1-.26-.48.79.79,0,0,1,.17-.43L75,38.3a4.19,4.19,0,0,0,.28-.44,3.43,3.43,0,0,0,.29-.78,6.9,6.9,0,0,0,.18-1.26q.06-.78.06-1.33V33.35q0-.57,0-1.2a15.43,15.43,0,0,1,.48-3.63q.33-1.33,1.1-3.59a.43.43,0,0,1,.09-.17l.09-.09q.11,0,.11.67,0,.33,0,1.07t0,.93L77.34,32A14.29,14.29,0,0,1,77.19,34,14,14,0,0,1,76.75,36a9.77,9.77,0,0,1-1.14,2.56s.12.07.29.07h.44a2.84,2.84,0,0,0,1.93-.87,4.62,4.62,0,0,0,1.31-2.09,6.5,6.5,0,0,0,.18-1.13q.07-.76.07-1.32,0-.89,0-1.46t-.07-1.09q0-1.11,0-2.26a11.77,11.77,0,0,1,.4-2.67,13.89,13.89,0,0,1,1.38-3.3q.15-.19.22-.15s0,.22,0,.59-.06.68-.11,1a22.67,22.67,0,0,0-.18,2.26Z"/><path class="cls-1" d="M68.6,40.86A2.61,2.61,0,0,1,66.2,39.6a5.1,5.1,0,0,1-.63-2.67L67.12,34a5.34,5.34,0,0,0,.33,2.11,1.37,1.37,0,0,0,.77.7,2.25,2.25,0,0,0,1.14.15q.26-.67.48-1.3l.63-1.45a6.54,6.54,0,0,1,1-1.59,2.51,2.51,0,0,1,1.88-.93,1.79,1.79,0,0,1,.81.17.85.85,0,0,1,.44.57.72.72,0,0,1-.2.61.65.65,0,0,1-.39.24l-.44-.11a2.81,2.81,0,0,0-.74-.11,1.76,1.76,0,0,0-1.36.69,2,2,0,0,0-.59,1.2,1.26,1.26,0,0,0,.39.83,1.35,1.35,0,0,0,1,.43q.81,0,1.69-1.26.18-.3.53-.91t.57-.54q.18.07,0,.67a13.67,13.67,0,0,1-.68,1.56,17,17,0,0,1-1.47,2.45Q71,40.86,68.6,40.86Z"/><path class="cls-1" d="M67.14,34q-.3,1-.59,1.89t-1,1q0-.44.41-3.87t.66-5.24.59-1.52q.55-1.37.88-2.08l.15-.07a1.85,1.85,0,0,1,0,.59l-.15,1-.63,4.52q-.18,1.37-.26,2.37T67.14,34Z"/><path class="cls-1" d="M70.07,19a12.27,12.27,0,0,0,2.17.31q1.07.06,2.36.06,1.55,0,3.46-.15a26.11,26.11,0,0,0,3.66-.54,18.78,18.78,0,0,0,3.17-1,7.62,7.62,0,0,0,2.19-1.3,4,4,0,0,0,.55-.59s.13-.19.31-.48.31-.44.39-.44a1.13,1.13,0,0,1,.11.41A6.3,6.3,0,0,1,88,16.89a10.61,10.61,0,0,1-1,2,5.07,5.07,0,0,1-1.25,1.26,15.06,15.06,0,0,1-2.36,1.3,19.76,19.76,0,0,1-2.5.85,29.9,29.9,0,0,1-4.12.8,33.3,33.3,0,0,1-3.94.24,23.28,23.28,0,0,1-3.39-.19A4.68,4.68,0,0,1,66.65,22a2.33,2.33,0,0,1-.74-1.82A9,9,0,0,1,66,18.91q.13-.83.29-1.67a9.8,9.8,0,0,1,.26-1.09c.06-.17.15-.26.28-.26s.2.11.22.31.06.54.09,1,.39.87,1,1.24A11.49,11.49,0,0,0,70.07,19Z"/><path class="cls-1" d="M27.63,19.19a12.27,12.27,0,0,0,2.17.3q1.07,0,2.36,0,1.55,0,3.46-.17a26.11,26.11,0,0,0,3.66-.56,18.78,18.78,0,0,0,3.16-1,7.62,7.62,0,0,0,2.18-1.31,4,4,0,0,0,.55-.6s.13-.19.31-.48.31-.45.38-.45a1.13,1.13,0,0,1,.11.41,6.3,6.3,0,0,1-.47,1.56,10.61,10.61,0,0,1-1,2,5.07,5.07,0,0,1-1.24,1.27,15.06,15.06,0,0,1-2.35,1.31,19.76,19.76,0,0,1-2.5.87,29.9,29.9,0,0,1-4.12.82,33.3,33.3,0,0,1-3.94.27A23.28,23.28,0,0,1,27,23.31a4.68,4.68,0,0,1-2.73-1.13,2.33,2.33,0,0,1-.75-1.81,9,9,0,0,1,.12-1.28q.12-.83.28-1.67a9.8,9.8,0,0,1,.25-1.09c.06-.17.15-.26.27-.26s.2.1.22.31.06.54.1,1,.39.87,1.06,1.23A11.49,11.49,0,0,0,27.63,19.19Z"/></g></g></svg>