<?xml version="1.0" encoding="utf-8"?>
<!-- Generator: Adobe Illustrator 21.0.0, SVG Export Plug-In . SVG Version: 6.00 Build 0)  -->
<svg version="1.1" id="Layer_1" xmlns="http://www.w3.org/2000/svg" xmlns:xlink="http://www.w3.org/1999/xlink" x="0px" y="0px"
	 viewBox="0 0 1024 1024" style="enable-background:new 0 0 1024 1024;" xml:space="preserve">
<style type="text/css">
	.st0{fill:#00B8EB;}
</style>
<path class="st0" d="M513,103.7c-226.1,0-409.4,183.3-409.4,409.4S286.9,922.6,513,922.6s409.4-183.3,409.4-409.4
	S739.1,103.7,513,103.7z M666.5,468.4c-5.2,5.3-12.1,7.9-19,7.9s-13.8-2.6-19-7.9L545.1,385c0,0.4,0.1,0.7,0.1,1.1V705
	c0,11.1-5.7,20.9-14.4,26.6c-4.7,4.2-10.9,6.7-17.7,6.7s-13-2.5-17.7-6.7c-8.7-5.7-14.4-15.5-14.4-26.6V386.1c0-0.4,0-0.7,0.1-1.1
	l-83.4,83.4c-10.5,10.5-27.5,10.5-38,0s-10.5-27.5,0-38L494,295.9c10.5-10.5,27.5-10.5,38,0l134.5,134.5
	C677,440.8,677,457.9,666.5,468.4L666.5,468.4z"/>
</svg>
