<svg xmlns="http://www.w3.org/2000/svg" viewBox="0 0 107.48 105.5"><defs><style>.cls-1{fill:#292b73;}.cls-2{fill:#179c48;}.cls-3{fill:#ed9822;}</style></defs><title>Asset 1</title><g id="Layer_2" data-name="Layer 2"><g id="Layer_1-2" data-name="Layer 1"><path class="cls-1" d="M36.25,67.48l-5.69,5.69,2.9,2.9,5.69-5.69a13.43,13.43,0,0,1,12.13-3.53,14.45,14.45,0,0,0,13.11-4.1A14.5,14.5,0,0,0,43.76,42.37a14.46,14.46,0,0,0-3.92,13.27A13,13,0,0,1,36.25,67.48Z"/><path class="cls-2" d="M37.57,18h8.05v-4.1h-8A13.43,13.43,0,0,1,26.5,7.84,14.45,14.45,0,0,0,14.32,1.47a14.5,14.5,0,0,0,.18,29,14.46,14.46,0,0,0,12.15-6.61A13,13,0,0,1,37.57,18Z"/><path class="cls-2" d="M34.3,13.92l-8.05,2V16l8,2a13.43,13.43,0,0,1,11.07,6.07,14.45,14.45,0,0,0,12.17,6.37,14.5,14.5,0,0,0-.18-29A14.46,14.46,0,0,0,45.22,8.08,13,13,0,0,1,34.3,13.92Z"/><path class="cls-1" d="M33.35,76.14,39,70.45l-2.9-2.9-5.69,5.69a13.43,13.43,0,0,1-12.13,3.53,14.45,14.45,0,0,0-13.11,4.1,14.62,14.62,0,0,0-.36,19.88A14.49,14.49,0,0,0,29.76,88,13,13,0,0,1,33.35,76.14Z"/><path class="cls-1" d="M68.52,70.43l5.69,5.69,2.9-2.9-5.69-5.69a13.43,13.43,0,0,1-3.53-12.13,14.45,14.45,0,0,0-4.1-13.11A14.5,14.5,0,0,0,43.4,62.92a14.46,14.46,0,0,0,13.27,3.92A13,13,0,0,1,68.52,70.43Z"/><path class="cls-1" d="M76.84,73.07l-5.69-5.69-2.9,2.9L73.94,76A13.43,13.43,0,0,1,77.47,88.1a14.45,14.45,0,0,0,4.1,13.11A14.5,14.5,0,0,0,102,80.58a14.46,14.46,0,0,0-13.27-3.92A13,13,0,0,1,76.84,73.07Z"/><path class="cls-1" d="M71.4,37.73,77.09,32l-2.9-2.9L68.5,34.83a13.43,13.43,0,0,1-12.13,3.53,14.45,14.45,0,0,0-13.11,4.1A14.5,14.5,0,0,0,63.89,62.85a14.46,14.46,0,0,0,3.92-13.27A13,13,0,0,1,71.4,37.73Z"/><path class="cls-1" d="M73.94,29.36l-5.69,5.69,2.9,2.9,5.69-5.69A13.43,13.43,0,0,1,89,28.73a14.45,14.45,0,0,0,13.11-4.1A14.5,14.5,0,0,0,81.45,4.25a14.46,14.46,0,0,0-3.92,13.27A13,13,0,0,1,73.94,29.36Z"/><circle class="cls-2" cx="53.73" cy="90.79" r="14.55"/><circle class="cls-2" cx="92.93" cy="52.67" r="14.55"/><circle class="cls-3" cx="16.06" cy="52.67" r="14.55"/></g></g></svg>