<svg xmlns="http://www.w3.org/2000/svg" viewBox="0 0 132.17 60.05"><defs><style>.cls-1{fill:#004570;}</style></defs><title>AppName_1</title><g id="Layer_2" data-name="Layer 2"><g id="Layer_13" data-name="Layer 13"><path class="cls-1" d="M128.27,44.84a14.89,14.89,0,0,1-.83,5,30.73,30.73,0,0,1-2.26,4.89,7.06,7.06,0,0,1-1.35,1.82,7.17,7.17,0,0,1-1.66,1.14,39.25,39.25,0,0,1-3.72,1.62l-2.06.71q-.56.16-.71-.08a.52.52,0,0,1,0-.55,22.36,22.36,0,0,1,1.66-1.66l2.54-2.13a24.67,24.67,0,0,0,2.46-2.29q1.58-1.66,1.58-2.29a4.18,4.18,0,0,0-.63-2.05,14,14,0,0,0-1-1.42,9,9,0,0,0-1.78-1.82q-1-.71-1-.95l1.35-3.16,1.74-3.87a2.32,2.32,0,0,1,.63-.79.22.22,0,0,1,.08-.16q1,.95,1.58,1.42a10.76,10.76,0,0,1,2.3,2.6A8,8,0,0,1,128.27,44.84Z"/><path class="cls-1" d="M56.9,36.78l2.54.08A90.8,90.8,0,0,0,81,34.25,90.84,90.84,0,0,0,95.4,29.44a138.58,138.58,0,0,0,14-6.94q2.54-1.42,8-5.13a83,83,0,0,1,7.88-4.89,29,29,0,0,1,5.86-2.05q1-.24,1,.39a3.46,3.46,0,0,1-.36,1,17,17,0,0,1-2,2.84q-.56.63-1.58,1.89-1.11.4-2.22.71a22.1,22.1,0,0,0-4.67,2.53q-1.74,1.18-7.61,5.05-5,3.24-6.81,4.34-6.74,4.18-12.28,6.94-4.12,2.05-6.5,3A85.4,85.4,0,0,1,75.2,43.09a85.47,85.47,0,0,1-18.3,2Z"/><path class="cls-1" d="M56.92,45q-4.68,0-9.23-.36a32.16,32.16,0,0,1-7.8-1.46A6.28,6.28,0,0,1,37.75,42a9.12,9.12,0,0,1-.79-.71A9.16,9.16,0,0,0,35.37,43a25.5,25.5,0,0,1-2.22,2.25,17.66,17.66,0,0,1-2.46,1.85l-.47.24a2,2,0,0,1-.32-.55,5,5,0,0,1-.4-1.26,3.41,3.41,0,0,1,.87-2.05l.48-.47a6.93,6.93,0,0,0,3.64-2.45,15.8,15.8,0,0,0,1.39-2q.67-1.14,1.35-2.25a6.3,6.3,0,0,1,1.15-1.5,2.84,2.84,0,0,1,1.82-.63,25.59,25.59,0,0,1,3,.79q2,.55,3.57.87a53.44,53.44,0,0,0,10.14.95q.4.87.55,1.34A8.7,8.7,0,0,1,58,40.93a8.21,8.21,0,0,1-.55,2.84A10.46,10.46,0,0,1,56.92,45Z"/><path class="cls-1" d="M46.28,5a3.44,3.44,0,0,1-.12,1.7,12.5,12.5,0,0,1-.87,2.05,7.61,7.61,0,0,1-1.62,2.09,1.74,1.74,0,0,1-1,.63q-.24,0-1.07-.71T40.06,9.51a11.39,11.39,0,0,1-1.15-1,1.29,1.29,0,0,1-.48-.79q.48-1,.71-1.58.79-1.74,1.19-2.53.71-1.18,1.43-2.45l.47-.71a3.13,3.13,0,0,0,.48.39l.63.4a15.18,15.18,0,0,1,2.22,2.05A3.64,3.64,0,0,1,46.28,5Zm8.16-.47a3.44,3.44,0,0,1-.12,1.7,12.4,12.4,0,0,1-.87,2.05,7.61,7.61,0,0,1-1.62,2.09,1.74,1.74,0,0,1-1,.63q-.24,0-1.07-.71T48.22,9a11.35,11.35,0,0,1-1.15-1,1.29,1.29,0,0,1-.48-.79q.48-1,.71-1.58.79-1.73,1.19-2.52Q49.21,2,49.93.71L50.4,0a3.13,3.13,0,0,0,.47.39l.63.39a15.18,15.18,0,0,1,2.22,2.05A3.63,3.63,0,0,1,54.44,4.5Z"/><path class="cls-1" d="M30.56,49.31c-.16.42-.3.78-.44,1.07a14,14,0,0,1-.79,1.38q-.59.95-1.31,2A9,9,0,0,1,26,56.22a11.41,11.41,0,0,1-2.06.91q-.63.24-2.77.95l-4.28,1.1-1.07.16c-.4.05-.62,0-.67-.08s.2-.33.75-.67l1-.63,3-1.78a33.23,33.23,0,0,0,3-2,29.4,29.4,0,0,0,3.8-3.16,4.15,4.15,0,0,0,1.43-2.53,4.13,4.13,0,0,1-.91.24,8.23,8.23,0,0,1-1.23.08,6.16,6.16,0,0,1-2.3-.79A2.35,2.35,0,0,1,22.4,46q0-.95,1.74-4.66a8,8,0,0,1,1.35-2.21q1.19-1.5,2.14-1.5a3.68,3.68,0,0,1,2.69,1.1,4.48,4.48,0,0,1,1.43,3.08,13.76,13.76,0,0,1,.08,1.74q0,.87,0,1.62a6.81,6.81,0,0,1-.24,1.46c-.13.47-.26.91-.4,1.3A10.94,10.94,0,0,1,30.56,49.31Z"/><path class="cls-1" d="M15.15,38a20.65,20.65,0,0,1-.4,3.16q-.4,2.21-.79,3.87l-1,3.87q-.79,2.21-1.27,3.24a24.45,24.45,0,0,1-1.31,2.45,5.87,5.87,0,0,1-1.23,1.46,14,14,0,0,1-2.14,1.3L4.22,58.55A15.21,15.21,0,0,1,2.36,59a12.33,12.33,0,0,1-1.86.32c-.27,0-.42-.09-.48-.28a.86.86,0,0,1,.16-.67,8.24,8.24,0,0,1,2-2Q3.82,55.16,5.41,54q1.82-1.66,2.69-2.6a17.78,17.78,0,0,0,2.38-3.24,10.71,10.71,0,0,0,.67-1.62q.43-1.22,1.39-4l1-2.84q.16-.63.48-1.54t.79-.91A1.75,1.75,0,0,1,15.15,38Z"/></g></g></svg>