<svg xmlns="http://www.w3.org/2000/svg" viewBox="0 0 225.44 55.61"><defs><style>.cls-1{fill:#004570;}</style></defs><title>DatabaseName_1</title><g id="Layer_2" data-name="Layer 2"><g id="Layer_1-2" data-name="Layer 1"><g id="Layer_13" data-name="Layer 13"><path class="cls-1" d="M220.14,31.49V32A2.45,2.45,0,0,0,221,34.2a2,2,0,0,0,1.15.34q.52,0,.93-1.15l.16-.6c.06-.22.14-.34.24-.34s.19.12.19.37a2.65,2.65,0,0,1-.06.44l-.09.48a11.22,11.22,0,0,1-1.23,3.41q-.72,1.21-1.53,1.21A1.69,1.69,0,0,1,219,37.25a7.41,7.41,0,0,1-.47-2.83Z"/><path class="cls-1" d="M221.76,48.27a2.47,2.47,0,0,1-.09.78,3.59,3.59,0,0,1-.39.72q-.85,1.15-1.38,1.15-.11,0-.43-.32T218.9,50q-.89-.78-.89-.93a3.59,3.59,0,0,1,.44-.93l.48-.82.48-.85q.37-.56.48-.56a.67.67,0,0,1,.28.15,4.16,4.16,0,0,1,.47.41,5.11,5.11,0,0,1,.92,1A1.61,1.61,0,0,1,221.76,48.27ZM223.46,53a2.47,2.47,0,0,1-.09.78,3.59,3.59,0,0,1-.39.72q-.85,1.15-1.38,1.15-.11,0-.43-.32t-.57-.62q-.89-.78-.89-.93a3.59,3.59,0,0,1,.44-.93l.48-.82.48-.85q.37-.56.48-.56a.67.67,0,0,1,.28.15,4.06,4.06,0,0,1,.47.41,5.08,5.08,0,0,1,.91,1,1.6,1.6,0,0,1,.22.77Zm2-4.68a2.47,2.47,0,0,1-.09.78,3.59,3.59,0,0,1-.39.72q-.85,1.15-1.38,1.15-.11,0-.43-.32t-.57-.62q-.87-.79-.87-.94a3.59,3.59,0,0,1,.44-.93l.48-.82.48-.85q.37-.56.48-.56a.67.67,0,0,1,.27.15,4.18,4.18,0,0,1,.47.41,5.11,5.11,0,0,1,.91,1A1.61,1.61,0,0,1,225.43,48.27Z"/><path class="cls-1" d="M220.11,31.49l-.6,1.89q-.41,1-1,1,0-.44.41-3.89t.67-5.26q0-.15.6-1.53t.89-2.08l.15-.07a1.84,1.84,0,0,1,0,.6l-.14.95-.63,4.54q-.19,1.38-.26,2.38T220.11,31.49Z"/><path class="cls-1" d="M209,28.6a7,7,0,0,1,1.25.06,24,24,0,0,1,2.92.62,5.06,5.06,0,0,0,1,.19A1,1,0,0,0,215,29a3.59,3.59,0,0,0,.56-.95,2.49,2.49,0,0,1,.34-.65q.26-.39.37-.35t.19.34a2.19,2.19,0,0,1-.07.52,8.13,8.13,0,0,1-.78,2.08,3.68,3.68,0,0,1-1.43,1.63,1.17,1.17,0,0,1-.72,0,3.54,3.54,0,0,0-.72-.13Z"/><path class="cls-1" d="M213.4,51.63a1.64,1.64,0,0,1-.06.8,5.89,5.89,0,0,1-.41,1,3.59,3.59,0,0,1-.76,1,.82.82,0,0,1-.5.27q-.11,0-.5-.34t-.72-.57a5.36,5.36,0,0,1-.54-.47.61.61,0,0,1-.22-.37l.34-.72q.37-.82.56-1.19.34-.56.67-1.15l.22-.34a1.43,1.43,0,0,0,.22.19l.29.19a7.17,7.17,0,0,1,1,1A1.71,1.71,0,0,1,213.4,51.63Zm3.83-.22a1.63,1.63,0,0,1-.06.8,5.89,5.89,0,0,1-.41,1,3.59,3.59,0,0,1-.79,1,.82.82,0,0,1-.48.29q-.11,0-.5-.34t-.72-.57a5.38,5.38,0,0,1-.54-.47.61.61,0,0,1-.22-.37l.34-.72q.37-.82.56-1.19.34-.56.67-1.15l.22-.34a1.43,1.43,0,0,0,.22.19l.29.19a7.17,7.17,0,0,1,1,1A1.71,1.71,0,0,1,217.22,51.41Z"/><path class="cls-1" d="M212.66,31.49q-.15,0-.37.85a9.83,9.83,0,0,1-.34,1.12,22.17,22.17,0,0,1-1.26,2.94,3.59,3.59,0,0,1-3.12,1.94,2.15,2.15,0,0,1-2-1.26,7.89,7.89,0,0,1-.67-3.59,29.44,29.44,0,0,1,.37-3.35q.37-2.53.65-4.09l.54-3a10.28,10.28,0,0,1,.52-2.07l1.23-2.57c.1-.07.16-.09.19-.06a.62.62,0,0,1,0,.28,2.31,2.31,0,0,1-.06.48,3.87,3.87,0,0,0-.07.5q0,.24-.8,5.33-.44,2.94-.52,3.64A25.48,25.48,0,0,0,210.39,25q4.9-5.65,5.65-6.45,2.42-2.71,3.59-4.13a50.31,50.31,0,0,0,4.09-5.51q.22-.48.34-.48l.07.29q-.26,1-.34,1.23a13.09,13.09,0,0,1-1.34,2.6,23.2,23.2,0,0,1-1.67,2.42q-1.23,1.6-3,3.64l-2,2.23q-1.26,1.43-2.53,2.94L211,26.32l-2,2.31a3.94,3.94,0,0,1,.48.15,6.17,6.17,0,0,1,1.79.91A6.37,6.37,0,0,1,212.38,31Zm-1.26.22q0-.67-.84-1a5.66,5.66,0,0,0-2.15-.35,2.47,2.47,0,0,0-.93.11,1.43,1.43,0,0,0-.72,1.48,2.45,2.45,0,0,0,.6,1.75,1.69,1.69,0,0,0,1.3.52,2.61,2.61,0,0,0,2-.84,2.5,2.5,0,0,0,.72-1.66Z"/><path class="cls-1" d="M220.27,11.82a2.94,2.94,0,0,1-.26.6,21,21,0,0,1-2.45,3q-.82.78-1.6,1.56a6.78,6.78,0,0,1,.37-.87,5.09,5.09,0,0,1,.63-.87q1.34-1.43,2-2.27a21.32,21.32,0,0,0,1.38-1.75Q220.52,11.26,220.27,11.82Z"/><path class="cls-1" d="M204,32.27a6.81,6.81,0,0,1-.26,1.75,8.56,8.56,0,0,1-.67,1.75,7.41,7.41,0,0,1-1.36,1.91,2.19,2.19,0,0,1-1.54.65q-1.37,0-1.37-1.61a4.22,4.22,0,0,1,.19-1.19l.6-1.26.56-1-.28-.09h-.09a1.92,1.92,0,0,1,.22-.78l.63-1.43.67-1.53q.19-.44.41-.44a1.27,1.27,0,0,1,.56.22q.37.22.63.41a3.77,3.77,0,0,1,.84,1.06A3.86,3.86,0,0,1,204,32.27Zm-1.75,2.87a1.1,1.1,0,0,0-.37-.85,2.87,2.87,0,0,0-.52-.39,1.15,1.15,0,0,0-.56-.21q-.15,0-.56.62a2,2,0,0,0-.41,1.06q0,.82,1,.82a1.79,1.79,0,0,0,.95-.32A.88.88,0,0,0,202.2,35.14Z"/><path class="cls-1" d="M133.51,33.14a3.39,3.39,0,0,0,.19-1.08q0-1.53.87-1.84a3.27,3.27,0,0,0,1.43-1,1.64,1.64,0,0,0,.44-1.08,1.08,1.08,0,0,0-.16-.6,1.15,1.15,0,0,0-.35-.37l-.47.07a3.59,3.59,0,0,1-.54,0,1.35,1.35,0,0,1-1-.44,1,1,0,0,1-.34-.82,11.24,11.24,0,0,1,.78-2.08,4.18,4.18,0,0,1,.65-1.19,1.12,1.12,0,0,1,.87-.48,2.05,2.05,0,0,1,1.53.78,3.83,3.83,0,0,1,.89,2.64,8.36,8.36,0,0,1-1.3,3.91,12.69,12.69,0,0,1-2.19,2.94,5.63,5.63,0,0,1-.85.63,1.2,1.2,0,0,1-.48.19A.56.56,0,0,0,133.51,33.14Z"/><path class="cls-1" d="M136.24,12.71a1.63,1.63,0,0,1-.06.8,5.89,5.89,0,0,1-.41,1,3.59,3.59,0,0,1-.76,1,.82.82,0,0,1-.48.29q-.11,0-.5-.34t-.72-.57a5.36,5.36,0,0,1-.54-.47.61.61,0,0,1-.22-.37l.34-.72q.37-.82.56-1.19.34-.56.67-1.15l.22-.34a1.43,1.43,0,0,0,.22.19l.29.19a7.17,7.17,0,0,1,1,1A1.71,1.71,0,0,1,136.24,12.71Zm3.83-.22a1.63,1.63,0,0,1-.06.8,5.89,5.89,0,0,1-.41,1,3.59,3.59,0,0,1-.77,1,.82.82,0,0,1-.48.29q-.11,0-.5-.34t-.72-.57a5.38,5.38,0,0,1-.54-.47.61.61,0,0,1-.22-.35l.34-.72q.37-.82.56-1.19.34-.56.67-1.15l.22-.34a1.43,1.43,0,0,0,.22.19l.29.19a7.17,7.17,0,0,1,1,1A1.71,1.71,0,0,1,140.07,12.48Z"/><path class="cls-1" d="M134.42,33.61q-.11.3-.21.5a6.52,6.52,0,0,1-.37.65q-.28.44-.62.93a4.24,4.24,0,0,1-1,1.17,5.32,5.32,0,0,1-1,.43l-1.3.44-2,.52-.5.07c-.19,0-.29,0-.32,0s.09-.16.35-.32l.48-.29,1.39-.84a15.55,15.55,0,0,0,1.43-.93,13.78,13.78,0,0,0,1.79-1.48,2,2,0,0,0,.67-1.19,1.91,1.91,0,0,1-.43.11,3.83,3.83,0,0,1-.57,0A2.87,2.87,0,0,1,131.2,33a1.1,1.1,0,0,1-.6-1,7.93,7.93,0,0,1,.82-2.19,3.78,3.78,0,0,1,.65-1q.56-.72,1-.72a1.72,1.72,0,0,1,1.26.52,2.15,2.15,0,0,1,.67,1.43,6.51,6.51,0,0,1,0,.82q0,.41,0,.76a3.23,3.23,0,0,1-.11.72q-.09.34-.19.62A5.14,5.14,0,0,1,134.42,33.61Z"/><path class="cls-1" d="M126.57,24.35a5.44,5.44,0,0,1,.34-.56,1,1,0,0,1,.19-.22.64.64,0,0,1,.11.29l-.16,1.27-.22,2.08-.41,3.31a13.66,13.66,0,0,1-.35,1.84,14.46,14.46,0,0,1-.54,1.54l-.85,1.79a14.14,14.14,0,0,1-.8,1.28q-.24.32-.43.32l-.11-.26q.29-1,.56-2t.37-1.43a30.56,30.56,0,0,0,.52-3q.15-1.33.26-2.36l.41-1.15Z"/><path class="cls-1" d="M117.14,29.36a2.43,2.43,0,0,0,.76-.67,7,7,0,0,0,.78-1.29l.57-1.15q.34-.67.56-.67t.26.37l-.07.52a1.59,1.59,0,0,0,.34,1,1,1,0,0,0,.72.41.57.57,0,0,0,.56-.29,2.87,2.87,0,0,0,.21-.5c0-.14.11-.19.24-.16s.09,0,.11.09a2.09,2.09,0,0,1,.07.24,6,6,0,0,1-.72,2.53q-.85,1.71-1.82,1.71a1.38,1.38,0,0,1-.72-.19,1.43,1.43,0,0,1-.47-.44,3.75,3.75,0,0,1-.26-.47c-.06-.14-.11-.21-.16-.21a1.14,1.14,0,0,0-.5.43c-.21.29-.37.49-.47.62Z"/><path class="cls-1" d="M124.54,17.29a1.63,1.63,0,0,1-.06.8,5.89,5.89,0,0,1-.41,1,3.59,3.59,0,0,1-.76,1,.82.82,0,0,1-.48.29q-.11,0-.5-.34t-.72-.57a5.36,5.36,0,0,1-.54-.47.61.61,0,0,1-.22-.37l.34-.72q.37-.82.56-1.19.34-.56.67-1.15l.22-.34a1.43,1.43,0,0,0,.22.19l.29.19a7.17,7.17,0,0,1,1,1A1.71,1.71,0,0,1,124.54,17.29Z"/><path class="cls-1" d="M117.14,31.3a3.32,3.32,0,0,1-.65.52,2,2,0,0,1-.8.24q-.48.06-.6.28a4.24,4.24,0,0,0-.22,1q-.11.82-.22,1.43t-.22,1.1L114.15,37a27.74,27.74,0,0,1-1,2.75,14.54,14.54,0,0,1-3.46,5A8,8,0,0,1,104.19,47a4.37,4.37,0,0,1-3.66-1.56,5.84,5.84,0,0,1-1-3.64A12.82,12.82,0,0,1,99.89,39a14.2,14.2,0,0,1,.56-2l1-2.38.72-1.43q.37-.72.67-.72A1.43,1.43,0,0,1,103,33a5.94,5.94,0,0,1-.37,1L102,35.47a16.07,16.07,0,0,0-.72,1.94,7.76,7.76,0,0,0-.34,2.15A3.26,3.26,0,0,0,102,42.14a4.57,4.57,0,0,0,3.1,1,8,8,0,0,0,4-1,8.25,8.25,0,0,0,2.9-2.81,10.59,10.59,0,0,0,1.32-2.87,11.47,11.47,0,0,0,.39-3.1l0-2.23A1.67,1.67,0,0,1,114.2,30a1.15,1.15,0,0,1,1.1-.39h.63a2.64,2.64,0,0,0,1.23-.22,2.8,2.8,0,0,1,.21.43,1.43,1.43,0,0,1,.09.5,2.31,2.31,0,0,1-.19.78A.45.45,0,0,1,117.14,31.3Zm-7.3,3.5a3,3,0,0,1-.72,1.76,1.93,1.93,0,0,1-1.39.95,3.69,3.69,0,0,1-.34-.37q-.34-.38-.72-.72l-.57-.52c-.19-.17-.28-.29-.28-.37A2,2,0,0,1,106,35l.72-1.19a9.57,9.57,0,0,1,.93-1.36,1.74,1.74,0,0,1,.15-.22q.67.48,1,.78A2.62,2.62,0,0,1,109.84,34.8Z"/><path class="cls-1" d="M115.67,49.4a1.63,1.63,0,0,1-.09.8,5.89,5.89,0,0,1-.41,1,3.59,3.59,0,0,1-.76,1,.82.82,0,0,1-.48.29q-.11,0-.5-.34t-.72-.57a5.36,5.36,0,0,1-.54-.47.61.61,0,0,1-.22-.37l.34-.72q.37-.82.56-1.19.34-.56.67-1.15l.22-.34a1.43,1.43,0,0,0,.22.19l.29.19a7.17,7.17,0,0,1,1,1A1.71,1.71,0,0,1,115.67,49.4Zm3.83-.22a1.63,1.63,0,0,1-.06.8,5.89,5.89,0,0,1-.41,1,3.59,3.59,0,0,1-.76,1,.82.82,0,0,1-.48.29q-.11,0-.5-.34t-.72-.57a5.38,5.38,0,0,1-.54-.47.61.61,0,0,1-.22-.37l.34-.72q.37-.82.56-1.19.34-.56.67-1.15l.22-.34a1.43,1.43,0,0,0,.22.19l.29.19a7.17,7.17,0,0,1,1.05,1,1.71,1.71,0,0,1,.33.78Z"/><path class="cls-1" d="M98.64,33.24l-.52,1.38a8.1,8.1,0,0,1-.8,1.39,3.69,3.69,0,0,1-.76.85,5.56,5.56,0,0,1-1.11.5l-.78.29-1.19.41a4.92,4.92,0,0,1-1.19.26l-.15-.07q0-.26,1.34-1.12l1.43-1q.37-.26.82-.63a9.32,9.32,0,0,0,.95-.93,3.13,3.13,0,0,0,.72-1.15,1,1,0,0,1,0-.22l-1,.07a1.55,1.55,0,0,1-1.12-.43,1.06,1.06,0,0,1-.37-.95,3.33,3.33,0,0,1,.19-.72q.15-.41.67-1.48a8.52,8.52,0,0,1,.67-1.19q.48-.67.93-.67a1.69,1.69,0,0,1,1.3.63,2.22,2.22,0,0,1,.56,1.53,5.43,5.43,0,0,1-.07.89l-.12.8q-.06.34-.16.8A4.67,4.67,0,0,1,98.64,33.24Z"/><path class="cls-1" d="M92.86,24.8a4.24,4.24,0,0,0,.85-.89q.15-.19.6-.89.22-.41.37-.63a6.23,6.23,0,0,1,.72-1.12,5.56,5.56,0,0,1,.54-.54l.5-.43q.19-.22.56-.78l.34-.56A9.43,9.43,0,0,1,98.27,20a2.41,2.41,0,0,1,.56,1.23,2.52,2.52,0,0,1-.52,1.53,1.51,1.51,0,0,1-1.23.72,3.23,3.23,0,0,1-.52-.09,3.18,3.18,0,0,0-.67-.09,1.52,1.52,0,0,0-1.12.67A12.56,12.56,0,0,0,94,25l-1.15,1.31Z"/><path class="cls-1" d="M92.86,26.35a3,3,0,0,1-.6.44,8.36,8.36,0,0,1-.82.44l-.82.29a4.73,4.73,0,0,1-.76.15l-.84.11a6.3,6.3,0,0,1-1.53.89l-1.08.44a8.6,8.6,0,0,0-1.34.72,9.71,9.71,0,0,0-2,1.86q-.15.19-1.43,2l-1.67,2.72a12.36,12.36,0,0,1-3.46,3,13.3,13.3,0,0,1-2.15,1.15q-.56.29-.63.07t1.72-1.6a22.34,22.34,0,0,0,2.27-1.86,15.31,15.31,0,0,0,2-2.55q.8-1.28,1.06-1.73.82-1.38,1.53-2.36a16.25,16.25,0,0,1,1.38-1.69,9.09,9.09,0,0,1,.85-.82,7.17,7.17,0,0,1,1.12-.78l1.12-.67.48-1.12a15.06,15.06,0,0,1,.8-1.68,10.85,10.85,0,0,1,.72-1.08A2.52,2.52,0,0,1,89.5,22a1.62,1.62,0,0,1,.91-.32,1.24,1.24,0,0,1,.91.47,1.66,1.66,0,0,1,.43,1.17,9,9,0,0,1-.07,1,8.27,8.27,0,0,1-.15.93l.29,0,.56-.16a1.51,1.51,0,0,0,.44-.21,1.14,1.14,0,0,1,.21.29.85.85,0,0,1,.06.48l-.15.41Zm-2-1.75a.61.61,0,0,0-.22-.37,1.43,1.43,0,0,0-1-.48,1.2,1.2,0,0,0-.87.39,1.07,1.07,0,0,0-.39.65.72.72,0,0,0,.41.57,1.59,1.59,0,0,0,.82.24,1.56,1.56,0,0,0,.95-.26.87.87,0,0,0,.36-.75Z"/><path class="cls-1" d="M88.74,11.06a1.63,1.63,0,0,1-.06.8,5.89,5.89,0,0,1-.41,1,3.59,3.59,0,0,1-.76.95.82.82,0,0,1-.48.29q-.11,0-.5-.34t-.72-.57a5.36,5.36,0,0,1-.54-.47.61.61,0,0,1-.22-.37l.34-.72q.37-.82.56-1.19.34-.56.67-1.15l.22-.34a1.43,1.43,0,0,0,.22.19l.29.19a7.17,7.17,0,0,1,1,1A1.71,1.71,0,0,1,88.74,11.06Zm3.83-.22a1.63,1.63,0,0,1-.06.8,5.89,5.89,0,0,1-.41,1,3.59,3.59,0,0,1-.76,1,.82.82,0,0,1-.48.29q-.11,0-.5-.34T89.64,13a5.38,5.38,0,0,1-.54-.47.61.61,0,0,1-.22-.37l.34-.72q.37-.82.56-1.19.34-.56.67-1.15l.22-.34a1.43,1.43,0,0,0,.22.19l.29.19a7.17,7.17,0,0,1,1,1,1.71,1.71,0,0,1,.34.76Z"/><path class="cls-1" d="M77,28.29a9.77,9.77,0,0,1-.19,1.48q-.19,1-.37,1.82L76,33.42q-.37,1-.6,1.53a11.52,11.52,0,0,1-.62,1.15,2.77,2.77,0,0,1-.57.72,6.53,6.53,0,0,1-1,.62L71.84,38a7.06,7.06,0,0,1-.87.22,5.74,5.74,0,0,1-.87.15c-.12,0-.2,0-.22-.13a.41.41,0,0,1,.07-.32,3.87,3.87,0,0,1,.95-.93l1.51-1.15q.88-.78,1.3-1.23A8.4,8.4,0,0,0,74.81,33a5.06,5.06,0,0,0,.32-.76l.65-1.88.44-1.34q.07-.29.22-.72c.1-.29.22-.43.37-.43A.82.82,0,0,1,77,28.29Z"/><path class="cls-1" d="M70.87,24.35a5.44,5.44,0,0,1,.34-.56,1,1,0,0,1,.19-.22.64.64,0,0,1,.11.29l-.19,1.26-.2,2.09-.41,3.31a13.66,13.66,0,0,1-.35,1.84,14.46,14.46,0,0,1-.54,1.54L69,35.69a14.14,14.14,0,0,1-.8,1.28q-.24.32-.43.32L67.63,37q.29-1,.56-2t.37-1.43a30.56,30.56,0,0,0,.52-3q.15-1.33.26-2.36l.34-1.19Z"/><path class="cls-1" d="M36.87,38.37a57,57,0,0,1-6.17-.26q-3.59-.41-4.89-1.43a3.59,3.59,0,0,1-1.29-3,9.63,9.63,0,0,1,.07-1.17q.07-.62.22-.62a.57.57,0,0,1,.34.15A9,9,0,0,0,28,33.27a14.2,14.2,0,0,0,1.6.37l1.6.26a34.36,34.36,0,0,0,3.59.39q2,.13,4.89.13l4.17-.11q1.34,0,4.3-.32t5-.72q2.57-.56,4.3-1.08a28.08,28.08,0,0,0,3.12-1.12q1.38-.6,1.6-.72a10.15,10.15,0,0,0,1.86-1.15,8.11,8.11,0,0,0,.67-.6,9.41,9.41,0,0,0,.72-.82q.15-.19.6-.85.26-.41.41-.41c.07,0,.1.08.07.24a4.72,4.72,0,0,1-.15.62,11.32,11.32,0,0,1-.85,2.08,8.65,8.65,0,0,1-1.43,1.86,12.64,12.64,0,0,1-2.83,2.08A30,30,0,0,1,57.94,35a29.76,29.76,0,0,1-4,1.3,74.32,74.32,0,0,1-8.2,1.58A66.82,66.82,0,0,1,36.87,38.37Z"/><path class="cls-1" d="M41.64,24.06a1.63,1.63,0,0,1-.06.8,5.89,5.89,0,0,1-.41,1,3.59,3.59,0,0,1-.76,1,.82.82,0,0,1-.48.29q-.11,0-.5-.34t-.72-.57a5.36,5.36,0,0,1-.54-.47.61.61,0,0,1-.22-.37l.34-.72q.37-.82.56-1.19.34-.56.67-1.15l.22-.34a1.43,1.43,0,0,0,.22.19l.29.19a7.17,7.17,0,0,1,1,1A1.71,1.71,0,0,1,41.64,24.06Zm3.83-.24a1.63,1.63,0,0,1-.06.8,5.89,5.89,0,0,1-.41,1,3.59,3.59,0,0,1-.76,1,.82.82,0,0,1-.48.29q-.11,0-.5-.34t-.72-.57a5.38,5.38,0,0,1-.54-.47.61.61,0,0,1-.22-.37l.34-.72q.37-.82.56-1.19.34-.56.67-1.15l.22-.34a1.43,1.43,0,0,0,.22.19l.29.19a7.17,7.17,0,0,1,1,1A1.71,1.71,0,0,1,45.46,23.81Z"/><path class="cls-1" d="M20.49,29.89a1.71,1.71,0,0,0,.43-.43,3.74,3.74,0,0,0,.43-.72,6.14,6.14,0,0,0,.37-2.38l0-2.49q0-.85,0-1.51a2.94,2.94,0,0,1,.19-1l1.34-3.31.19-.07a.78.78,0,0,1,0,.29q0,.26,0,1.31t-.13,2.25q0,1.1,0,2.1a15.06,15.06,0,0,1-.28,2.4,12.65,12.65,0,0,1-.65,2.49,6,6,0,0,1-.93,1.58q-.15.19-.93,1Z"/><path class="cls-1" d="M24.95,15.32a37.62,37.62,0,0,1,3.49-3q2.4-1.9,4.76-3.84Q34.91,7,36.47,5.57q1.11-1,3-2.82Q42.19.07,42.19,0a.72.72,0,0,1-.07.34A6.29,6.29,0,0,1,41.4,1.9a13.54,13.54,0,0,1-1,1.56q-.59.77-1.28,1.56A12.78,12.78,0,0,1,38,6.17q-.56.56-1.89,1.75-1,.89-3,2.6-1.43,1.19-2.53,2-1.48,1.15-3,2.27l-2.57,2L24,17.68q-.5.39-.57.28a10.3,10.3,0,0,1,.7-1.47A5.15,5.15,0,0,1,24.95,15.32Z"/><path class="cls-1" d="M20.5,31.44a3.88,3.88,0,0,1-.6.48c-.22.15-.42.27-.6.37l-1.15.56a1.43,1.43,0,0,1-.35.15l-.52.16-.39.13-.67.34-.37.11q-.34.11-.63.24l-1,.47-.22.15a2.34,2.34,0,0,1-.48.22l-.22-2a.94.94,0,0,1,.41-.13h.44A2,2,0,0,0,15,32.5a2,2,0,0,0,.6-.39,1.15,1.15,0,0,0,.26-.28c.1-.14.17-.21.22-.21l.22.15a.45.45,0,0,0,.26.07,1.13,1.13,0,0,0,1-.6q.26-.44.34-.44l.19.11.19.11a.72.72,0,0,0,.47-.11,1.43,1.43,0,0,0,.5-.48l.19-.26a2.5,2.5,0,0,0,.15-.26.55.55,0,0,1,.21,0,1.18,1.18,0,0,1,.24.15,2.24,2.24,0,0,0,.48-.15,3.22,3.22,0,0,1,.13.41,1.56,1.56,0,0,1,.06.29,2.41,2.41,0,0,1,0,.43A1.15,1.15,0,0,1,20.5,31.44Z"/><path class="cls-1" d="M15.86,14.71a1.63,1.63,0,0,1-.09.8,5.89,5.89,0,0,1-.37,1,3.59,3.59,0,0,1-.76,1,.82.82,0,0,1-.48.29q-.11,0-.5-.34t-.72-.57a5.36,5.36,0,0,1-.54-.47.61.61,0,0,1-.22-.37l.34-.72q.37-.82.56-1.19.34-.56.67-1.15l.22-.34a1.43,1.43,0,0,0,.22.19l.29.19a7.17,7.17,0,0,1,1,1A1.71,1.71,0,0,1,15.86,14.71Zm1.89-4.83a1.63,1.63,0,0,1-.06.8,5.89,5.89,0,0,1-.41,1,3.59,3.59,0,0,1-.76,1,.81.81,0,0,1-.48.29,1.33,1.33,0,0,1-.5-.32L14.83,12q-.32-.26-.54-.48a.61.61,0,0,1-.22-.37l.34-.72q.37-.82.56-1.19.34-.56.67-1.15l.22-.34a1.43,1.43,0,0,0,.22.19l.29.19a7.17,7.17,0,0,1,1,1,1.71,1.71,0,0,1,.35.75Zm1.94,4.61a1.63,1.63,0,0,1-.06.8,5.89,5.89,0,0,1-.41,1,3.59,3.59,0,0,1-.76,1,.82.82,0,0,1-.48.29q-.11,0-.5-.34t-.72-.57a5.38,5.38,0,0,1-.54-.47.61.61,0,0,1-.22-.37l.34-.72q.37-.82.56-1.19.34-.56.67-1.15l.22-.34a1.43,1.43,0,0,0,.22.19l.29.19a7.17,7.17,0,0,1,1.05,1A1.71,1.71,0,0,1,19.69,14.48Z"/><path class="cls-1" d="M13.69,35.61q-.11.3-.21.5a6.52,6.52,0,0,1-.37.65q-.28.44-.62.93a4.25,4.25,0,0,1-1,1.17,5.32,5.32,0,0,1-1,.43l-1.3.44-2,.52-.5.07c-.19,0-.29,0-.32,0s.09-.16.35-.32l.48-.29,1.39-.84a15.58,15.58,0,0,0,1.43-.93,13.78,13.78,0,0,0,1.79-1.48,2,2,0,0,0,.67-1.19,1.91,1.91,0,0,1-.43.11,3.83,3.83,0,0,1-.57,0A2.87,2.87,0,0,1,10.46,35a1.1,1.1,0,0,1-.6-1,7.93,7.93,0,0,1,.82-2.19,3.78,3.78,0,0,1,.62-1q.56-.72,1-.72a1.72,1.72,0,0,1,1.26.52,2.15,2.15,0,0,1,.67,1.43,6.51,6.51,0,0,1,0,.82v.76a3.23,3.23,0,0,1-.11.72q-.09.34-.19.62A5.14,5.14,0,0,1,13.69,35.61Z"/><path class="cls-1" d="M7.11,30.29a9.8,9.8,0,0,1-.19,1.48q-.19,1-.37,1.82L6.1,35.42q-.37,1-.59,1.53a11.67,11.67,0,0,1-.62,1.15,2.77,2.77,0,0,1-.57.72,6.53,6.53,0,0,1-1,.62L2,40a7.08,7.08,0,0,1-.87.16,5.74,5.74,0,0,1-.87.15c-.12,0-.2,0-.22-.13a.41.41,0,0,1,.07-.32A3.87,3.87,0,0,1,1,38.93l1.51-1.15a16.17,16.17,0,0,0,1.27-1.2A8.39,8.39,0,0,0,4.91,35a5,5,0,0,0,.32-.76l.65-1.88.44-1.34q.07-.29.22-.72c.1-.29.22-.43.37-.43A.82.82,0,0,1,7.11,30.29Z"/><path class="cls-1" d="M196.78,24.16a5.68,5.68,0,0,1,.34-.57,1.08,1.08,0,0,1,.19-.23.66.66,0,0,1,.11.31L197.24,25,197,27.12l-.4,3.42a14.18,14.18,0,0,1-.37,1.9,15.06,15.06,0,0,1-.55,1.59l-.87,1.84A14.65,14.65,0,0,1,194,37.2q-.25.33-.44.33l-.11-.27q.31-1,.57-2t.38-1.52q.38-1.76.54-3.13t.27-2.44l.42-1.19Z"/><path class="cls-1" d="M183.11,28a6.82,6.82,0,0,0,.13,1,4.85,4.85,0,0,0,.2.76,1.63,1.63,0,0,0,.94,1,3.34,3.34,0,0,0,1.43.22l1-1.63a4.6,4.6,0,0,0,.48-1.64q.05-.47.2-3.79.05-1.08.16-2.07a8.48,8.48,0,0,1,.48-2q.6-1.61.63-1.69.3-.72.44-1l.22.24q-.14,1.43-.18,2.15-.11,1.43-.19,2.92a21.75,21.75,0,0,1-.42,3q-.11.62-.33,1.5A6.79,6.79,0,0,1,188,28a16.77,16.77,0,0,1,1-1.36,3.32,3.32,0,0,1,2.15-1.48,1.84,1.84,0,0,1,1.15.32,1.26,1.26,0,0,1,.58,1q.11,1.81-1.83,4.69-2.36,3.48-5.44,3.66a3.4,3.4,0,0,1-3.05-1.17,4.6,4.6,0,0,1-.93-2.68,16.09,16.09,0,0,1,.52-1.57Zm8.51.39q0-.23-.49-.49a1.77,1.77,0,0,0-1-.23q-.87.05-2.05,1.54-.64.81-1.38,1.81a6.5,6.5,0,0,0,1-.1,5.79,5.79,0,0,0,1.56-.49A5.92,5.92,0,0,0,191,29.35q.69-.63.64-1Z"/><path class="cls-1" d="M183.22,26.16q0,.72,0,1.79t0,1.48a13.5,13.5,0,0,1-.23,2.15,18.39,18.39,0,0,1-.4,1.92q-.17.57-.4,1.19a10.23,10.23,0,0,1-.72,1.58,7.68,7.68,0,0,1-1.22,1.61,2.62,2.62,0,0,1-1.79.77,1.84,1.84,0,0,1-.93-.23,3,3,0,0,1-.72-.62,4.63,4.63,0,0,1-.38-.31.66.66,0,0,1-.27-.5.82.82,0,0,1,.17-.44l.4-.56a4.35,4.35,0,0,0,.29-.46,3.59,3.59,0,0,0,.31-.81,7.17,7.17,0,0,0,.19-1.31q.06-.81.06-1.38V30.86q0-.6,0-1.25a16,16,0,0,1,.49-3.76q.34-1.38,1.15-3.73a.44.44,0,0,1,.09-.17l.09-.09q.11,0,.11.72,0,.34,0,1.11t0,1l-.27,4.88a14.82,14.82,0,0,1-.15,2,14.52,14.52,0,0,1-.46,2.15,10.14,10.14,0,0,1-1.18,2.65c0,.05.13.08.31.08H178a3,3,0,0,0,2-.9,4.8,4.8,0,0,0,1.36-2.15,6.74,6.74,0,0,0,.22-1.23q.08-.79.08-1.36,0-.93,0-1.52t-.09-1.13V25.77a12.19,12.19,0,0,1,.42-2.77,14.41,14.41,0,0,1,1.43-3.42q.15-.19.23-.15t0,.62q0,.54-.11,1a23.51,23.51,0,0,0-.19,2.34Z"/><path class="cls-1" d="M168.38,38.61a2.7,2.7,0,0,1-2.48-1.31,5.29,5.29,0,0,1-.65-2.77l1.61-3a5.54,5.54,0,0,0,.34,2.19,1.43,1.43,0,0,0,.8.72,2.33,2.33,0,0,0,1.18.15l.49-1.35.65-1.5a6.78,6.78,0,0,1,1-1.65,2.6,2.6,0,0,1,2-1,1.86,1.86,0,0,1,.84.17.89.89,0,0,1,.46.6.84.84,0,0,1-.61.88l-.46-.11a2.91,2.91,0,0,0-.77-.11,1.82,1.82,0,0,0-1.43.72,2.06,2.06,0,0,0-.61,1.25,1.31,1.31,0,0,0,.4.87,1.43,1.43,0,0,0,1.09.47q.84,0,1.76-1.31.19-.31.55-.94t.6-.56q.19.08,0,.72a14.17,14.17,0,0,1-.72,1.61,17.61,17.61,0,0,1-1.53,2.54Q170.9,38.61,168.38,38.61Z"/><path class="cls-1" d="M166.88,31.54l-.61,2q-.42,1-1,1,0-.46.42-4t.72-5.44q0-.15.61-1.58t.92-2.15l.15-.08a1.92,1.92,0,0,1,0,.62l-.15,1-.7,4.69Q167,29,166.94,30T166.88,31.54Z"/><path class="cls-1" d="M144,34.15a12.72,12.72,0,0,0,2.25.33q1.1.06,2.45.06,1.61,0,3.59-.15a27.08,27.08,0,0,0,3.8-.56,19.48,19.48,0,0,0,3.28-1,7.89,7.89,0,0,0,2.27-1.35,4.17,4.17,0,0,0,.57-.62s.14-.19.32-.5.32-.46.4-.46a1.18,1.18,0,0,1,.11.42,6.53,6.53,0,0,1-.49,1.61A11,11,0,0,1,161.52,34a5.26,5.26,0,0,1-1.31,1.3,15.62,15.62,0,0,1-2.45,1.35,20.49,20.49,0,0,1-2.6.88,31,31,0,0,1-4.3.82,34.53,34.53,0,0,1-4.09.25,24.14,24.14,0,0,1-3.51-.19,4.85,4.85,0,0,1-2.83-1.19,2.41,2.41,0,0,1-.76-1.89,9.32,9.32,0,0,1,.14-1.33q.14-.87.31-1.73a10.16,10.16,0,0,1,.27-1.13c.06-.18.16-.27.29-.27s.2.11.23.33.06.57.09,1,.4.9,1.09,1.29A11.92,11.92,0,0,0,144,34.15Z"/><path class="cls-1" d="M151.55,26.36a1.7,1.7,0,0,1-.06.82,6.1,6.1,0,0,1-.42,1,3.69,3.69,0,0,1-.78,1,.84.84,0,0,1-.49.31q-.11,0-.52-.34l-.72-.6a5.55,5.55,0,0,1-.55-.48.63.63,0,0,1-.23-.39l.34-.77q.38-.85.57-1.23l.72-1.19.23-.34a1.51,1.51,0,0,0,.23.19l.31.19a7.36,7.36,0,0,1,1.07,1A1.78,1.78,0,0,1,151.55,26.36Zm3.93-.23a1.69,1.69,0,0,1-.06.82,6.08,6.08,0,0,1-.42,1,3.7,3.7,0,0,1-.78,1,.84.84,0,0,1-.49.31q-.11,0-.52-.34l-.72-.6a5.53,5.53,0,0,1-.55-.48.63.63,0,0,1-.23-.39l.34-.77q.38-.85.57-1.23l.72-1.19.23-.34a1.51,1.51,0,0,0,.23.19l.31.19a7.37,7.37,0,0,1,1.07,1,1.78,1.78,0,0,1,.31.8Z"/></g></g></g></svg>