<svg xmlns="http://www.w3.org/2000/svg" viewBox="0 0 371.06 88.15"><defs><style>.cls-1{fill:#0089a0;}.cls-2{fill:#00bdff;}.cls-3{fill:#36c0e0;}</style></defs><title>GolBlue</title><g id="Layer_2" data-name="Layer 2"><g id="Layer_1-2" data-name="Layer 1"><path class="cls-1" d="M190.47,67.18a22,22,0,0,0,2.07,3.28c2-3.78,3.56-8.22,3.56-12.47,0-18.87-12.36-30-29.16-30-16.12,0-23.71,17.08-38,10.06l3.3,3.89c5.72,6.86,13.72,5.27,16.47,2.63,0,4,5.25,6.07,5.25,6.07,2.29-6.63,11.9-6.41,11.9-12.47,0-4.35-4.11-4.57-7.09-3.2a12.38,12.38,0,0,1,7.89-3.2c7.21,0,12.49,2.1,16.33,5.21a4.74,4.74,0,0,0-4,6,4.66,4.66,0,0,0,3.24,3.22,4.73,4.73,0,0,0,5.87-3.37,31.38,31.38,0,0,1,4.2,15.57A23.45,23.45,0,0,1,190.47,67.18Z"/><path class="cls-1" d="M187.89,72.05a29.52,29.52,0,0,1-6.56,7.36,10,10,0,0,1,2.12.48,14.56,14.56,0,0,1,2,.87,46.6,46.6,0,0,0,4.7-6.15Z"/><path class="cls-1" d="M63,39.49c-18.73-.3-31.77,12.91-37.8,19,5.8-1.86,9.65.35,11.62.35,6.53,0,8.83-1.75,8.83-5A6.51,6.51,0,0,0,44,49.16c5.48-4.42,14.07-5.71,18.62-5.71,18.15,0,24.07,15.28,30.24,19.13A7.89,7.89,0,0,1,95,60.06a9.64,9.64,0,0,1-4.22-7.66c0-7.58,4.89-8.72,4.89-8.72,3.26-1.17,7.79.58,7.79,4.81,0,6.23-7.2,10.66-7.2,10.66-2.19,1.69-4,2.92-4,6.89a4.93,4.93,0,1,0,9.85,0,5,5,0,0,0-2-4s12-1.14,12-13.29c14.63,2.9,18.27-20.13,24.59-20.13.56,0,1.76-.16,1.76.47s-3.5-.32-3.5,3.55c0,3,2.87,3.57,4.29,3.57s4.82-.64,4.82-6.09-5.36-6.76-8.87-6.24c-12.07,1.77-15.74,15.9-27.93,15.9-1.27,0-4.11-1.19-7.27-1.19s-13.14,3-13.14,12.09C86.93,50.67,77.53,39.73,63,39.49Z"/><path class="cls-1" d="M71.59,84.66c5.69-3.27,13.79-15.4,18.47-8.6,2.24-3,2.24-12.14-8.49-9.06C77,57.43,77.73,33,97.62,33c7.34,0,11.06,2.77,13.4,5.85-3.51-9-14.14-9.46-17-9.46S70.4,32.13,70.4,50.84c0,0-7.45-1.49-15.31,5a3.56,3.56,0,0,0,1.8-3c0-2.05-1.82-3.48-4.45-3.48A4.7,4.7,0,0,0,47.71,54c0,2.93,1.54,5.51,5.5,5.51,5.48,0,6.28-1.48,11.85-1.48,6.14,0,4,7,8.85,7a5,5,0,0,0,3.61-1.7C78.8,68.92,78.84,77.28,69.37,83,70.42,83.71,71.59,84.66,71.59,84.66Z"/><path class="cls-1" d="M121.59,32.17a31.8,31.8,0,0,0-15.25-16,26,26,0,0,0-10-2.4,10.82,10.82,0,0,0-.66-10.94c-1.45-2.11-4-3-6.81-2.8a4.9,4.9,0,0,0-4.56,4.82,4.7,4.7,0,0,0,4.56,4.82,5,5,0,0,0,4.72-3.91,3.88,3.88,0,0,1,1.16,2.45c0,5-5,6.13-5,6.13a12.4,12.4,0,0,1-.39,3.51,18.22,18.22,0,0,1,9.27-.66,3.58,3.58,0,0,0-1.85,3.44c0,8.69,15.59,3.08,21.72,14.43C119.45,34.24,121.59,32.17,121.59,32.17Z"/><path class="cls-1" d="M78.36,79.09A33.4,33.4,0,0,0,88,83.81S87.11,85,86.13,86a42,42,0,0,1-9.85-5C77.28,80.07,78.36,79.09,78.36,79.09Z"/><path class="cls-2" d="M140.5,24.48c6.07-1.48,8.16-1,14,0-1.59,1.92-2.25,5.31-10.34,5.31A5.8,5.8,0,0,0,140.5,24.48Z"/><path class="cls-2" d="M72.36,28.64c4,4.4,7.5-1.07,11.48.88a4,4,0,0,1,1.89,2.28c1.35-2.76,3.83-5.36.18-9.05,0,0,3.86-2.27,3.7-8.63-5.64-2.94-9.32-.37-9.32-.37-1.72-4.9-5.15-3.8-8.22-3.8a4,4,0,0,1,1.23,2.7c0,4.53-6.56,5.57-3.84,11.46a2.7,2.7,0,1,1,2.9,4.53Z"/><path class="cls-1" d="M73.7,25.71C63.58,34.45,62,46.77,62,51.77a17,17,0,0,0-3,1.35,35.2,35.2,0,0,1,5.21-20.66,3.26,3.26,0,1,1,3.65-5.05,40.78,40.78,0,0,1,3.6-3.77A2.72,2.72,0,0,1,73.7,25.71Z"/><path class="cls-1" d="M36.88,58.87l1.7-.05A20.56,20.56,0,0,0,37.92,64,21,21,0,0,0,54.82,84.5a4.61,4.61,0,0,1,1.47,3.65h-.14A24.36,24.36,0,0,1,34.54,64a23.55,23.55,0,0,1,.61-5.44A7.32,7.32,0,0,0,36.88,58.87Z"/><path class="cls-3" d="M76.93,88.15H56.35c-.06-3.2-2-4-2-4S57.21,80,62,80C67.51,80,73.39,87.1,76.93,88.15Z"/><path class="cls-3" d="M207,46.91s11.81,2.9,8.72,20.74c0,0,5.1-1.28,5.1,3.83,0,3.4-3.08,3.72-4.15,3.72s-5.85-.1-5.85-8.4c0-5.21-10.09-3.62-10.09-10.31,0-3.62,4.25-4.36,4.25-4.36-2.77-4.57-15.84-2-15.84,10.42,0,4.36,3.93,8.72,3.93,8.72a6.76,6.76,0,0,1,6.6-4.36c3.72,0,5.1,3.4,5.1,6,0,4.78-5.43,5.53-5.43,5.53A22.41,22.41,0,0,0,215.86,85c6.36,0,8.51-.24,8.51-.24s-1.81-4.26-.11-6.39,5.32-5.63,2.34-9.35c0,0,10.52-2.56,12.34,8.61,0,0,6.91-.11,10,3.29a96,96,0,0,0,7.59,7.22H243.17c-.15-2.06-3.57-3.18-7-3.18-3.07,0-6.39,2.55-8.52,3.18H209c-3.78-.53-9-2.77-15.21-9.45-5.69-6.12-13.83-18.93-29.89-18.93s-28.49,13.4-28.49,13.4-11.59,13.5-26.06,15H105.6c-2.62-.66-2.67-3.5-6-3.5a4.38,4.38,0,0,0-4.32,3.5H84C90.31,83,91.25,75.91,98.37,75.91a11.87,11.87,0,0,1,4.88,1.33c2.44-3.17,8.55-2.11,9,1.86a4.71,4.71,0,0,1-2,4.48c2.73.11,9,2.95,24.72-20.53a17,17,0,0,1-3.17-10.21s10.2,1.76,14.67-2.81c0,0,2.46,2.35,1.76,7.39,8.56-2.53,27.6-3.6,37.38,6.61,0,0-1.16-13.72,11.91-19.17a9.91,9.91,0,0,0,4.25-7.62S207,38.83,207,46.91Z"/><path class="cls-1" d="M124.63,43.86a14.21,14.21,0,0,1-3.84,3.37c0,11.23-12.51,17.29-19.12,16.5a4.68,4.68,0,0,1,.52,2.85A18,18,0,0,0,113,64.45c0,8.51,3.84,10.21,3.84,10.21,5.32,0,9.35-4.89,9.35-4.89C131.7,80.14,144,87.11,149.1,88.15h16.31c.31-.68,1.86-3.71,5.26-3.71s6.79,3,7.66,3.71h15c-4.85-6-8.78-8.72-13-8.72,0-6-5.64-7.57-5.64-7.57-5.8,6.61-18,2.66-15.9,13.49-22.15,1.69-32.44-20.27-33.62-35Zm-2.22,7.94C123.93,56,125,62,122.07,65s-7.52-1.53-4.51-5.13A35.2,35.2,0,0,0,122.41,51.8Z"/><path class="cls-2" d="M219,88.15H208.36c.2-3.9,2.49-6.78,5.3-6.78S218.75,84.36,219,88.15Z"/><path class="cls-1" d="M177.85,54.86c0,9.5-10.81,16.94-22.73,16,0,11.86-8.32,16.46-10,17.28h-9.82A10.08,10.08,0,0,1,129,84.29c5,1,18,.29,18-12a49.91,49.91,0,0,0-1.05-7.19,40.66,40.66,0,0,1,4.6-2.29c2.24,2.81,12.82,8.3,19.76-1.48.39-.52.59-1,0-1.22s-.91.39-1.17,1A5.3,5.3,0,0,1,164,64.55c-3.74,0-6.3-1.64-6.3-5.84,0-7,12.92-7.55,12.92-14.2a7.79,7.79,0,0,0-.64-2.6S177.85,43.38,177.85,54.86Z"/><path class="cls-1" d="M62.29,64.53a29.32,29.32,0,0,1-2.34-5.86,26.58,26.58,0,0,1,3.17-.47C64.63,63,69.71,72,75.7,77a16.56,16.56,0,0,1-1.64,2.14s-4.83-4.84-11.42-4.84C49,74.27,49,87.72,28.75,87.72c-6,0-6.32-3.17-9.48-3.17-2.81,0-5,2.93-5.43,3.6H0c4.81-1.73,7-8.68,16.06-8.68,0-10.64,4.86-15.23,14-15.23,1.94,0,10,2.37,13.35.93,0,12-8.67,15.79-14.64,12.55a11.47,11.47,0,0,0,.9-3.75c0-1.68-1.32-4-3.64-4a5.28,5.28,0,0,0-5.31,5.57c0,3.9,4.55,8.7,10.11,8.7C47.47,84.22,45.57,64.53,62.29,64.53Z"/><path class="cls-1" d="M319.34,74.86c0,1.93,3.29,2.83,3.29,6.74a6.94,6.94,0,0,1-6,6.55h-10.5l8.67-.38c4.7,0,7-4.64,7-6.17a3,3,0,0,0-.8-2.22,2.64,2.64,0,0,1-2.55,2.11,2.14,2.14,0,0,1-2-2.16c0-2.43,2.78-2.77,2.78-2.77a3.11,3.11,0,0,1-.86-2.15,2.56,2.56,0,0,1,1.3-2A12,12,0,0,0,319.34,74.86Z"/><path class="cls-1" d="M304.89,88.15h-7A1.59,1.59,0,0,0,296.5,87c-1.64,0-1.59.9-4.29,1.16H289c-8.53-.65-11-6.1-11-6.1-6.28,4.59-11,5.82-12.37,6.1h-7.26c10.5-.92,21.17-11.7,21.17-11.7.05,8.2,8.16,10,10.51,10.38a1.59,1.59,0,0,1-1.19-1.71,2,2,0,0,1,2.29-1.92c2.19,0,2.45,1.34,1.91,2.07a4.34,4.34,0,0,1,2.38-1C298.9,84.31,298.66,87.56,304.89,88.15Z"/><path class="cls-1" d="M371.06,88H357.19l2.52-3h0a1.23,1.23,0,0,0,.17-1.36,1.24,1.24,0,0,0-1.22-.62h0c-.13,0-.77.16-.93.68a1,1,0,0,0,.35.95.37.37,0,1,0,.53-.52.55.55,0,0,1-.16-.22.78.78,0,0,1,.35-.16h0a.52.52,0,0,1,.46.25.51.51,0,0,1-.1.55l-2.73,3.23a.19.19,0,0,0,0,.09h-.48a2.27,2.27,0,0,0-2.12-1.18c2-2.36-1.92-3.8-1.92-3.8a4.4,4.4,0,0,1-.47,2.58c-.53-.66-1.38-1.41-2-.27-.34.59.57,1.65,1.05,1,0,0,.26-.56.74-.27a5.83,5.83,0,0,1-2.5,2h-1.84c-.13-.23-1.55-2.68-2.52-1a.86.86,0,0,0,.24,1h-5.68a7.42,7.42,0,0,0,3.57-2.76,5.85,5.85,0,0,0,.72-4.76s0,0,0,0a1.69,1.69,0,0,0-1.78-1.06,1.64,1.64,0,0,0-1.43,1.31,1.4,1.4,0,0,0,.38,1.24c.84.82,2.14.26,2.14-.14a4.64,4.64,0,0,1-.63,3c-1.46,2.31-4.77,3-4.8,3a.36.36,0,0,0-.26.2h-1V81.69l1.05,0A4.54,4.54,0,0,1,335,79.23v8.62h-.64V79.23a4.53,4.53,0,0,1-1.79,2.49l1.05,0v6.16H331.3c-1.51-.48-3.12-1.61-5.75-7,0,0-.48,5.4-4,7.32h49.47Zm-25.77-.13,0,0s.4-.81,1.08,0Z"/></g></g></svg>