<svg xmlns="http://www.w3.org/2000/svg" viewBox="0 0 319.26 70.1"><defs><style>.cls-1{fill:#0089a0;}.cls-2{fill:#00bdff;}.cls-3{fill:#36c0e0;}</style></defs><title>GolBlue2</title><g id="Layer_2" data-name="Layer 2"><g id="Layer_1-2" data-name="Layer 1"><path class="cls-1" d="M167.79,16.68a17.46,17.46,0,0,0-1.65-2.61A22.31,22.31,0,0,0,163.31,24c0,15,9.83,23.83,23.19,23.83,12.82,0,18.85-13.58,30.18-8l-2.63-3.1c-4.55-5.46-10.91-4.19-13.1-2.09,0-3.19-4.18-4.82-4.18-4.82-1.82,5.28-9.46,5.1-9.46,9.92,0,3.46,3.27,3.64,5.64,2.55a9.84,9.84,0,0,1-6.27,2.55c-5.73,0-9.93-1.67-13-4.14a3.77,3.77,0,0,0,3.21-4.79,3.7,3.7,0,0,0-2.58-2.56A3.76,3.76,0,0,0,169.66,36a25,25,0,0,1-3.34-12.38A18.65,18.65,0,0,1,167.79,16.68Z"/><path class="cls-1" d="M169.84,12.8A23.48,23.48,0,0,1,175.06,7a8,8,0,0,1-1.69-.38,11.58,11.58,0,0,1-1.57-.7,37.06,37.06,0,0,0-3.74,4.89Z"/><path class="cls-1" d="M269.17,38.7c14.9.24,25.27-10.27,30.06-15.08-4.61,1.48-7.67-.28-9.24-.28-5.19,0-7,1.39-7,4a5.17,5.17,0,0,0,1.3,3.69c-4.35,3.52-11.19,4.54-14.81,4.54-14.44,0-19.14-12.16-24-15.21a6.27,6.27,0,0,1-1.7,2,7.67,7.67,0,0,1,3.36,6.09c0,6-3.89,6.93-3.89,6.93-2.59.93-6.19-.46-6.19-3.83,0-5,5.73-8.47,5.73-8.47,1.74-1.34,3.15-2.32,3.15-5.48a3.92,3.92,0,1,0-7.84,0,4,4,0,0,0,1.59,3.2S230,21.69,230,31.34c-11.63-2.31-14.53,16-19.55,16-.44,0-1.4.13-1.4-.38s2.79.25,2.79-2.82c0-2.39-2.28-2.84-3.41-2.84s-3.84.51-3.84,4.85,4.26,5.37,7.06,5c9.6-1.41,12.52-12.64,22.21-12.64,1,0,3.27.95,5.78.95s10.45-2.37,10.45-9.62C250.13,29.81,257.6,38.51,269.17,38.7Z"/><path class="cls-1" d="M262.32,2.78c-4.53,2.6-11,12.25-14.68,6.84-1.78,2.38-1.78,9.65,6.75,7.2,3.64,7.61,3,27.06-12.76,27.06-5.84,0-8.79-2.2-10.66-4.65,2.79,7.19,11.25,7.53,13.53,7.53s18.77-2.2,18.77-17.08c0,0,5.92,1.18,12.17-4A2.83,2.83,0,0,0,274,28.08c0,1.63,1.45,2.76,3.54,2.76a3.74,3.74,0,0,0,3.76-3.7c0-2.33-1.22-4.38-4.37-4.38-4.36,0-5,1.18-9.42,1.18-4.88,0-3.19-5.59-7-5.59a4,4,0,0,0-2.87,1.35c-1-4.39-1-11,6.48-15.61C263.26,3.53,262.32,2.78,262.32,2.78Z"/><path class="cls-1" d="M222.56,44.52a25.29,25.29,0,0,0,12.13,12.72,20.65,20.65,0,0,0,8,1.91,8.6,8.6,0,0,0,.52,8.7,5.72,5.72,0,0,0,5.41,2.23,3.9,3.9,0,0,0,3.62-3.84,3.73,3.73,0,0,0-3.62-3.84,4,4,0,0,0-3.76,3.11,3.09,3.09,0,0,1-.92-2c0-4,4-4.88,4-4.88a9.86,9.86,0,0,1,.31-2.79,14.49,14.49,0,0,1-7.37.52,2.85,2.85,0,0,0,1.47-2.73c0-6.91-12.4-2.45-17.27-11.47C224.26,42.88,222.56,44.52,222.56,44.52Z"/><path class="cls-1" d="M256.95,7.21a26.56,26.56,0,0,0-7.67-3.75s.71-.92,1.49-1.77a33.38,33.38,0,0,1,7.84,4C257.8,6.43,256.95,7.21,256.95,7.21Z"/><path class="cls-2" d="M207.53,50.64c-4.82,1.18-6.49.76-11.14,0,1.27-1.52,1.79-4.23,8.22-4.23A4.61,4.61,0,0,0,207.53,50.64Z"/><path class="cls-2" d="M261.71,47.33c-3.14-3.5-6,.85-9.13-.7a3.2,3.2,0,0,1-1.5-1.82c-1.07,2.19-3,4.26-.15,7.2,0,0-3.07,1.81-2.94,6.86,4.49,2.34,7.41.3,7.41.3,1.36,3.9,4.1,3,6.54,3A3.19,3.19,0,0,1,261,60c0-3.6,5.21-4.43,3.06-9.11a2.15,2.15,0,1,1-2.3-3.6Z"/><path class="cls-1" d="M260.65,49.66c8-7,9.27-16.75,9.31-20.72a13.51,13.51,0,0,0,2.4-1.07,28,28,0,0,1-4.15,16.43,2.59,2.59,0,1,1-2.9,4,32.43,32.43,0,0,1-2.86,3A2.17,2.17,0,0,1,260.65,49.66Z"/><path class="cls-1" d="M289.93,23.29l-1.35,0a16.35,16.35,0,0,0,.52-4.15A16.68,16.68,0,0,0,275.66,2.9,3.67,3.67,0,0,1,274.49,0h.11a19.37,19.37,0,0,1,17.19,19.18,18.73,18.73,0,0,1-.48,4.33A5.82,5.82,0,0,0,289.93,23.29Z"/><path class="cls-3" d="M258.08,0h16.36c0,2.54,1.6,3.2,1.6,3.2A8.09,8.09,0,0,1,270,6.5C265.57,6.5,260.9.84,258.08,0Z"/><path class="cls-3" d="M154.62,32.8s-9.39-2.31-6.94-16.49c0,0-4.06,1-4.06-3,0-2.7,2.45-3,3.3-3s4.65.08,4.65,6.68c0,4.14,8,2.88,8,8.2,0,2.88-3.38,3.47-3.38,3.47,2.2,3.63,12.6,1.6,12.6-8.29,0-3.47-3.13-6.93-3.13-6.93a5.38,5.38,0,0,1-5.25,3.47c-3,0-4.06-2.71-4.06-4.74,0-3.81,4.32-4.39,4.32-4.39A17.82,17.82,0,0,0,147.6,2.51c-5.06,0-6.77.19-6.77.19s1.44,3.39.09,5.08-4.23,4.48-1.86,7.44c0,0-8.37,2-9.81-6.85,0,0-5.49.08-7.95-2.62a76.32,76.32,0,0,0-6-5.74h10.62c.12,1.64,2.84,2.53,5.57,2.53,2.44,0,5.08-2,6.78-2.53h14.86c3,.42,7.16,2.2,12.1,7.52,4.52,4.87,11,15.05,23.77,15.05s22.66-10.65,22.66-10.65S220.83,1.18,232.33,0h2.95c2.08.52,2.12,2.78,4.74,2.78A3.49,3.49,0,0,0,243.46,0h9c-5,4.12-5.74,9.73-11.4,9.73a9.44,9.44,0,0,1-3.88-1.06c-1.94,2.52-6.8,1.68-7.12-1.48a3.75,3.75,0,0,1,1.6-3.56C229.46,3.55,224.51,1.3,212,20a13.53,13.53,0,0,1,2.52,8.12s-8.11-1.4-11.66,2.24c0,0-2-1.87-1.4-5.88-6.8,2-21.95,2.86-29.73-5.26,0,0,.92,10.91-9.47,15.25a7.88,7.88,0,0,0-3.38,6.06S154.62,39.23,154.62,32.8Z"/><path class="cls-1" d="M220.15,35.23a11.3,11.3,0,0,1,3.05-2.68c0-8.93,9.95-13.75,15.21-13.12a3.72,3.72,0,0,1-.41-2.27,14.3,14.3,0,0,0-8.62,1.69c0-6.76-3.05-8.12-3.05-8.12-4.23,0-7.44,3.89-7.44,3.89C214.52,6.37,204.73.83,200.69,0h-13a4.79,4.79,0,0,1-4.18,3c-2.7,0-5.4-2.41-6.09-3H165.54c3.86,4.76,7,6.94,10.34,6.94a6.33,6.33,0,0,0,4.49,6C185,7.7,194.64,10.85,193,2.23c17.61-1.34,25.8,16.12,26.74,27.86Zm1.77-6.32c-1.21-3.34-2.1-8.08.27-10.47s6,1.21,3.59,4.08A28,28,0,0,0,221.91,28.91Z"/><path class="cls-2" d="M145.13,0h8.42c-.16,3.1-2,5.4-4.21,5.4S145.3,3,145.13,0Z"/><path class="cls-1" d="M177.82,26.48c0-7.56,8.59-13.47,18.07-12.74,0-9.43,6.61-13.09,8-13.74h7.81a8,8,0,0,1,5,3.07c-4-.76-14.33-.23-14.33,9.53a39.69,39.69,0,0,0,.84,5.72,32.33,32.33,0,0,1-3.66,1.82c-1.78-2.24-10.19-6.6-15.71,1.18-.31.41-.47.8,0,1s.72-.31.93-.76a4.22,4.22,0,0,1,4.08-2.76c3,0,5,1.3,5,4.64,0,5.58-10.28,6-10.28,11.29a6.2,6.2,0,0,0,.51,2.07S177.82,35.61,177.82,26.48Z"/><path class="cls-1" d="M269.73,18.79a23.31,23.31,0,0,1,1.86,4.66,21.14,21.14,0,0,1-2.52.37c-1.2-3.8-5.24-11-10-14.92a13.17,13.17,0,0,1,1.3-1.7S264.2,11,269.45,11C280.27,11,280.29.34,296.39.34c4.77,0,5,2.52,7.54,2.52,2.24,0,4-2.33,4.32-2.86h11c-3.82,1.38-5.57,6.9-12.77,6.9,0,8.46-3.86,12.11-11.17,12.11-1.55,0-7.95-1.89-10.62-.74,0-9.57,6.89-12.55,11.64-10a9.12,9.12,0,0,0-.71,3,3.15,3.15,0,0,0,2.89,3.19A4.2,4.2,0,0,0,302.74,10c0-3.1-3.62-6.91-8-6.91C281.51,3.13,283,18.79,269.73,18.79Z"/><path class="cls-1" d="M65.3,10.57c0-1.53-2.62-2.25-2.62-5.36A5.52,5.52,0,0,1,67.45,0h8.35L68.9.3a5.84,5.84,0,0,0-5.54,4.91A2.37,2.37,0,0,0,64,7,2.1,2.1,0,0,1,66,5.3,1.7,1.7,0,0,1,67.6,7c0,1.93-2.21,2.2-2.21,2.2a2.47,2.47,0,0,1,.68,1.71,2,2,0,0,1-1,1.63A9.58,9.58,0,0,0,65.3,10.57Z"/><path class="cls-1" d="M76.8,0h5.57a1.26,1.26,0,0,0,1.11.93c1.3,0,1.27-.72,3.41-.93h2.57c6.78.51,8.74,4.85,8.74,4.85C103.19,1.2,107,.22,108,0h5.77C105.45.73,97,9.3,97,9.3c0-6.52-6.49-8-8.36-8.25a1.26,1.26,0,0,1,1,1.36,1.63,1.63,0,0,1-1.82,1.53c-1.74,0-1.95-1.07-1.52-1.65a3.45,3.45,0,0,1-1.89.76C81.56,3.06,81.75.47,76.8,0Z"/><path class="cls-1" d="M54.81,5.12l-.84,0V.24h1.82c1.2.38,2.48,1.28,4.57,5.58,0,0,.38-4.29,3.15-5.82H0A.29.29,0,0,0,.28.24H35.11L33.2,2.5h0a1,1,0,0,0-.13,1.08,1,1,0,0,0,1,.49h0c.1,0,.62-.13.74-.54a.76.76,0,0,0-.27-.75.29.29,0,1,0-.42.41.44.44,0,0,1,.13.18.62.62,0,0,1-.27.13h0a.41.41,0,0,1-.36-.2.4.4,0,0,1,.08-.44L35.82.31a.15.15,0,0,0,0-.07h.38a1.8,1.8,0,0,0,1.68.94c-1.59,1.88,1.53,3,1.53,3a3.5,3.5,0,0,1,.37-2c.42.53,1.1,1.12,1.62.21.27-.47-.45-1.31-.84-.77,0,0-.21.44-.59.22A4.63,4.63,0,0,1,42,.24h1.46c.1.19,1.23,2.13,2,.8a.69.69,0,0,0-.19-.8H49.8A5.9,5.9,0,0,0,47,2.44a4.65,4.65,0,0,0-.57,3.79s0,0,0,0a1.34,1.34,0,0,0,1.42.84,1.3,1.3,0,0,0,1.14-1,1.11,1.11,0,0,0-.3-1c-.67-.65-1.7-.21-1.7.11a3.69,3.69,0,0,1,.5-2.41A6.48,6.48,0,0,1,51.27.4a.28.28,0,0,0,.21-.16h.82v4.9l-.84,0a3.61,3.61,0,0,1,1.42,2V.24h.51V7.1A3.6,3.6,0,0,1,54.81,5.12ZM44.67.24v0s-.32.64-.86,0Z"/></g></g></svg>