<svg xmlns="http://www.w3.org/2000/svg" viewBox="0 0 206.51 45.35"><defs><style>.cls-1{fill:#9b7d00;}.cls-2{fill:#ffd000;}.cls-3{fill:#ebbd00;}</style></defs><title>GolGold</title><g id="Layer_2" data-name="Layer 2"><g id="Layer_1-2" data-name="Layer 1"><path class="cls-1" d="M98,10.79A11.29,11.29,0,0,1,99,9.1a14.43,14.43,0,0,1,1.83,6.42c0,9.71-6.36,15.41-15,15.41-8.29,0-12.19-8.78-19.52-5.17l1.7-2C71,20.22,75.11,21,76.52,22.4c0-2.06,2.7-3.12,2.7-3.12,1.18,3.41,6.12,3.3,6.12,6.41,0,2.24-2.12,2.35-3.65,1.65A6.37,6.37,0,0,0,85.76,29a12.89,12.89,0,0,0,8.4-2.68,2.44,2.44,0,0,1-2.07-3.1,2.4,2.4,0,0,1,1.67-1.65,2.43,2.43,0,0,1,3,1.73,16.14,16.14,0,0,0,2.16-8A12.06,12.06,0,0,0,98,10.79Z"/><path class="cls-1" d="M96.65,8.28A15.19,15.19,0,0,0,93.28,4.5a5.15,5.15,0,0,0,1.09-.25,7.49,7.49,0,0,0,1-.45A24,24,0,0,1,97.8,7Z"/><path class="cls-1" d="M32.4,25c-9.64.15-16.34-6.64-19.44-9.76,3,1,5-.18,6-.18,3.36,0,4.54.9,4.54,2.58a3.35,3.35,0,0,1-.84,2.39C25.46,22.33,29.88,23,32.22,23c9.34,0,12.38-7.86,15.55-9.84a4.06,4.06,0,0,0,1.1,1.3,5,5,0,0,0-2.17,3.94c0,3.9,2.52,4.48,2.52,4.48,1.68.6,4-.3,4-2.48,0-3.21-3.7-5.48-3.7-5.48-1.12-.87-2-1.5-2-3.54a2.54,2.54,0,1,1,5.07,0,2.59,2.59,0,0,1-1,2.07s6.18.59,6.18,6.84c7.53-1.49,9.4,10.35,12.65,10.35.29,0,.91.08.91-.24s-1.8.16-1.8-1.83c0-1.55,1.48-1.84,2.21-1.84s2.48.33,2.48,3.13-2.76,3.47-4.56,3.21c-6.21-.91-8.1-8.18-14.37-8.18a29.38,29.38,0,0,1-3.74.61c-1.63,0-6.76-1.53-6.76-6.22C44.72,19.28,39.88,24.91,32.4,25Z"/><path class="cls-1" d="M36.83,1.8c2.93,1.68,7.09,7.92,9.5,4.42,1.15,1.54,1.15,6.25-4.37,4.66-2.35,4.92-2,17.5,8.26,17.5,3.78,0,5.69-1.42,6.89-3-1.8,4.65-7.27,4.87-8.75,4.87s-12.14-1.42-12.14-11c0,0-3.83.77-7.87-2.57a1.83,1.83,0,0,1,.92,1.54c0,1.06-.94,1.79-2.29,1.79a2.42,2.42,0,0,1-2.43-2.39,2.6,2.6,0,0,1,2.83-2.84c2.82,0,3.23.76,6.09.76,3.16,0,2.06-3.62,4.55-3.62a2.59,2.59,0,0,1,1.86.87c.66-2.84.68-7.14-4.19-10.1C36.22,2.28,36.83,1.8,36.83,1.8Z"/><path class="cls-1" d="M62.55,28.8A16.36,16.36,0,0,1,54.7,37a13.36,13.36,0,0,1-5.15,1.23,5.56,5.56,0,0,1-.34,5.63,3.7,3.7,0,0,1-3.5,1.44,2.52,2.52,0,0,1-2.34-2.48,2.42,2.42,0,0,1,2.34-2.48,2.58,2.58,0,0,1,2.43,2,2,2,0,0,0,.59-1.26A3.33,3.33,0,0,0,46.14,38a6.38,6.38,0,0,0-.2-1.81,9.37,9.37,0,0,0,4.77.34,1.84,1.84,0,0,1-1-1.77c0-4.47,8-1.58,11.17-7.42C61.45,27.73,62.55,28.8,62.55,28.8Z"/><path class="cls-1" d="M40.31,4.66a17.18,17.18,0,0,1,5-2.43s-.46-.59-1-1.14a21.59,21.59,0,0,0-5.07,2.58C39.75,4.16,40.31,4.66,40.31,4.66Z"/><path class="cls-2" d="M72.27,32.76c3.12.76,4.2.49,7.2,0-.82-1-1.16-2.73-5.32-2.73A3,3,0,0,1,72.27,32.76Z"/><path class="cls-2" d="M37.22,30.61c2-2.26,3.86.55,5.91-.45a2.07,2.07,0,0,0,1-1.17c.69,1.42,2,2.76.09,4.66,0,0,2,1.17,1.9,4.44-2.9,1.51-4.8.19-4.8.19-.88,2.52-2.65,2-4.23,2a2.06,2.06,0,0,0,.64-1.39c0-2.33-3.37-2.87-2-5.9a1.39,1.39,0,1,0,1.49-2.33Z"/><path class="cls-1" d="M37.91,32.12a18.39,18.39,0,0,1-6-13.4,8.74,8.74,0,0,1-1.55-.7A18.11,18.11,0,0,0,33,28.64a1.68,1.68,0,1,0,1.88,2.6,21,21,0,0,0,1.85,1.94A1.4,1.4,0,0,0,37.91,32.12Z"/><path class="cls-1" d="M19,15.06l.88,0a10.58,10.58,0,0,1-.34-2.69A10.79,10.79,0,0,1,28.2,1.88,2.37,2.37,0,0,0,29,0h-.07A12.53,12.53,0,0,0,17.77,12.4a12.12,12.12,0,0,0,.31,2.8A3.77,3.77,0,0,1,19,15.06Z"/><path class="cls-3" d="M39.57,0H29a2.15,2.15,0,0,1-1,2.07,5.24,5.24,0,0,0,3.94,2.13C34.73,4.21,37.75.54,39.57,0Z"/><path class="cls-3" d="M106.5,21.22s6.07-1.49,4.49-10.67c0,0,2.62.66,2.62-2a1.91,1.91,0,0,0-2.13-1.91c-.55,0-3,.05-3,4.32,0,2.68-5.19,1.86-5.19,5.31,0,1.86,2.19,2.24,2.19,2.24-1.42,2.35-8.15,1-8.15-5.36,0-2.24,2-4.49,2-4.49a3.48,3.48,0,0,0,3.39,2.24c1.91,0,2.62-1.75,2.62-3.06,0-2.46-2.79-2.84-2.79-2.84A11.53,11.53,0,0,1,111,1.62c3.27,0,4.38.12,4.38.12s-.93,2.19-.06,3.28,2.73,2.9,1.21,4.81c0,0,5.41,1.31,6.35-4.43,0,0,3.55.05,5.14-1.69A49.37,49.37,0,0,1,132,0h-6.87c-.08,1.06-1.84,1.64-3.6,1.64C119.9,1.64,118.2.33,117.1,0h-9.61c-1.94.27-4.63,1.42-7.83,4.86C96.74,8,92.55,14.6,84.29,14.6S69.63,7.71,69.63,7.71,63.67.76,56.23,0H54.32C53,.34,52.95,1.8,51.25,1.8A2.26,2.26,0,0,1,49,0h-5.8c3.23,2.67,3.71,6.3,7.37,6.3a6.11,6.11,0,0,0,2.51-.68c1.26,1.63,4.4,1.09,4.61-1a2.42,2.42,0,0,0-1-2.3C58.09,2.3,61.29.84,69.4,12.92a8.75,8.75,0,0,0-1.63,5.25s5.25-.91,7.54,1.45a4.44,4.44,0,0,0,.91-3.8c4.4,1.3,14.2,1.85,19.23-3.4,0,0-.59,7.06,6.13,9.86a5.1,5.1,0,0,1,2.19,3.92S106.5,25.37,106.5,21.22Z"/><path class="cls-1" d="M64.37,19.47c.61-7.6,5.9-18.89,17.29-18C80.61,7,86.86,5,89.84,8.38a4.09,4.09,0,0,0,2.9-3.9c2.17,0,4.19-1.41,6.69-4.49h-7.7c-.45.35-2.19,1.91-3.94,1.91A3.1,3.1,0,0,1,85.09,0H76.7c-2.61.54-8.95,4.12-11.77,9.46,0,0-2.08-2.52-4.81-2.52,0,0-2,.88-2,5.25a9.25,9.25,0,0,0-5.58-1.09,2.41,2.41,0,0,1-.27,1.47c3.4-.4,9.84,2.71,9.84,8.49a7.31,7.31,0,0,1,2,1.73Zm-3.89-4.9c-1.55-1.86.79-4.19,2.32-2.64s1,4.61.17,6.77A18.1,18.1,0,0,0,60.47,14.57Z"/><path class="cls-2" d="M112.63,0h-5.45c.1,2,1.28,3.49,2.72,3.49S112.52,2,112.63,0Z"/><path class="cls-1" d="M91.49,17.13c0-4.89-5.56-8.71-11.69-8.24A9.53,9.53,0,0,0,74.64,0h-5a5.18,5.18,0,0,0-3.25,2c2.56-.49,9.27-.15,9.27,6.16a25.67,25.67,0,0,1-.54,3.7A20.91,20.91,0,0,0,77.43,13c1.15-1.45,6.59-4.27,10.16.76.2.27.3.52,0,.63s-.47-.2-.6-.49a2.73,2.73,0,0,0-2.64-1.78c-1.93,0-3.24.84-3.24,3,0,3.61,6.65,3.88,6.65,7.3a4,4,0,0,1-.33,1.34S91.49,23,91.49,17.13Z"/><path class="cls-1" d="M32,12.15a15.08,15.08,0,0,0-1.2,3,13.67,13.67,0,0,0,1.63.24,24.44,24.44,0,0,1,6.47-9.65,8.52,8.52,0,0,0-.84-1.1,9.19,9.19,0,0,1-5.87,2.49c-7,0-7-6.92-17.43-6.92-3.08,0-3.25,1.63-4.88,1.63C8.47,1.85,7.36.35,7.12,0H0C2.47.89,3.6,4.46,8.26,4.46c0,5.47,2.5,7.83,7.23,7.83,1,0,5.14-1.22,6.87-.48,0-6.19-4.46-8.12-7.53-6.46a5.9,5.9,0,0,1,.46,1.93,2,2,0,0,1-1.87,2.06A2.71,2.71,0,0,1,10.68,6.5c0-2,2.34-4.47,5.2-4.47C24.42,2,23.44,12.15,32,12.15Z"/><path class="cls-1" d="M164.27,6.84c0-1,1.69-1.46,1.69-3.47A3.57,3.57,0,0,0,162.88,0h-5.4l4.46.2a3.78,3.78,0,0,1,3.58,3.17,1.53,1.53,0,0,1-.41,1.14,1.36,1.36,0,0,0-1.31-1.09,1.1,1.1,0,0,0-1,1.11c0,1.25,1.43,1.43,1.43,1.43a1.6,1.6,0,0,0-.44,1.1,1.32,1.32,0,0,0,.67,1.05A6.2,6.2,0,0,1,164.27,6.84Z"/><path class="cls-1" d="M156.84,0h-3.6a.82.82,0,0,1-.72.6c-.84,0-.82-.46-2.21-.6h-1.67C144.26.33,143,3.14,143,3.14A17.16,17.16,0,0,0,136.63,0H132.9c5.4.47,10.89,6,10.89,6,0-4.22,4.2-5.16,5.41-5.34a.82.82,0,0,0-.61.88,1.05,1.05,0,0,0,1.18,1c1.12,0,1.26-.69,1-1.06A2.23,2.23,0,0,0,152,2C153.76,2,153.63.31,156.84,0Z"/><path class="cls-1" d="M172,4.59V.16h.33V4.59a2.33,2.33,0,0,1,.92-1.28h-.54V.16h.53a.18.18,0,0,0,.14.1,4.19,4.19,0,0,1,2.47,1.53,2.39,2.39,0,0,1,.32,1.56c0-.2-.67-.49-1.1-.07a.72.72,0,0,0-.19.64.84.84,0,0,0,.74.67A.87.87,0,0,0,176.5,4h0a3,3,0,0,0-.37-2.45A3.81,3.81,0,0,0,174.3.16h2.92a.44.44,0,0,0-.12.52c.5.87,1.23-.4,1.29-.52h.95a3,3,0,0,1,1.29,1c-.25.15-.38-.14-.38-.14-.25-.35-.71.2-.54.5.34.59.78.2,1.05-.14A2.26,2.26,0,0,1,181,2.72s2-.74,1-2a1.17,1.17,0,0,0,1.09-.61h.25a.1.1,0,0,0,0,0l1.41,1.66a.26.26,0,0,1,.05.28.27.27,0,0,1-.24.13h0a.4.4,0,0,1-.18-.08.29.29,0,0,1,.08-.11.19.19,0,1,0-.27-.27.49.49,0,0,0-.18.49c.08.26.41.34.48.35h0a.64.64,0,0,0,.63-.32.63.63,0,0,0-.08-.7h0L183.8.16h22.53a.19.19,0,0,0,.18-.16H165.43c1.79,1,2,3.77,2,3.77,1.36-2.78,2.18-3.36,3-3.61h1.18V3.33h-.54A2.33,2.33,0,0,1,172,4.59Zm6.2-4.44c-.35.43-.56,0-.56,0v0Z"/></g></g></svg>