<svg xmlns="http://www.w3.org/2000/svg" viewBox="0 0 155.42 34.13"><defs><style>.cls-1{fill:#9b7d00;}.cls-2{fill:#ffd000;}.cls-3{fill:#ebbd00;}</style></defs><title>GolGold2</title><g id="Layer_2" data-name="Layer 2"><g id="Layer_1-2" data-name="Layer 1"><path class="cls-1" d="M81.68,26a8.5,8.5,0,0,1-.8,1.27,10.86,10.86,0,0,1-1.38-4.83c0-7.31,4.79-11.6,11.29-11.6,6.24,0,9.18,6.61,14.69,3.89l-1.28,1.51a4.56,4.56,0,0,1-6.38,1c0,1.55-2,2.35-2,2.35-.88-2.57-4.61-2.48-4.61-4.83,0-1.68,1.59-1.77,2.75-1.24a4.79,4.79,0,0,0-3.05-1.24,9.7,9.7,0,0,0-6.32,2,1.83,1.83,0,0,1,1.56,2.33,1.8,1.8,0,0,1-1.25,1.25,1.83,1.83,0,0,1-2.27-1.3,12.15,12.15,0,0,0-1.63,6A9.08,9.08,0,0,0,81.68,26Z"/><path class="cls-1" d="M82.68,27.89a11.43,11.43,0,0,0,2.54,2.85,3.87,3.87,0,0,0-.82.18,5.64,5.64,0,0,0-.76.34,18,18,0,0,1-1.82-2.38Z"/><path class="cls-1" d="M131,15.29c7.25-.12,12.3,5,14.63,7.34-2.24-.72-3.74.14-4.5.14-2.53,0-3.42-.68-3.42-1.94a2.52,2.52,0,0,1,.63-1.8c-2.12-1.71-5.45-2.21-7.21-2.21-7,0-9.32,5.92-11.71,7.41a3.05,3.05,0,0,0-.83-1,3.73,3.73,0,0,0,1.63-3c0-2.93-1.89-3.37-1.89-3.37a2.17,2.17,0,0,0-3,1.86c0,2.41,2.79,4.13,2.79,4.13a2.89,2.89,0,0,1,1.53,2.67,1.91,1.91,0,1,1-3.82,0,2,2,0,0,1,.77-1.56S112,23.57,112,18.87c-5.66,1.12-7.07-7.79-9.52-7.79-.22,0-.68-.06-.68.18s1.36-.12,1.36,1.37c0,1.16-1.11,1.38-1.66,1.38s-1.87-.25-1.87-2.36,2.08-2.62,3.43-2.42c4.67.69,6.09,6.16,10.81,6.16a22.11,22.11,0,0,1,2.81-.46c1.22,0,5.09,1.15,5.09,4.68A13.58,13.58,0,0,1,131,15.29Z"/><path class="cls-1" d="M127.7,32.78c-2.2-1.27-5.34-6-7.15-3.33-.87-1.16-.87-4.7,3.29-3.51,1.77-3.7,1.48-13.17-6.21-13.17-2.84,0-4.28,1.07-5.19,2.27,1.36-3.5,5.47-3.66,6.58-3.66s9.14,1.07,9.14,8.31a7.62,7.62,0,0,1,5.93,1.93,1.38,1.38,0,0,1-.7-1.16c0-.79.71-1.35,1.72-1.35a1.82,1.82,0,0,1,1.83,1.8A2,2,0,0,1,134.82,23c-2.12,0-2.43-.57-4.59-.57-2.38,0-1.55,2.72-3.43,2.72a2,2,0,0,1-1.4-.66,6.53,6.53,0,0,0,3.16,7.6C128.16,32.41,127.7,32.78,127.7,32.78Z"/><path class="cls-1" d="M108.35,12.45a12.31,12.31,0,0,1,5.9-6.19,10.05,10.05,0,0,1,3.88-.93,4.19,4.19,0,0,1,.25-4.24A2.78,2.78,0,0,1,121,0a1.9,1.9,0,0,1,1.76,1.87A1.82,1.82,0,0,1,121,3.75a1.94,1.94,0,0,1-1.83-1.51,1.5,1.5,0,0,0-.45,1,2.5,2.5,0,0,0,2,2.37,4.8,4.8,0,0,0,.15,1.36,7.05,7.05,0,0,0-3.59-.25A1.39,1.39,0,0,1,118,8c0,3.37-6,1.19-8.41,5.58C109.17,13.25,108.35,12.45,108.35,12.45Z"/><path class="cls-1" d="M125.08,30.62a12.93,12.93,0,0,1-3.73,1.83s.34.45.72.86a16.25,16.25,0,0,0,3.82-1.94Z"/><path class="cls-2" d="M101,9.48a10.55,10.55,0,0,0-5.42,0c.62.74.87,2.06,4,2.06A2.25,2.25,0,0,1,101,9.48Z"/><path class="cls-2" d="M127.4,11.09c-1.53,1.7-2.9-.41-4.45.34a1.56,1.56,0,0,0-.73.88c-.52-1.07-1.48-2.07-.07-3.5a3.66,3.66,0,0,1-1.43-3.34,3.55,3.55,0,0,1,3.61-.14c.66-1.9,2-1.47,3.18-1.47a1.55,1.55,0,0,0-.48,1c0,1.75,2.54,2.16,1.49,4.44a1,1,0,1,0-1.12,1.75Z"/><path class="cls-1" d="M126.89,10A13.84,13.84,0,0,1,131.42,20a6.58,6.58,0,0,1,1.17.52,13.63,13.63,0,0,0-2-8,1.26,1.26,0,1,0-1.41-2,15.79,15.79,0,0,0-1.39-1.46A1.05,1.05,0,0,0,126.89,10Z"/><path class="cls-1" d="M141.14,22.79l-.66,0a8,8,0,0,1,.25,2,8.12,8.12,0,0,1-6.54,7.92,1.78,1.78,0,0,0-.57,1.41h.05A9.43,9.43,0,0,0,142,24.79a9.12,9.12,0,0,0-.24-2.11A2.84,2.84,0,0,1,141.14,22.79Z"/><path class="cls-3" d="M125.64,34.13h8a1.62,1.62,0,0,1,.78-1.56,3.94,3.94,0,0,0-3-1.61C129.28,31,127,33.72,125.64,34.13Z"/><path class="cls-3" d="M75.27,18.16s-4.57,1.12-3.38,8c0,0-2-.49-2,1.48a1.44,1.44,0,0,0,1.61,1.44c.41,0,2.27,0,2.27-3.25,0-2,3.91-1.4,3.91-4,0-1.4-1.65-1.69-1.65-1.69,1.07-1.77,6.13-.78,6.13,4a6.11,6.11,0,0,1-1.52,3.38,2.62,2.62,0,0,0-2.55-1.69,2.09,2.09,0,0,0-2,2.31c0,1.85,2.1,2.14,2.1,2.14a8.68,8.68,0,0,1-6.38,2.56c-2.46,0-3.29-.09-3.29-.09s.7-1.65,0-2.47-2.06-2.18-.91-3.62a3.81,3.81,0,0,0-4.78,3.33s-2.67,0-3.87,1.28a37.15,37.15,0,0,1-2.94,2.8h5.17c.06-.8,1.38-1.23,2.71-1.23s2.47,1,3.3,1.23h7.23c1.46-.2,3.48-1.07,5.89-3.66,2.2-2.37,5.35-7.33,11.57-7.33s11,5.19,11,5.19,4.49,5.23,10.09,5.8h1.43c1-.25,1-1.35,2.31-1.35a1.7,1.7,0,0,1,1.67,1.35h4.37c-2.43-2-2.79-4.74-5.55-4.74a4.6,4.6,0,0,0-1.89.51c-.95-1.23-3.31-.82-3.47.72a1.82,1.82,0,0,0,.78,1.73c-1.06,0-3.47,1.14-9.57-7.95a6.59,6.59,0,0,0,1.23-4s-3.95.68-5.68-1.09a3.35,3.35,0,0,0-.68,2.86c-3.31-1-10.68-1.39-14.47,2.56A7.6,7.6,0,0,0,79,17.36a3.84,3.84,0,0,1-1.65-3S75.27,15,75.27,18.16Z"/><path class="cls-1" d="M107,19.48C106.52,25.2,102.53,33.7,94,33c.8-4.2-3.91-2.67-6.16-5.22a3.08,3.08,0,0,0-2.18,2.93c-1.64,0-3.16,1.06-5,3.38h5.8a5.41,5.41,0,0,1,3-1.44,2.33,2.33,0,0,1,2,1.44H97.7A16,16,0,0,0,106.55,27a5.4,5.4,0,0,0,3.62,1.89s1.48-.66,1.48-4a7,7,0,0,0,4.2.82,1.81,1.81,0,0,1,.2-1.1c-2.56.3-7.4-2-7.4-6.39a5.5,5.5,0,0,1-1.48-1.3Zm2.93,3.69c1.17,1.4-.59,3.15-1.75,2s-.72-3.47-.13-5.1A13.63,13.63,0,0,0,109.91,23.16Z"/><path class="cls-2" d="M70.65,34.13h4.1c-.08-1.51-1-2.63-2.05-2.63S70.73,32.66,70.65,34.13Z"/><path class="cls-1" d="M86.57,21.24c0,3.68,4.18,6.56,8.8,6.2a7.17,7.17,0,0,0,3.88,6.69H103a3.9,3.9,0,0,0,2.44-1.5c-1.93.37-7,.11-7-4.64a19.32,19.32,0,0,1,.41-2.78,15.74,15.74,0,0,0-1.78-.89c-.87,1.09-5,3.21-7.65-.57-.15-.2-.23-.39,0-.47s.35.15.45.37a2.05,2.05,0,0,0,2,1.34c1.45,0,2.44-.63,2.44-2.26,0-2.72-5-2.92-5-5.5a3,3,0,0,1,.25-1S86.57,16.79,86.57,21.24Z"/><path class="cls-1" d="M131.31,25a11.35,11.35,0,0,0,.91-2.27,10.29,10.29,0,0,0-1.23-.18,18.4,18.4,0,0,1-4.87,7.26,6.41,6.41,0,0,0,.63.83,6.92,6.92,0,0,1,4.42-1.87c5.27,0,5.28,5.21,13.12,5.21,2.32,0,2.45-1.23,3.67-1.23a3,3,0,0,1,2.1,1.39h5.36c-1.86-.67-2.71-3.36-6.22-3.36,0-4.12-1.88-5.9-5.44-5.9-.75,0-3.87.92-5.17.36,0,4.66,3.36,6.11,5.67,4.86a4.44,4.44,0,0,1-.35-1.45,1.53,1.53,0,0,1,1.41-1.55,2,2,0,0,1,2.05,2.15c0,1.51-1.76,3.37-3.92,3.37C137,32.61,137.78,25,131.31,25Z"/><path class="cls-1" d="M31.79,29c0,.75-1.27,1.1-1.27,2.61a2.69,2.69,0,0,0,2.32,2.54H36.9L33.54,34a2.84,2.84,0,0,1-2.69-2.39,1.15,1.15,0,0,1,.31-.86,1,1,0,0,0,1,.82.83.83,0,0,0,.77-.84c0-.94-1.08-1.07-1.08-1.07a1.2,1.2,0,0,0,.33-.83,1,1,0,0,0-.5-.79A4.66,4.66,0,0,1,31.79,29Z"/><path class="cls-1" d="M37.39,34.13h2.71a.61.61,0,0,1,.54-.45c.63,0,.62.35,1.66.45h1.25c3.3-.25,4.25-2.36,4.25-2.36a12.92,12.92,0,0,0,4.79,2.36H55.4c-4.06-.36-8.2-4.53-8.2-4.53,0,3.17-3.16,3.88-4.07,4A.61.61,0,0,0,43.6,33a.79.79,0,0,0-.89-.74c-.85,0-.95.52-.74.8a1.68,1.68,0,0,0-.92-.37C39.7,32.64,39.8,33.9,37.39,34.13Z"/><path class="cls-1" d="M26,30.67V34h-.25V30.67a1.76,1.76,0,0,1-.69,1h.41V34h-.4a.14.14,0,0,0-.1-.08,3.15,3.15,0,0,1-1.86-1.15,1.8,1.8,0,0,1-.24-1.17c0,.15.5.37.83.05a.54.54,0,0,0,.15-.48.63.63,0,0,0-.56-.51.65.65,0,0,0-.69.41h0a2.27,2.27,0,0,0,.28,1.84A2.87,2.87,0,0,0,24.24,34H22a.33.33,0,0,0,.09-.39c-.37-.65-.92.3-1,.39h-.71a2.26,2.26,0,0,1-1-.76c.19-.11.29.11.29.11.19.26.54-.15.41-.38-.26-.44-.59-.15-.79.1a1.7,1.7,0,0,1-.18-1s-1.52.56-.74,1.47a.88.88,0,0,0-.82.46h-.19l0,0-1.06-1.25a.2.2,0,0,1,0-.21.2.2,0,0,1,.18-.1h0a.3.3,0,0,1,.13.06.21.21,0,0,1-.06.09.14.14,0,0,0,.2.2.37.37,0,0,0,.13-.37c-.06-.2-.31-.25-.36-.26h0a.46.46,0,0,0-.41.77h0l.93,1.1H.14a.14.14,0,0,0-.14.12H30.92c-1.35-.74-1.53-2.83-1.53-2.83-1,2.09-1.64,2.53-2.23,2.72h-.89V31.62h.41A1.75,1.75,0,0,1,26,30.67ZM21.32,34c.26-.32.42,0,.42,0h-.42Z"/></g></g></svg>