<svg xmlns="http://www.w3.org/2000/svg" viewBox="0 0 122.91 101.2"><defs><style>.cls-1{fill:#00677f;}</style></defs><title>Logo</title><g id="Layer_2" data-name="Layer 2"><g id="Layer_20" data-name="Layer 20"><path class="cls-1" d="M122.91,85.88a6.32,6.32,0,0,1-.12,1q-.12.68-.24,1.19l-.29,1.19q-.24.68-.39,1a7.56,7.56,0,0,1-.4.75,1.82,1.82,0,0,1-.38.45,4.29,4.29,0,0,1-.65.4l-.87.36a4.59,4.59,0,0,1-.57.15,3.75,3.75,0,0,1-.57.1c-.08,0-.13,0-.15-.08a.27.27,0,0,1,0-.21,2.52,2.52,0,0,1,.62-.61l1-.75q.56-.51.82-.8a5.45,5.45,0,0,0,.73-1,3.23,3.23,0,0,0,.21-.5l.42-1.22.29-.87c0-.13.08-.29.15-.47s.15-.28.24-.28A.54.54,0,0,1,122.91,85.88Z"/><path class="cls-1" d="M116.67,89.11l-.34.9a5.34,5.34,0,0,1-.52.91,2.41,2.41,0,0,1-.5.56,3.65,3.65,0,0,1-.73.33l-.51.19-.78.27a3.23,3.23,0,0,1-.78.17l-.1,0q0-.17.87-.73l.94-.68q.24-.17.53-.41a6.1,6.1,0,0,0,.62-.61,2,2,0,0,0,.45-.75.65.65,0,0,1,0-.15l-.63,0a1,1,0,0,1-.73-.28.69.69,0,0,1-.24-.62,2.17,2.17,0,0,1,.12-.46q.1-.27.44-1a5.63,5.63,0,0,1,.44-.78q.31-.44.61-.44a1.1,1.1,0,0,1,.85.41,1.45,1.45,0,0,1,.36,1,3.53,3.53,0,0,1,0,.58l-.08.51q0,.22-.11.52A3,3,0,0,1,116.67,89.11Z"/><path class="cls-1" d="M110.88,85.88a6.32,6.32,0,0,1-.12,1q-.12.68-.24,1.19l-.29,1.19q-.24.68-.39,1a7.56,7.56,0,0,1-.4.75,1.82,1.82,0,0,1-.38.45,4.29,4.29,0,0,1-.65.4l-.87.36a4.59,4.59,0,0,1-.57.15,3.75,3.75,0,0,1-.57.1c-.08,0-.13,0-.15-.08a.27.27,0,0,1,0-.21,2.52,2.52,0,0,1,.62-.61l1-.75q.56-.51.82-.8a5.45,5.45,0,0,0,.73-1,3.23,3.23,0,0,0,.21-.5l.42-1.22.29-.87c0-.13.08-.29.15-.47s.15-.28.24-.28A.54.54,0,0,1,110.88,85.88Z"/><path class="cls-1" d="M111.18,77.37a1.07,1.07,0,0,1,0,.52,3.85,3.85,0,0,1-.27.63,2.32,2.32,0,0,1-.5.64.53.53,0,0,1-.32.19s-.16-.07-.33-.22l-.46-.38a3.48,3.48,0,0,1-.35-.3.4.4,0,0,1-.15-.24l.22-.48q.24-.53.36-.78l.44-.75.15-.22.15.12.19.12a4.67,4.67,0,0,1,.68.63A1.12,1.12,0,0,1,111.18,77.37Z"/><path class="cls-1" d="M103.24,88v.36a1.6,1.6,0,0,0,.53,1.38,1.28,1.28,0,0,0,.75.22q.34,0,.61-.75l.11-.39c0-.15.09-.22.16-.22s.12.08.12.24a1.71,1.71,0,0,1,0,.29l-.06.32a7.32,7.32,0,0,1-.8,2.22q-.48.79-1,.79a1.1,1.1,0,0,1-1.1-.73,4.83,4.83,0,0,1-.3-1.84Z"/><path class="cls-1" d="M104.85,76.39a1.07,1.07,0,0,1,0,.52,3.85,3.85,0,0,1-.27.63,2.32,2.32,0,0,1-.5.64.53.53,0,0,1-.32.19s-.16-.07-.33-.22l-.46-.38a3.48,3.48,0,0,1-.35-.3.4.4,0,0,1-.15-.24l.22-.48q.24-.53.36-.78l.44-.75.15-.22.15.12.19.12a4.67,4.67,0,0,1,.68.63A1.12,1.12,0,0,1,104.85,76.39Z"/><path class="cls-1" d="M103.24,88l-.39,1.24q-.27.66-.63.66,0-.29.27-2.54t.44-3.43.39-1q.36-.9.58-1.36l.1,0a1.2,1.2,0,0,1,0,.39l-.1.63-.41,3q-.12.9-.17,1.55T103.24,88Z"/><path class="cls-1" d="M92.23,90.69a6.26,6.26,0,0,1,.95-.7,2.5,2.5,0,0,1,1.19-.44,1.3,1.3,0,0,1,.48.1,2.5,2.5,0,0,0,.92.22,1.94,1.94,0,0,0,1.31-.44,5.15,5.15,0,0,0,.82-1.09,7.77,7.77,0,0,1,.58-.7,2.74,2.74,0,0,1,.61-.51,4.2,4.2,0,0,0,.41-.53l.34-.53q.17,0,.59.67a2.36,2.36,0,0,1,.42,1.25,1.59,1.59,0,0,1-.38,1,1,1,0,0,1-.76.47,2.71,2.71,0,0,1-.61-.07,2.3,2.3,0,0,0-.46-.07q-.36,0-.92.61-.1.1-.78,1A6,6,0,0,1,96,92a2.56,2.56,0,0,1-1.55.46,2.29,2.29,0,0,1-.95-.22,2.06,2.06,0,0,0-.8-.22,2,2,0,0,0-1.07.36,7.82,7.82,0,0,1-1.16.7l.46-.95A11.18,11.18,0,0,1,92.23,90.69Z"/><path class="cls-1" d="M90.07,85.88a6.32,6.32,0,0,1-.12,1q-.12.68-.24,1.19l-.29,1.19q-.24.68-.39,1a7.56,7.56,0,0,1-.4.75,1.82,1.82,0,0,1-.38.45,4.29,4.29,0,0,1-.65.4l-.87.36a4.59,4.59,0,0,1-.57.15,3.75,3.75,0,0,1-.57.1c-.08,0-.13,0-.15-.08a.27.27,0,0,1,0-.21,2.52,2.52,0,0,1,.62-.61l1-.75q.56-.51.82-.8a5.45,5.45,0,0,0,.73-1,3.23,3.23,0,0,0,.21-.5l.42-1.22.29-.87c0-.13.08-.29.15-.47s.15-.28.24-.28A.54.54,0,0,1,90.07,85.88Z"/><path class="cls-1" d="M82.79,86q.22-.48.5-1a4.83,4.83,0,0,1,.68-.91,3.19,3.19,0,0,1,.81-.64,1.53,1.53,0,0,1,.65-.22,1.55,1.55,0,0,0,.46.1.75.75,0,0,0,.31-.1,1.4,1.4,0,0,0,.5-.52,1.43,1.43,0,0,1,.21-.33l.19,0q.27,0,.46-.52a2.74,2.74,0,0,1,.22-.52.1.1,0,0,1,.12,0,.3.3,0,0,1,0,.17,2.89,2.89,0,0,1-.23,1.18,1.92,1.92,0,0,1-.55.76,1.1,1.1,0,0,1-.27.17l-.22.1-.39.46a1.85,1.85,0,0,1-.42.33.77.77,0,0,1-.33.11l-.68-.1a1.59,1.59,0,0,0-.74.3.7.7,0,0,0-.35.55Z"/><path class="cls-1" d="M80.92,92.77q0-.17-.29-.44l-.58-.41a3,3,0,0,1-.63-.57,1.21,1.21,0,0,1-.22-.76,2.6,2.6,0,0,1,.1-.66,3.63,3.63,0,0,1,.41-.89,8.57,8.57,0,0,1,.53-.8,8.17,8.17,0,0,1,.63-.69,9.13,9.13,0,0,1,.92-.8,5.69,5.69,0,0,1,.7-.46.75.75,0,0,0,.28-.27,1.88,1.88,0,0,1,.42-.41.64.64,0,0,1,.29-.19.35.35,0,0,1,.18,0l.11,0a.48.48,0,0,0,.16.32l.23.27.36.39a.56.56,0,0,1,.1.32,1.23,1.23,0,0,1-.38.76,1,1,0,0,1-.67.42.59.59,0,0,1-.27-.1,1.6,1.6,0,0,0-.73-.22,2.44,2.44,0,0,0-.58.06,2.55,2.55,0,0,0-.55.22,2.44,2.44,0,0,0-.59.45.8.8,0,0,0-.29.48.38.38,0,0,0,.08.19.83.83,0,0,0,.18.19l.7.53a1.69,1.69,0,0,1,.39.53,1.37,1.37,0,0,1,.1.51,8.6,8.6,0,0,1-.46,2.11,11,11,0,0,1-1.33,3,6.1,6.1,0,0,1-.73.87,7.12,7.12,0,0,1-1.09.9,4.14,4.14,0,0,1-2.35.68,2.57,2.57,0,0,1-2.28-1,3.21,3.21,0,0,1-.51-1.08,4.37,4.37,0,0,1-.15-1.08,8.21,8.21,0,0,1,.1-1.27,9,9,0,0,1,.29-1.25,16,16,0,0,1,.75-2l.7-1.53L75.54,88q.17-.34.38-.69c.14-.23.23-.35.28-.35s.09.09.07.27a2.3,2.3,0,0,1-.17.63l-.63,1.43q-.15.29-.44,1l-.29.68a8.71,8.71,0,0,0-.7,2.77,1.89,1.89,0,0,0,.69,1.54,3,3,0,0,0,2,.57,4.45,4.45,0,0,0,2-.49,4.33,4.33,0,0,0,1.21-.87,5.31,5.31,0,0,0,.63-.86A2.72,2.72,0,0,0,80.92,92.77Z"/><path class="cls-1" d="M70.77,83.46l.58-1a5.11,5.11,0,0,1,.9-.87,7.7,7.7,0,0,1,1.53-.75l.46-.22a8.21,8.21,0,0,0-.85-.19,6.27,6.27,0,0,0-1-.15,1.21,1.21,0,0,0-.59.11,2.88,2.88,0,0,0-.52.47.84.84,0,0,1-.19.11H71q-.12-.12.27-.65a5,5,0,0,1,.61-.73A1.65,1.65,0,0,1,73,79.22a6.44,6.44,0,0,1,.79.06q.47.06,1.3.25a1.39,1.39,0,0,1,.52.15q.33.15.33.39,0,.58-.87,1.07a11.38,11.38,0,0,1-1.7.73,9,9,0,0,0-.93.39,2.46,2.46,0,0,0-.42.27.6.6,0,0,0-.24.41Z"/><path class="cls-1" d="M71.93,94.36a1.07,1.07,0,0,1,0,.52,3.85,3.85,0,0,1-.27.63,2.32,2.32,0,0,1-.5.64.53.53,0,0,1-.32.19s-.16-.07-.33-.22L70,95.75a3.48,3.48,0,0,1-.35-.3.4.4,0,0,1-.15-.24l.22-.48q.24-.53.36-.78l.44-.75.15-.22.15.12.19.12a4.67,4.67,0,0,1,.68.63A1.12,1.12,0,0,1,71.93,94.36Z"/><path class="cls-1" d="M70.77,83.45l.41-.39a.45.45,0,0,1,.27-.1l.31,0q.44.44.78.82a1.12,1.12,0,0,1,.34.68,1.24,1.24,0,0,1-.06.41,1.88,1.88,0,0,1-.23.41,1,1,0,0,1-.78.48l-.42-.08a2.51,2.51,0,0,0-.47-.08,1.62,1.62,0,0,0-1,.42,3,3,0,0,0-.85,1.08L69,86.14l.31-.53a6,6,0,0,1,.39-.53l.73-.89a1.69,1.69,0,0,0,.17-.25Z"/><path class="cls-1" d="M69.1,87.08l-.29.65-.44,1.21-.16.35a.23.23,0,0,1-.25.16.64.64,0,0,1,0-.31q.1-.46.16-.79a3.07,3.07,0,0,0,.06-.45,1.15,1.15,0,0,0-.25-.76.91.91,0,0,0-.74-.3q-.32,0-.8.61t-.68.8l-.48.51-.51.41.22-1.77a.19.19,0,0,0,.12,0l.19,0a.78.78,0,0,0,.46-.18,3.49,3.49,0,0,0,.48-.45l.73-1a1.32,1.32,0,0,1,1-.53,1,1,0,0,1,.78.39q.27.46.33.55l.12.19a.44.44,0,0,1,.06.21c0,.1,0,.19,0,.27S69.12,87,69.1,87.08Z"/><path class="cls-1" d="M64.81,89.35c0,.13-.09.24-.13.33a4.35,4.35,0,0,1-.24.42q-.18.29-.4.61a2.76,2.76,0,0,1-.63.76,3.46,3.46,0,0,1-.63.28l-.85.29-1.31.34-.33,0c-.12,0-.19,0-.21,0s.06-.1.23-.21l.32-.19.91-.55a10.09,10.09,0,0,0,.92-.61,9,9,0,0,0,1.16-1,1.28,1.28,0,0,0,.44-.78,1.26,1.26,0,0,1-.28.07l-.38,0a1.88,1.88,0,0,1-.7-.24.72.72,0,0,1-.39-.63,5.17,5.17,0,0,1,.53-1.43,2.46,2.46,0,0,1,.41-.68q.36-.46.65-.46a1.12,1.12,0,0,1,.82.34,1.38,1.38,0,0,1,.44.95,4.23,4.23,0,0,1,0,.53q0,.27,0,.5a2.11,2.11,0,0,1-.07.45q-.06.22-.12.4A3.34,3.34,0,0,1,64.81,89.35Z"/><path class="cls-1" d="M60.82,85.88a6.39,6.39,0,0,1-.12,1q-.12.68-.24,1.19l-.29,1.19q-.24.68-.39,1a7.44,7.44,0,0,1-.4.75,1.8,1.8,0,0,1-.38.45,4.26,4.26,0,0,1-.65.4l-.87.36a4.59,4.59,0,0,1-.57.15,3.77,3.77,0,0,1-.57.1c-.08,0-.13,0-.15-.08a.27.27,0,0,1,0-.21,2.52,2.52,0,0,1,.62-.61l1-.75q.56-.51.82-.8a5.47,5.47,0,0,0,.73-1,3.23,3.23,0,0,0,.21-.5L60,87.27l.29-.87q0-.19.15-.47c.06-.19.15-.28.24-.28A.54.54,0,0,1,60.82,85.88Z"/><path class="cls-1" d="M58.2,84a3.53,3.53,0,0,1-.15.57q-.1.28-.33.78t-.28.57c-.13.19-.24.29-.34.29l-.18-.13a.28.28,0,0,0-.16-.06,1.88,1.88,0,0,0-.78.24A4.2,4.2,0,0,0,55,87a6.57,6.57,0,0,0-1,1,1.51,1.51,0,0,0-.33.63.68.68,0,0,0,.17.41l.44.22.3.12a.91.91,0,0,1,.25.15,1.22,1.22,0,0,1,.39,1.07,10.33,10.33,0,0,1-1.5,5,8.59,8.59,0,0,1-.8,1,5.31,5.31,0,0,1-1,.82,4.14,4.14,0,0,1-2.35.68,2.54,2.54,0,0,1-2.25-1A3.21,3.21,0,0,1,46.83,96a4.37,4.37,0,0,1-.15-1.08,8.15,8.15,0,0,1,.1-1.27,8.83,8.83,0,0,1,.29-1.25,16,16,0,0,1,.75-2l.7-1.53.56-1.19.21-.39c.07-.13.13-.19.18-.19s.17.07.17.22a.61.61,0,0,1,0,.27l-.23.59q-.09.23-.35.79-.15.29-.44,1l-.29.68a8.7,8.7,0,0,0-.7,2.77A1.89,1.89,0,0,0,48.27,95a3,3,0,0,0,2,.57,4.45,4.45,0,0,0,2-.48,4.2,4.2,0,0,0,1.21-.89,5.12,5.12,0,0,0,.74-1,1.75,1.75,0,0,0,.25-.82q0-.22-.34-.33l-.48-.15a1.67,1.67,0,0,1-.34-.13,1.4,1.4,0,0,1-.56-.44,1.21,1.21,0,0,1-.19-.73A4.78,4.78,0,0,1,53,88.81a9.36,9.36,0,0,1,1.28-2.12,14.21,14.21,0,0,1,1.24-1.38q.29-.27.75-.62a7.45,7.45,0,0,1,.9-.59,2.64,2.64,0,0,1,.85-.36.53.53,0,0,1,.17.15A.21.21,0,0,1,58.2,84Z"/><path class="cls-1" d="M47.33,83.31a3.64,3.64,0,0,1,.22-.36.7.7,0,0,1,.12-.15.42.42,0,0,1,.07.19l-.12.82-.15,1.36-.27,2.16a8.9,8.9,0,0,1-.23,1.2,9.52,9.52,0,0,1-.35,1l-.56,1.16a9.25,9.25,0,0,1-.52.84q-.16.21-.28.21l-.07-.17q.19-.66.36-1.27t.24-1q.24-1.12.34-2t.17-1.54l.27-.75Z"/><path class="cls-1" d="M39.89,84.58q0,.32,0,.63A3.34,3.34,0,0,0,40,86a1.38,1.38,0,0,0,.47.61,1.41,1.41,0,0,0,.86.24,1.62,1.62,0,0,0,1.16-.41,3.57,3.57,0,0,1,.78-.61,1.09,1.09,0,0,1,.3,0H44a.53.53,0,0,0,.32-.07,1.19,1.19,0,0,0,.44-.53q0-.17.12-.36l.34,0a.42.42,0,0,0,.36-.27,4.69,4.69,0,0,0,.19-.5c.08-.23.15-.35.19-.35s.1.07.1.22a2.94,2.94,0,0,1-.47,1.56q-.47.76-1,.76-.31.46-.36.51a.84.84,0,0,1-.58.36,3,3,0,0,0-.46,0,1,1,0,0,0-.35.1,3.8,3.8,0,0,0-.9,1,1.85,1.85,0,0,1-1.44.87,1.27,1.27,0,0,1-1.22-.75,4,4,0,0,1-.38-1.82,8.59,8.59,0,0,1,.44-1.42q.24-.57.46-.57S39.84,84.51,39.89,84.58Z"/><path class="cls-1" d="M39.87,84.57q0,.46,0,1.13t0,.93A8.53,8.53,0,0,1,39.68,88a11.52,11.52,0,0,1-.25,1.21q-.11.36-.25.75a6.43,6.43,0,0,1-.46,1,4.81,4.81,0,0,1-.78,1,1.67,1.67,0,0,1-1.14.49,1.18,1.18,0,0,1-.59-.15,1.92,1.92,0,0,1-.47-.39l-.24-.19a.42.42,0,0,1-.17-.32.51.51,0,0,1,.11-.28l.25-.35a2.92,2.92,0,0,0,.18-.29,2.25,2.25,0,0,0,.19-.51,4.52,4.52,0,0,0,.12-.82q0-.51,0-.87v-.74q0-.38,0-.79a10,10,0,0,1,.32-2.38q.22-.87.73-2.35a.28.28,0,0,1,.06-.11l.06-.06s.07.15.07.44,0,.38,0,.7,0,.53,0,.61l-.17,3.08a9.33,9.33,0,0,1-.1,1.26,9,9,0,0,1-.29,1.36A6.37,6.37,0,0,1,36.07,91s.08,0,.19,0h.29a1.88,1.88,0,0,0,1.27-.57,3,3,0,0,0,.86-1.37,4.22,4.22,0,0,0,.12-.74q0-.5,0-.86,0-.58,0-1l0-.72q0-.73,0-1.48a7.67,7.67,0,0,1,.27-1.75A9.07,9.07,0,0,1,40,80.43c.06-.08.11-.11.15-.1s0,.15,0,.39,0,.44-.07.65a14.74,14.74,0,0,0-.12,1.48Z"/><path class="cls-1" d="M30.88,88.87c0,.13.15.28.46.46l.68.36a1.07,1.07,0,0,1,.4.42,1.32,1.32,0,0,1,.08.5v.29A7.22,7.22,0,0,1,32,93.35a11.62,11.62,0,0,1-1.16,2.38,5,5,0,0,1-4.17,2.38,2.3,2.3,0,0,1-2-1.07,4.87,4.87,0,0,1-.73-2.79,9,9,0,0,1,.53-2.77,25.43,25.43,0,0,1,1.09-2.67q.22-.46.41-.95.32-.7.44-.73,0,.24,0,.49a14.25,14.25,0,0,1-.58,1.58q-.7,1.67-.82,2.09a5.48,5.48,0,0,0-.27,1.5,2.88,2.88,0,0,0,.67,2,2.28,2.28,0,0,0,1.78.74,6,6,0,0,0,1.37-.15,4.28,4.28,0,0,0,1.22-.51A3.94,3.94,0,0,0,31,93.69a2.39,2.39,0,0,0,.51-1.19.35.35,0,0,0-.13-.28,7.4,7.4,0,0,0-.93-.5,1.22,1.22,0,0,1-.48-.39,1.37,1.37,0,0,1-.22-.8,3.57,3.57,0,0,1,.22-1,4.77,4.77,0,0,1,.57-1.19,11.85,11.85,0,0,1,.73-1,6.33,6.33,0,0,1,.76-.78,4.83,4.83,0,0,0,.51-.47.42.42,0,0,0,.12-.24s-.07-.11-.22-.19-.2-.18-.17-.29l.48-1.07.36-.7c.16-.26.32-.37.48-.34a3.14,3.14,0,0,1,1.22.46.86.86,0,0,1,.45.66,1.77,1.77,0,0,1-.41,1,2.67,2.67,0,0,1-.87.8l-1.12.63a7.06,7.06,0,0,0-1.12.8,6.72,6.72,0,0,0-.55.57A1.24,1.24,0,0,0,30.88,88.87Z"/><path class="cls-1" d="M23.48,83.31a3.64,3.64,0,0,1,.22-.36.7.7,0,0,1,.12-.15.42.42,0,0,1,.07.19l-.12.82-.15,1.36-.27,2.16a8.9,8.9,0,0,1-.23,1.2,9.52,9.52,0,0,1-.35,1l-.56,1.16a9.25,9.25,0,0,1-.52.84q-.16.21-.28.21l-.07-.17q.19-.66.36-1.27t.24-1q.24-1.12.34-2t.17-1.54l.27-.75Z"/><path class="cls-1" d="M20.51,85.08q-.58,2.11-1.33,2.47l-.92.46a1.55,1.55,0,0,0-.33.21,1.81,1.81,0,0,0-.3.28,4.38,4.38,0,0,0-.46.85q-.41,1.07-.63,1.53A2.27,2.27,0,0,1,15.37,92a5.54,5.54,0,0,1-1,.25,5.78,5.78,0,0,1-1,.13.37.37,0,0,1-.39-.15q0-.1.24-.3l.65-.47s.32-.22.85-.56l.58-.39a6.9,6.9,0,0,0,.95-.85,10.53,10.53,0,0,0,.57-1.19,8.48,8.48,0,0,1,.73-1.41,3,3,0,0,1,.79-.68l.7-.36a3.23,3.23,0,0,0,.61-.36,2.52,2.52,0,0,0,.44-.62q.27-.47.36-.45T20.51,85.08Z"/><path class="cls-1" d="M17.88,99.21a1.07,1.07,0,0,1,0,.52,3.8,3.8,0,0,1-.27.63,2.33,2.33,0,0,1-.5.64.53.53,0,0,1-.31.19s-.16-.07-.33-.22L16,100.6a3.53,3.53,0,0,1-.35-.3.4.4,0,0,1-.15-.24l.22-.48q.24-.53.36-.78L16.5,98l.15-.22.15.12.19.12a4.64,4.64,0,0,1,.68.63A1.12,1.12,0,0,1,17.88,99.21Zm2.5-.15a1.06,1.06,0,0,1,0,.52,3.82,3.82,0,0,1-.27.63,2.33,2.33,0,0,1-.5.64.53.53,0,0,1-.31.19s-.16-.07-.33-.22l-.46-.38a3.53,3.53,0,0,1-.35-.3.4.4,0,0,1-.15-.24l.22-.48q.24-.53.36-.78L19,97.9l.15-.22.15.12.19.12a4.64,4.64,0,0,1,.68.63A1.12,1.12,0,0,1,20.38,99.06Z"/><path class="cls-1" d="M13.33,83.31a3.64,3.64,0,0,1,.22-.36.7.7,0,0,1,.12-.15.42.42,0,0,1,.07.19l-.12.82-.15,1.36-.27,2.16a8.9,8.9,0,0,1-.23,1.2,9.52,9.52,0,0,1-.35,1l-.56,1.16a9.25,9.25,0,0,1-.52.84q-.16.21-.28.21l-.07-.17q.19-.66.36-1.27t.24-1q.24-1.12.34-2t.17-1.54l.27-.75Z"/><path class="cls-1" d="M9.87,91q-.12.51-.18.79a5,5,0,0,1-.18.62,9.32,9.32,0,0,1-.75,1.72,11.47,11.47,0,0,1-1.12,1.65,7.22,7.22,0,0,1-2.06,1.76,5,5,0,0,1-2.42.59,2.91,2.91,0,0,1-2.34-.95A3.63,3.63,0,0,1,0,94.71a7.49,7.49,0,0,1,.19-1.62,9.25,9.25,0,0,1,.42-1.44q.23-.57.55-1.2.41-.82.9-1.67a3.4,3.4,0,0,1,.23-.38s.07,0,.13,0,0,.11,0,.27a3.33,3.33,0,0,1-.09.41l-.8,1.75q-.32.8-.41,1.09A3.59,3.59,0,0,0,1,93a2.28,2.28,0,0,0,1,2.06,3.25,3.25,0,0,0,1.84.48,6.59,6.59,0,0,0,1.41-.13,4.82,4.82,0,0,0,1.28-.51,4.77,4.77,0,0,0,1.21-1,8.88,8.88,0,0,0,.85-1.12A4.84,4.84,0,0,0,9,91.91a3.29,3.29,0,0,0,.15-1.06l0-1.75a3.1,3.1,0,0,1,.1-.8,9,9,0,0,1,.32-.92l.48-.95.18-.33.13-.18a.36.36,0,0,1,.1.32l-.12.85-.12,1.21a8,8,0,0,1-.08,1.24Q10.06,90.08,9.87,91Zm-3.1-1.26a1.17,1.17,0,0,1,0,.27,1.46,1.46,0,0,1-.29.85q-.58.82-.85.87a.59.59,0,0,1-.22-.12l-.58-.44-.45-.28a.45.45,0,0,1-.23-.3l.56-1.26q.27-.46.46-.75l.15-.22.28.13a1.27,1.27,0,0,1,.23.13,4.79,4.79,0,0,1,.7.62A.89.89,0,0,1,6.76,89.72Z"/><path class="cls-1" d="M84.09,59q-.19-.37-.46-.37l-.78.1a1,1,0,0,1-1-.51.85.85,0,0,1-.1-.44A3.68,3.68,0,0,1,82,56.9a12.65,12.65,0,0,1,.59-1.31,8.27,8.27,0,0,1,.49-.85,1,1,0,0,1,.78-.44,1.83,1.83,0,0,1,1.48,1A3.69,3.69,0,0,1,86,57.36a7.61,7.61,0,0,1-.12,1.22A5.51,5.51,0,0,1,85.48,60a11.24,11.24,0,0,1-.63,1.19,6.37,6.37,0,0,1-.75,1,13,13,0,0,1-1.22,1.21,8.61,8.61,0,0,1-1.19.8q-.71.41-1,.51-.64.31-1.34.56a12,12,0,0,1-1.17.37,3.24,3.24,0,0,1-.71.12q.1-.31.2-.58A5.74,5.74,0,0,1,79.46,64l.71-.31A10.07,10.07,0,0,0,81.55,63l.92-.61a4.54,4.54,0,0,0,.59-.48,3.34,3.34,0,0,0,1.22-2A2,2,0,0,0,84.09,59Z"/><path class="cls-1" d="M83.42,50.83a1.49,1.49,0,0,1-.05.73,5.34,5.34,0,0,1-.37.88,3.27,3.27,0,0,1-.7.9.74.74,0,0,1-.44.27q-.1,0-.46-.31l-.64-.53a4.93,4.93,0,0,1-.49-.43.56.56,0,0,1-.2-.34l.31-.68q.34-.75.51-1.09.3-.51.61-1.05l.2-.31a1.34,1.34,0,0,0,.2.17l.27.17a6.56,6.56,0,0,1,1,.88A1.57,1.57,0,0,1,83.42,50.83Zm3.5-.2a1.5,1.5,0,0,1-.05.73,5.39,5.39,0,0,1-.37.88,3.28,3.28,0,0,1-.7.9.74.74,0,0,1-.44.27q-.1,0-.46-.31l-.65-.53a4.86,4.86,0,0,1-.49-.43.56.56,0,0,1-.2-.34l.31-.68q.34-.75.51-1.09.31-.51.61-1.05l.2-.31a1.33,1.33,0,0,0,.2.17l.27.17a6.54,6.54,0,0,1,1,.88A1.57,1.57,0,0,1,86.92,50.63Z"/><path class="cls-1" d="M43.76,73.71v-4l.51.17a16.89,16.89,0,0,0,3.28.65q1.71.17,3.11.17a40.17,40.17,0,0,0,6.79-.61,43.82,43.82,0,0,0,4.3-1q2-.56,3.72-1.21,1.32-.51,3-1.33a21.34,21.34,0,0,0,2.21-1.22,21,21,0,0,0,1.83-1.33q.51-.41.83-.7l.46-.43a4.31,4.31,0,0,1,.37-.32.74.74,0,0,1,.44-.19.36.36,0,0,1,.24.15l.24.26a1.77,1.77,0,0,0,.39.25,1.39,1.39,0,0,0,.66.15.39.39,0,0,0,.22-.09,2.83,2.83,0,0,0,.42-.49l1.77-2.18A3.69,3.69,0,0,1,81,59a1.05,1.05,0,0,1,.83.37,1.36,1.36,0,0,1,.32.92,5.54,5.54,0,0,1-1.53,3.43,5.4,5.4,0,0,1-4.21,2.18,3.3,3.3,0,0,1-2-.65A1.35,1.35,0,0,1,74,64.8c-.06-.14-.13-.2-.22-.2q-.65.65-1.68,1.55t-1.63,1.34q-.59.44-1.31.88a27,27,0,0,1-2.48,1.43q-2,1-3.63,1.63a34.34,34.34,0,0,1-5,1.56,48.82,48.82,0,0,1-5.06.87,40.8,40.8,0,0,1-4.82.32A18,18,0,0,1,43.76,73.71ZM81,61.5c0-.11-.15-.26-.44-.43a1.81,1.81,0,0,0-.92-.25,1.32,1.32,0,0,0-.78.31,6.59,6.59,0,0,0-.71.65,9,9,0,0,0-.61.75q-.44.58-.64.82l.44,0a4.56,4.56,0,0,0,.83-.08,5.25,5.25,0,0,0,1-.32,5.82,5.82,0,0,0,1.19-.68Q81,61.84,81,61.5Z"/><path class="cls-1" d="M77.33,55a1.5,1.5,0,0,1-.05.73,5.39,5.39,0,0,1-.37.88,3.27,3.27,0,0,1-.7.9.75.75,0,0,1-.44.27q-.1,0-.46-.31L74.66,57a4.93,4.93,0,0,1-.49-.42.56.56,0,0,1-.2-.34l.31-.68q.34-.75.51-1.09.31-.51.61-1.05l.2-.31a1.34,1.34,0,0,0,.2.17l.27.17a6.47,6.47,0,0,1,1,.88A1.57,1.57,0,0,1,77.33,55Z"/><path class="cls-1" d="M43.77,73.71a6.26,6.26,0,0,1-3.46-1.87,5.49,5.49,0,0,1-1.19-3.74q0-.68.07-2.14t.2-2.41L40,57.77l1.32-3.43a.1.1,0,0,0,.07,0q0,.75-.07,1.46-.34,2.92-.58,5.51t-.24,3.88a6.62,6.62,0,0,0,.24,2,3.44,3.44,0,0,0,.51.92,4.6,4.6,0,0,0,2.48,1.67,3.28,3.28,0,0,1,.27.61,3.51,3.51,0,0,1,.27,1.19A5.1,5.1,0,0,1,44,72.93,6.82,6.82,0,0,1,43.77,73.71Z"/><path class="cls-1" d="M35.06,67.16l.71.1a.59.59,0,0,0,.48-.27s.24-.34.65-1c.11-.18.19-.27.24-.27s.14,0,.14.12a1.87,1.87,0,0,1-.07.39,5.81,5.81,0,0,1-.39,1.12,5.19,5.19,0,0,1-.49.92q-.65.92-1.26.82Z"/><path class="cls-1" d="M35.06,69.12a2,2,0,0,0-.61,0,2.61,2.61,0,0,0-1.32.82q-.48.51-1,1a6.29,6.29,0,0,1-.88.75,2.7,2.7,0,0,1-1.39.34,3.37,3.37,0,0,1-.88-.1,9.46,9.46,0,0,0-1.36-.31,3.41,3.41,0,0,0-1.05.14,3.45,3.45,0,0,0-.88.48l-.53.2a.67.67,0,0,1-.46,0l0-.17.17-.37a6.62,6.62,0,0,1,.88-1.05,7,7,0,0,1,1.36-1.19,4.54,4.54,0,0,1,1.36-.85A4,4,0,0,1,30,68.38a2.06,2.06,0,0,1,.75.2,2.32,2.32,0,0,0,.92.2,2.44,2.44,0,0,0,1-.15,4.38,4.38,0,0,0,.71-.51l.8-.66a1.26,1.26,0,0,1,.81-.31,5.39,5.39,0,0,1,.19.51,1.73,1.73,0,0,1,.08.51,2.12,2.12,0,0,1-.17.71A.59.59,0,0,1,35.06,69.12Z"/><path class="cls-1" d="M31.83,77a1.49,1.49,0,0,1-.05.73,5.39,5.39,0,0,1-.37.88,3.28,3.28,0,0,1-.7.9.75.75,0,0,1-.44.27q-.1,0-.46-.31l-.64-.53a4.93,4.93,0,0,1-.49-.42.56.56,0,0,1-.2-.34l.31-.68q.34-.75.51-1.09.31-.51.61-1.05l.2-.31a1.31,1.31,0,0,0,.2.17l.27.17a6.5,6.5,0,0,1,1,.88A1.56,1.56,0,0,1,31.83,77Zm3.5-.2a1.49,1.49,0,0,1-.05.73,5.38,5.38,0,0,1-.37.88,3.27,3.27,0,0,1-.7.9.74.74,0,0,1-.44.27q-.1,0-.46-.31l-.65-.53a4.92,4.92,0,0,1-.49-.42A.56.56,0,0,1,32,78l.31-.68q.34-.75.51-1.09.31-.51.61-1.05l.2-.31a1.32,1.32,0,0,0,.2.17l.27.17a6.56,6.56,0,0,1,1,.88A1.57,1.57,0,0,1,35.33,76.77Z"/><path class="cls-1" d="M92.17,70.14a3.11,3.11,0,0,0,.17-1q0-1.39.8-1.68a3,3,0,0,0,1.31-.9,1.5,1.5,0,0,0,.41-1A1,1,0,0,0,94.7,65a1.06,1.06,0,0,0-.32-.34l-.42.07a3.25,3.25,0,0,1-.49,0,1.23,1.23,0,0,1-1-.41.89.89,0,0,1-.31-.75,10.27,10.27,0,0,1,.71-1.9,3.81,3.81,0,0,1,.59-1.09,1,1,0,0,1,.8-.44,1.87,1.87,0,0,1,1.39.71,3.5,3.5,0,0,1,.82,2.41,7.66,7.66,0,0,1-1.19,3.57,11.6,11.6,0,0,1-2,2.69,5.13,5.13,0,0,1-.78.58,1.09,1.09,0,0,1-.44.17A.51.51,0,0,0,92.17,70.14Z"/><path class="cls-1" d="M94.69,51.48a1.49,1.49,0,0,1-.05.73,5.34,5.34,0,0,1-.37.88,3.27,3.27,0,0,1-.7.9.74.74,0,0,1-.44.27q-.1,0-.46-.31L92,53.44a4.93,4.93,0,0,1-.49-.43.56.56,0,0,1-.2-.34l.31-.68q.34-.75.51-1.09.3-.51.61-1.05l.2-.31a1.34,1.34,0,0,0,.2.17l.27.17a6.56,6.56,0,0,1,1,.88A1.57,1.57,0,0,1,94.69,51.48Zm3.5-.2a1.5,1.5,0,0,1-.05.73,5.39,5.39,0,0,1-.37.88,3.28,3.28,0,0,1-.7.9.74.74,0,0,1-.44.27q-.1,0-.46-.31l-.65-.53a4.86,4.86,0,0,1-.49-.43.56.56,0,0,1-.2-.34l.31-.68q.34-.75.51-1.09.31-.51.61-1.05l.2-.31a1.33,1.33,0,0,0,.2.17l.27.17a6.54,6.54,0,0,1,1,.88A1.57,1.57,0,0,1,98.18,51.28Z"/><path class="cls-1" d="M93,70.6q-.1.27-.19.46a5.89,5.89,0,0,1-.34.6q-.25.41-.56.85A3.87,3.87,0,0,1,91,73.57a4.84,4.84,0,0,1-.88.39L89,74.37l-1.83.48-.46.07c-.17,0-.27,0-.29,0s.08-.14.32-.29l.44-.27,1.27-.76a14.24,14.24,0,0,0,1.29-.85,12.65,12.65,0,0,0,1.63-1.36A1.79,1.79,0,0,0,92,70.26a1.72,1.72,0,0,1-.39.1,3.5,3.5,0,0,1-.53,0,2.63,2.63,0,0,1-1-.34,1,1,0,0,1-.54-.88,7.25,7.25,0,0,1,.75-2,3.46,3.46,0,0,1,.58-1q.51-.65.92-.65a1.57,1.57,0,0,1,1.15.48,1.93,1.93,0,0,1,.61,1.33,6,6,0,0,1,0,.75q0,.37,0,.7a3,3,0,0,1-.1.63c-.06.2-.11.39-.17.56A4.73,4.73,0,0,1,93,70.6Z"/><path class="cls-1" d="M86.38,69.38a6.24,6.24,0,0,1-.24,1.6,7.84,7.84,0,0,1-.61,1.6,6.78,6.78,0,0,1-1.24,1.75,2,2,0,0,1-1.41.6q-1.22,0-1.22-1.5a3.85,3.85,0,0,1,.17-1.09l.54-1.16.51-.88-.25-.08-.08,0a1.76,1.76,0,0,1,.2-.71l.58-1.29.61-1.39c.11-.27.24-.41.37-.41a1.15,1.15,0,0,1,.51.2q.34.2.58.37a3.44,3.44,0,0,1,.76,1A3.53,3.53,0,0,1,86.38,69.38ZM84.79,72a1,1,0,0,0-.34-.78,2.61,2.61,0,0,0-.48-.36,1,1,0,0,0-.51-.19q-.14,0-.51.56a1.84,1.84,0,0,0-.37,1q0,.75.88.75a1.64,1.64,0,0,0,.87-.29A.81.81,0,0,0,84.79,72Z"/><path class="cls-1" d="M38.13,61.43l-.44.2-1.19.58a8.22,8.22,0,0,0-1.07.61q-.56.37-1,.75l-.34.31-.24-.34.75-.68q.27-.24.68-.54a2.42,2.42,0,0,0-.31-.27q-.34-.31-.34-.37a1.4,1.4,0,0,1,.27-.54,9.24,9.24,0,0,1,.64-.85,5,5,0,0,1,.61-.58,1.52,1.52,0,0,1,.88-.41.74.74,0,0,1,.61.31.5.5,0,0,1,.1.31.48.48,0,0,1-.12.29.33.33,0,0,1-.25.15s-.12-.06-.24-.17a.52.52,0,0,0-.37-.17,1,1,0,0,0-.56.19.52.52,0,0,0-.29.43q0,.31.41.51a1.94,1.94,0,0,0,.88.2,1.64,1.64,0,0,0,.58-.1l.58-.24Q38.23,61.22,38.13,61.43Z"/><path class="cls-1" d="M91.05,59.41q.17,0,.17.37a4.41,4.41,0,0,1-.05.71,1.57,1.57,0,0,1-.22.58q-.37.78-.92.78a.61.61,0,0,1-.54-.34l-.2-.41a.79.79,0,0,1-.14.2l-.14.14a1.14,1.14,0,0,1-1,.65.84.84,0,0,1-.66-.36,1.38,1.38,0,0,1-.29-.9,4.17,4.17,0,0,1,.12-1q.12-.48.36-.48s0,.1.05.29,0,.35,0,.48a1,1,0,0,0,.12.37q.1.19.48.19a.75.75,0,0,0,.54-.24,3.55,3.55,0,0,0,.44-.54q.1-.17.2-.17t.15.2a.61.61,0,0,0,.12.27.62.62,0,0,0,.54.31.45.45,0,0,0,.27-.1l.17-.14a2.47,2.47,0,0,0,.34-.61A.77.77,0,0,1,91.05,59.41Z"/></g><g id="Layer_1-2" data-name="Layer 1"><g id="_Group_" data-name="&lt;Group&gt;"><path id="_Path_" data-name="&lt;Path&gt;" class="cls-1" d="M60,0l.38.35a1.14,1.14,0,0,0,1.13.18,2.67,2.67,0,0,1,.33-.15.39.39,0,0,1,.22,0,5.84,5.84,0,0,0,.58.21.89.89,0,0,0,.81-.2l.38-.29a1,1,0,0,1-.47,1.06,1.17,1.17,0,0,1-.47.19,1.28,1.28,0,0,1-.54,0,2.15,2.15,0,0,1-.45-.25,1.16,1.16,0,0,1-1.2.24,1.11,1.11,0,0,1-.72-1c0-.11,0-.22,0-.33Z"/><path id="_Compound_Path_" data-name="&lt;Compound Path&gt;" class="cls-1" d="M59.93,23.72c0-.34.06-.68.08-1,0-.6.1-1.2.13-1.8a.45.45,0,0,0-.09-.27c-.19-.25-.39-.5-.61-.76L62,16.76l.87,1.08,1.49,1.83a2,2,0,0,0,.31.24c-.21.21-.36.38-.53.52a.77.77,0,0,0-.28.75c.09.8.13,1.6.19,2.4,0,0,0,.1,0,.14.24,0,.48,0,.72.05a1.45,1.45,0,0,1,1,.51.35.35,0,0,0,.46.09l.63-.31a1.13,1.13,0,0,1,1.57.42.36.36,0,0,1,.07.15A1.5,1.5,0,0,0,69.9,26c.43.09.87.09,1.3.15l3.12.46c.51.08,1,.18,1.54.27a.26.26,0,0,0,.28-.1,2.77,2.77,0,0,1,1.49-1,1.6,1.6,0,0,1,1.29.25,2.69,2.69,0,0,1,.79.78c.05.08.1.09.2.08a5.13,5.13,0,0,1,.88,0,.53.53,0,0,1,.46.42.84.84,0,0,1-.65,1.11,2.38,2.38,0,0,1-.71-.05c-.33-.06-.49,0-.45.39a3.23,3.23,0,0,0,.2.83c.34.89.71,1.77,1.07,2.65l.64,1.55.76,1.87.68,1.65.75,1.84.7,1.7c.13.3.25.61.39.91a1.4,1.4,0,0,1,0,.88,6.56,6.56,0,0,1-.26,1.17,10.87,10.87,0,0,1-.69,1.58,6,6,0,0,1-1.46,1.74,7.32,7.32,0,0,1-3.15,1.45,6.34,6.34,0,0,1-3.17-.15,6.92,6.92,0,0,1-2.18-1.05A5.73,5.73,0,0,1,72.35,46c-.26-.38-.49-.79-.73-1.19a7.39,7.39,0,0,1-.73-2.08c0-.15-.08-.29-.12-.43a.43.43,0,0,1,.07-.38,4.41,4.41,0,0,0,.29-.62L72.19,39l.69-1.45.71-1.5.72-1.51L75,33l.67-1.41L76.45,30c.08-.17.18-.32.25-.49a.88.88,0,0,0-.28-1,.56.56,0,0,0-.32-.07c-.81.08-1.61.19-2.42.25-1.71.12-3.43.21-5.14.3l-3.85.19-.11,0-.1.74c-.15,1.11-.3,2.23-.44,3.34-.09.7-.17,1.4-.26,2.1-.14,1.11-.3,2.23-.44,3.34-.09.71-.17,1.43-.27,2.14-.15,1.14-.3,2.27-.45,3.41a1.05,1.05,0,0,1-.5.79.28.28,0,0,1-.24,0,1.24,1.24,0,0,1-.52-1q-.2-1.76-.43-3.52c-.21-1.68-.44-3.35-.65-5q-.38-2.92-.75-5.84a1.9,1.9,0,0,0-.09-.38.18.18,0,0,0-.14-.09L55.43,29q-2.9-.17-5.79-.36c-.58,0-1.16-.12-1.74-.19a.44.44,0,0,0-.4.14.91.91,0,0,0-.13,1.08c.19.39.38.78.56,1.17l.84,1.78.68,1.42.76,1.61.62,1.3.78,1.65L52.26,40,53,41.66l.06.09a.64.64,0,0,1,.12.54,11.69,11.69,0,0,1-.73,2.29,9,9,0,0,1-.76,1.3,6.19,6.19,0,0,1-1.38,1.4,7.37,7.37,0,0,1-3,1.29,7.21,7.21,0,0,1-5.55-1.45,6.49,6.49,0,0,1-1.27-1.39,8.21,8.21,0,0,1-.9-1.88,6.86,6.86,0,0,1-.36-1.77.69.69,0,0,1,0-.3c.3-.76.61-1.51.91-2.26L41,37.77,41.69,36l.68-1.65.72-1.76.69-1.69c.19-.46.4-.9.57-1.36a3.38,3.38,0,0,0,.19-.81c0-.36-.12-.48-.46-.39a1.43,1.43,0,0,1-.9,0,.86.86,0,0,1-.5-.91.64.64,0,0,1,.68-.6,3.63,3.63,0,0,1,.71.08.16.16,0,0,0,.19-.07,6.35,6.35,0,0,1,.57-.61,1.7,1.7,0,0,1,2-.26,2.64,2.64,0,0,1,1,.77.3.3,0,0,0,.34.12c.84-.15,1.68-.31,2.52-.43,1-.15,2.09-.27,3.13-.39a1.9,1.9,0,0,0,1.42-.76,1,1,0,0,0,.17-.47,1,1,0,0,1,.47-.69,1.07,1.07,0,0,1,1.18,0l.6.3c.26.12.38.09.57-.14a1.42,1.42,0,0,1,.94-.44C59.41,23.75,59.66,23.74,59.93,23.72ZM40.57,42.91a1.51,1.51,0,0,0,0,.2c.16.39.31.79.48,1.18a5.3,5.3,0,0,0,.85,1.3,5.07,5.07,0,0,0,1.14,1,5.31,5.31,0,0,0,3.08.78,5.83,5.83,0,0,0,3.44-1.22,6.61,6.61,0,0,0,1.56-1.77c.16-.26.29-.54.42-.82l.28-.57ZM72.12,43l.2.39c.23.43.45.87.72,1.28a9.14,9.14,0,0,0,.73.9,4.72,4.72,0,0,0,1.1.92,6,6,0,0,0,5.28.51,5,5,0,0,0,2.11-1.63,6.12,6.12,0,0,0,1.09-2.1l.09-.34ZM51.81,41.4c-.09-.15-.16-.26-.21-.38l-.7-1.48L50.19,38l-.73-1.55-.78-1.67-.62-1.32-.75-1.6c-.19-.41-.36-.82-.55-1.22-.09-.2-.2-.38-.31-.58,0,.28,0,.56,0,.83q.05,2.59.1,5.17c0,1.38,0,2.75.08,4.13,0,.35,0,.71.07,1.08Zm20.43,0,5.09-.12L77.55,30c-.17.35-.33.64-.47.94l-.65,1.37-.71,1.54L75,35.34l-.85,1.85-.58,1.22L72.85,40Zm11.47,0c-.07-.12-.12-.19-.15-.27l-.73-1.71-.71-1.66-.7-1.62-.72-1.69L80,32.78l-.89-2.1L78.82,30h0V41.34ZM45.21,30l-.7,1.59-.73,1.71-.7,1.64-.7,1.63-.7,1.64-1,2.38-.34.83,4.87-.06ZM63.69,19.89,62,18,60.31,19.9l.61.54c.12.1.2.19.15.38s-.08.48-.14.72A5,5,0,0,0,60.78,23c0,.31.19.43.46.31a3.33,3.33,0,0,0,.63-.36c.13-.09.19-.08.32,0a2.3,2.3,0,0,0,.67.36c.2.07.32,0,.34-.27a2.2,2.2,0,0,0,0-.51c-.09-.6-.19-1.21-.29-1.81a.25.25,0,0,1,.11-.28C63.26,20.31,63.46,20.1,63.69,19.89ZM64.58,28,75,27.67v0L64.58,26.29ZM49,27.63v0L59.41,28V26.29Zm13.1,2,1.39-1.12a.28.28,0,0,0,.09-.19q0-1-.1-1.93a.2.2,0,0,0-.12-.14L62.4,26a1.23,1.23,0,0,0-.44-.07c-.44.08-.87.19-1.3.29a.2.2,0,0,0-.11.15c0,.63-.07,1.25-.11,1.88a.27.27,0,0,0,.11.26l.84.68.57.44.06-.15Zm1.49,0h0l-.36.35-.37.33c-.37.36-.36.36-.35.89q.07,2.74.12,5.48c0,.51,0,1,0,1.52h0Zm-3.14-.05.95,8.61c0-.08,0-.1,0-.12q0-1.76.08-3.52c0-1.16,0-2.31.09-3.47a.75.75,0,0,0-.26-.69C61,30.06,60.74,29.78,60.43,29.49ZM62,24.91l1.05.17a28.46,28.46,0,0,0,3.7.55,2.6,2.6,0,0,0,.71-.06c.23-.05.28-.23.17-.45,0-.06-.07-.11-.11-.17a.15.15,0,0,0-.21-.07c-.31.1-.63.19-.94.27a1.49,1.49,0,0,1-1.49-.32c-.06-.06-.18-.05-.27-.06a2.13,2.13,0,0,1-.55,0c-.53-.17-1.06-.37-1.58-.56-.18-.07-.35-.16-.54-.24v.9h0l0-.12Zm-.09-.9-.13.06c-.49.2-1,.42-1.48.61a1.56,1.56,0,0,1-.93.12.41.41,0,0,0-.44.11,1.07,1.07,0,0,1-.73.31,3.85,3.85,0,0,1-1.47-.28c-.27-.1-.32-.08-.45.19s-.07.41.19.47a2,2,0,0,0,.61.06c.6,0,1.2-.11,1.79-.2s1.37-.24,2.05-.36l1-.16Z"/><path id="_Path_2" data-name="&lt;Path&gt;" class="cls-1" d="M64.46,2.84c.19.22.38.43.56.66s.42.55.63.83a8.22,8.22,0,0,1,.77,1.42A5.41,5.41,0,0,1,67,7.63a7.06,7.06,0,0,1-.18,2.87,6.45,6.45,0,0,1-.24.81,14.77,14.77,0,0,1-.73,1.42,4.76,4.76,0,0,1-.63.81,6.84,6.84,0,0,1-1.3,1.07c-.17.11-.35.18-.58.29a6,6,0,0,0,3.42.38v0a.8.8,0,0,1-.17.08c-.63.15-1.26.33-1.9.43A3.6,3.6,0,0,1,63,15.75l-.29-.11c-.22.28-.44.56-.66.85s-.15.15-.26,0l-.69-.87a3.37,3.37,0,0,1-1.69.19,11.31,11.31,0,0,1-1.61-.29l-.52-.15a.36.36,0,0,1-.15-.1,6.27,6.27,0,0,0,3.43-.41,4.67,4.67,0,0,1-.48-.25c-.31-.21-.62-.43-.92-.66a3.25,3.25,0,0,1-.43-.41c-.19-.22-.37-.45-.56-.67a6.74,6.74,0,0,1-.68-1.17A6.05,6.05,0,0,1,57,10.16a8.31,8.31,0,0,1-.14-1.1,6.62,6.62,0,0,1,.2-2.21,4.2,4.2,0,0,1,.45-1.24c.12-.2.2-.43.32-.64a9.78,9.78,0,0,1,.53-.85c.21-.29.44-.56.67-.84L59.28,3a.49.49,0,0,1,.19-.14c-.1.2-.21.39-.31.59a9.77,9.77,0,0,0-.46.95c-.17.47-.31,1-.45,1.44A6.27,6.27,0,0,0,58,7.62a6.77,6.77,0,0,0,.13,1.28,6.93,6.93,0,0,0,.64,2,9,9,0,0,0,.73,1.21,15.68,15.68,0,0,0,1.12,1.25,4.73,4.73,0,0,0,.51.41,1.5,1.5,0,0,0,0-.16q0-1.45,0-2.9c0-.39,0-.78,0-1.16q0-2.89-.07-5.78c0-.34,0-.68,0-1a.29.29,0,0,1,.09-.19l.7-.6a.19.19,0,0,1,.3,0c.22.21.47.39.7.59a.27.27,0,0,1,.09.18c0,.39,0,.78,0,1.16s0,1,0,1.45c0,1,0,2,0,3.06,0,.69,0,1.39,0,2.08,0,1,0,2.05-.06,3.08,0,.05,0,.11,0,.21.21-.17.39-.31.56-.46s.33-.33.49-.5.32-.36.46-.56.34-.48.5-.72a6.47,6.47,0,0,0,1-2.53c.05-.35.12-.7.17-1a1.32,1.32,0,0,0,0-.28c0-.31,0-.63-.07-.94a2.84,2.84,0,0,0-.09-.33c-.08-.35-.13-.7-.24-1S65.17,4.44,65,4s-.36-.76-.55-1.14Z"/><path id="_Path_3" data-name="&lt;Path&gt;" class="cls-1" d="M58.55,2.64l-.24.22c-.25.25-.48.52-.75.74a4.42,4.42,0,0,0-.66.83,4.65,4.65,0,0,0-.63,1.19c-.12.32-.27.63-.36,1A8.44,8.44,0,0,0,55.5,9a7.35,7.35,0,0,0,.32,2.08,12.84,12.84,0,0,0,.78,1.86c.16.33.37.63.56,1a.27.27,0,0,1,0,.17c-.26-.18-.54-.35-.79-.55a5.8,5.8,0,0,1-.68-.63,5.14,5.14,0,0,1-.75-1,6,6,0,0,1-.67-1.78,3.9,3.9,0,0,1-.08-.54c0-.49,0-1,0-1.46a5.41,5.41,0,0,1,.41-1.88,6.48,6.48,0,0,1,.71-1.27,6,6,0,0,1,1.31-1.33,7.63,7.63,0,0,1,1.78-1h.1Z"/><path id="_Path_4" data-name="&lt;Path&gt;" class="cls-1" d="M66.63,14a5.94,5.94,0,0,1,.42-.75,5.57,5.57,0,0,0,.55-1A7.9,7.9,0,0,0,68.3,10a5.83,5.83,0,0,0-.08-2.36c-.11-.42-.16-.86-.31-1.26a12.56,12.56,0,0,0-.7-1.55,5.82,5.82,0,0,0-.7-1,12.56,12.56,0,0,0-.92-.89l-.24-.24,0,0c.24.1.48.18.7.29a5.88,5.88,0,0,1,1.34.84,13.37,13.37,0,0,1,1,1,2.9,2.9,0,0,1,.34.48c.13.21.23.44.35.65A5.13,5.13,0,0,1,69.65,8a12.2,12.2,0,0,1,0,1.52A4.15,4.15,0,0,1,69.28,11a10.24,10.24,0,0,1-.72,1.34,3.72,3.72,0,0,1-.7.79c-.35.3-.75.56-1.12.83A.4.4,0,0,1,66.63,14Z"/><path id="_Path_5" data-name="&lt;Path&gt;" class="cls-1" d="M62.8,30.21l.37-.33.36-.35h0l-.94,8.55h0c0-.51,0-1,0-1.52"/><path id="_Path_6" data-name="&lt;Path&gt;" class="cls-1" d="M62,24.91v-.15l0,.12h0V24c.19.08.36.17.54.24.53.19,1,.4,1.58.56a2.13,2.13,0,0,0,.55,0c.09,0,.22,0,.27.06a1.49,1.49,0,0,0,1.49.32c.32-.08.63-.17.94-.27a.15.15,0,0,1,.21.07c0,.06.08.11.11.17.11.22.06.4-.17.45a2.6,2.6,0,0,1-.71.06"/><path id="_Path_7" data-name="&lt;Path&gt;" class="cls-1" d="M58.92,25.44c-.59.09-1.19.15-1.79.2a2,2,0,0,1-.61-.06c-.26-.06-.31-.23-.19-.47s.18-.28.45-.19a3.85,3.85,0,0,0,1.47.28A1.07,1.07,0,0,0,59,24.9a.41.41,0,0,1,.44-.11,1.56,1.56,0,0,0,.93-.12c.5-.19,1-.4,1.48-.61l.13-.06v.9l-1,.16"/></g></g></g></svg>