<svg xmlns="http://www.w3.org/2000/svg" viewBox="0 0 43.36 33.85"><defs><style>.cls-1{fill:#846e00;}</style></defs><title>TanghihIcon</title><g id="Layer_2" data-name="Layer 2"><g id="Layer_19" data-name="Layer 19"><path class="cls-1" d="M40.27,10.23c-.18-1.32-.2-3.59,1-4.35l.06-.05c1-.32,1.69-.77,1.15-1.37L27.73,0,3.83,3.32S1.09,3.72,1.33,8c.13,2.32.86,3.45,1.49,4l-2,.59c-.54.6.15,1.05,1.15,1.37l.06.05c1.22.76,1.2,3,1,4.35C-1.3,19.6.28,20,.28,20l1,.23C.56,20.85-.11,22,0,24.22c.24,4.25,2.49,4.55,2.49,4.55l15.65,5.09,23.62-5.72s1.58-.41-2.82-1.66c-.18-1.32-.2-3.59,1-4.35l.06-.05c1-.32,1.69-.77,1.15-1.37l-1-.31c.68-.41,1.71-1.49,1.87-4.29a5,5,0,0,0-1-3.72l2-.49S44.66,11.47,40.27,10.23Zm-19.75-.05,4-.82L37.91,6.6l2-.41A6.92,6.92,0,0,0,39.4,10c0,.23,0,.45.08.61l-2.19.54L20.35,15.35ZM3.46,14.31l2,.41,12.89,2.65,1.13.23h0l3.38.69L23,23.47,5.6,19.14l-1.72-.43c0-.16.05-.37.08-.61A6.92,6.92,0,0,0,3.46,14.31ZM2.68,7.76A3.36,3.36,0,0,1,3.26,5.4,1.06,1.06,0,0,1,4,5.08l.2,0,10.3,3.36,5.14,1.68-.17,5.21-14.42-4-.76-.21h-.1C4.17,11.07,2.75,10.94,2.68,7.76ZM18.19,31.59,3,27.33l-.09,0c-.06,0-1.49-.14-1.56-3.31a3.36,3.36,0,0,1,.58-2.37,1.06,1.06,0,0,1,.78-.32h.2l15.44,5Zm19.89-5.36c0,.23.05.45.08.61L19,31.6l.17-5.18,4.09-.84.6.15L26.16,25l10.43-2.14,2-.41A6.92,6.92,0,0,0,38.08,26.23Zm1.05-7-.1,0-1.44.4L23.86,23.47l-.17-5.21,4.51-1.47,10.91-3.56a1.14,1.14,0,0,1,1,.3,3.36,3.36,0,0,1,.58,2.37C40.61,19.06,39.19,19.19,39.14,19.19Z"/></g></g></svg>