<svg xmlns="http://www.w3.org/2000/svg" viewBox="0 0 33.72 28.54"><defs><style>.cls-1{fill:#890038;}</style></defs><title>ThesaurusIcon</title><g id="Layer_2" data-name="Layer 2"><g id="Layer_19" data-name="Layer 19"><path class="cls-1" d="M15.7,0h-4A1.92,1.92,0,0,0,9.76,1.92V26.61a1.93,1.93,0,0,0,1.92,1.93h4a1.92,1.92,0,0,0,1.93-1.92V1.93A1.92,1.92,0,0,0,15.7,0Zm-.38,25.69H12.06a.67.67,0,1,1,0-1.35h3.26a.67.67,0,1,1,0,1.34Zm0-19.32H12.06a.67.67,0,1,1,0-1.35h3.26a.68.68,0,0,1,0,1.36Z"/><path class="cls-1" d="M6,0h-4A1.93,1.93,0,0,0,0,1.92V26.62a1.92,1.92,0,0,0,1.92,1.93h4a1.93,1.93,0,0,0,1.93-1.92V1.93A1.92,1.92,0,0,0,6,0ZM5.57,25.69H2.31a.67.67,0,1,1,0-1.35H5.57a.67.67,0,1,1,0,1.34Zm0-19.32H2.31A.67.67,0,0,1,2.31,5H5.57a.68.68,0,0,1,0,1.36Z"/><path class="cls-1" d="M21.16,2.71a1.13,1.13,0,0,0-2.22.48l5.28,24.21a1.13,1.13,0,1,0,2.22-.48Z"/><path class="cls-1" d="M33.69,25.35,28.41,1.13a1.13,1.13,0,0,0-2.22.48l5.28,24.22a1.13,1.13,0,0,0,2.22-.48Z"/><path class="cls-1" d="M23.08,1.67a.52.52,0,1,0-1,.22L27.6,27.3a.52.52,0,1,0,1-.22Z"/><path class="cls-1" d="M24.9,1.27a.52.52,0,0,0-1,.22L29.42,26.9a.52.52,0,0,0,1-.22Z"/></g></g></svg>